solid AssimpScene
 facet normal 0 0 0
  outer loop
  vertex 0.00555000827 -0.00356230163 0.00558646955
  vertex 0.00555000827 -0.00274999975 4.41006068e-06
  vertex 0.00645000674 -7.22407745e-10 0.0067996704
  endloop
 endfacet

 facet normal 0 0 0
  outer loop
  vertex 0.00555000827 -0.00356230163 0.00558646955
  vertex 0.00645000674 -7.22407745e-10 0.0067996704
  vertex 0.00644914014 0.000113983289 0.0378222242
  endloop
 endfacet

 facet normal 0 0 0
  outer loop
  vertex 0.00555000827 -0.00356230163 0.00558646955
  vertex 0.00644914014 0.000113983289 0.0378222242
  vertex 0.00602629082 -0.00248519727 0.0378783904
  endloop
 endfacet

 facet normal 0 0 0
  outer loop
  vertex -0.00514401216 0.00628402689 0.036618311
  vertex 0.00612520846 0.00218322547 0.0362670645
  vertex 0.00256190659 0.00657298742 0.025410356
  endloop
 endfacet

 facet normal 0 0 0
  outer loop
  vertex -0.00514401216 0.00628402689 0.036618311
  vertex -0.00570806954 0.00587812066 0.00118515943
  vertex -0.00774879381 0.00337284128 0.0387981534
  endloop
 endfacet

 facet normal 0 0 0
  outer loop
  vertex -0.0082355896 -0.00214877096 0.0320327617
  vertex -0.00529268151 -0.00618462684 0.00129939592
  vertex -0.0048171333 -0.00648526615 0.028193932
  endloop
 endfacet

 facet normal 0 0 0
  outer loop
  vertex 0.00274450844 0.00274999999 -0.00358689646
  vertex 0.00555000827 0.000619736558 -0.00123917533
  vertex 0.00268920115 -0.00274999999 -0.00362236891
  endloop
 endfacet

 facet normal 0 0 0
  outer loop
  vertex 0.00274450844 0.00274999999 -0.00358689646
  vertex 0.00268920115 -0.00274999999 -0.00362236891
  vertex -0.00092100678 -1.0978185e-10 -0.00523008406
  endloop
 endfacet

 facet normal 0 0 0
  outer loop
  vertex -0.000569736818 -0.00724142138 -0.00175106677
  vertex -0.00529268151 -0.00618462684 0.00129939592
  vertex -0.00480420515 -0.00275000022 -0.00361280632
  endloop
 endfacet

 facet normal 0 0 0
  outer loop
  vertex -0.000569736818 -0.00724142138 -0.00175106677
  vertex 0.00268920115 -0.00274999999 -0.00362236891
  vertex 0.00175190996 -0.00728763873 -0.000246944692
  endloop
 endfacet

 facet normal 0 0 0
  outer loop
  vertex 0.0055500078 0.00356229907 0.00558647094
  vertex 0.00187462242 0.00690627284 0.00388020976
  vertex 0.00256190659 0.00657298742 0.025410356
  endloop
 endfacet

 facet normal 0 0 0
  outer loop
  vertex 0.0055500078 0.00356229907 0.00558647094
  vertex 0.00256190659 0.00657298742 0.025410356
  vertex 0.00612520846 0.00218322547 0.0362670645
  endloop
 endfacet

 facet normal 0 0 0
  outer loop
  vertex -0.00852293056 0.000636551937 0.0371876471
  vertex -0.0084335478 -0.000847534102 0.00126143929
  vertex -0.0082355896 -0.00214877096 0.0320327617
  endloop
 endfacet

 facet normal 0 0 0
  outer loop
  vertex -0.00852293056 0.000636551937 0.0371876471
  vertex -0.0082355896 -0.00214877096 0.0320327617
  vertex -0.0048171333 -0.00648526615 0.028193932
  endloop
 endfacet

 facet normal 0 0 0
  outer loop
  vertex -0.00852293056 0.000636551937 0.0371876471
  vertex 0.00602629082 -0.00248519727 0.0378783904
  vertex -0.00774879381 0.00337284128 0.0387981534
  endloop
 endfacet

 facet normal 0 0 0
  outer loop
  vertex 0.00555000827 -0.00274999975 4.41006068e-06
  vertex 0.00555000827 -0.00356230163 0.00558646955
  vertex 0.00175190996 -0.00728763873 -0.000246944692
  endloop
 endfacet

 facet normal 0 0 0
  outer loop
  vertex 0.00555000827 -0.00274999975 4.41006068e-06
  vertex 0.00175190996 -0.00728763873 -0.000246944692
  vertex 0.00268920115 -0.00274999999 -0.00362236891
  endloop
 endfacet

 facet normal 0 0 0
  outer loop
  vertex 0.00555000827 -0.00274999975 4.41006068e-06
  vertex 0.00268920115 -0.00274999999 -0.00362236891
  vertex 0.00555000827 0.000619736558 -0.00123917533
  endloop
 endfacet

 facet normal 0 0 0
  outer loop
  vertex -0.00258169579 0.00274999975 -0.00453864411
  vertex -0.00092100678 -1.0978185e-10 -0.00523008406
  vertex -0.00480420515 -0.00275000022 -0.00361280632
  endloop
 endfacet

 facet normal 0 0 0
  outer loop
  vertex -0.00258169579 0.00274999975 -0.00453864411
  vertex -0.00480420515 -0.00275000022 -0.00361280632
  vertex -0.00581578305 0.0019842491 -0.00317178038
  endloop
 endfacet

 facet normal 0 0 0
  outer loop
  vertex -0.00258169579 0.00274999975 -0.00453864411
  vertex -0.00581578305 0.0019842491 -0.00317178038
  vertex -0.00570806954 0.00587812066 0.00118515943
  endloop
 endfacet

 facet normal 0 0 0
  outer loop
  vertex -0.00258169579 0.00274999975 -0.00453864411
  vertex -0.00570806954 0.00587812066 0.00118515943
  vertex -6.65457701e-05 0.00710000005 -0.00127826771
  endloop
 endfacet

 facet normal 0 0 0
  outer loop
  vertex -0.00258169579 0.00274999975 -0.00453864411
  vertex -6.65457701e-05 0.00710000005 -0.00127826771
  vertex 0.00274450844 0.00274999999 -0.00358689646
  endloop
 endfacet

 facet normal 0 0 0
  outer loop
  vertex -0.00258169579 0.00274999975 -0.00453864411
  vertex 0.00274450844 0.00274999999 -0.00358689646
  vertex -0.00092100678 -1.0978185e-10 -0.00523008406
  endloop
 endfacet

 facet normal 0 0 0
  outer loop
  vertex 0.00555000827 0.00274999999 4.40679423e-06
  vertex -6.65457701e-05 0.00710000005 -0.00127826771
  vertex 0.00187462242 0.00690627284 0.00388020976
  endloop
 endfacet

 facet normal 0 0 0
  outer loop
  vertex 0.00555000827 0.00274999999 4.40679423e-06
  vertex 0.00187462242 0.00690627284 0.00388020976
  vertex 0.0055500078 0.00356229907 0.00558647094
  endloop
 endfacet

 facet normal 0 0 0
  outer loop
  vertex 0.00555000827 0.00274999999 4.40679423e-06
  vertex 0.00555000827 0.000619736558 -0.00123917533
  vertex 0.00274450844 0.00274999999 -0.00358689646
  endloop
 endfacet

 facet normal 0 0 0
  outer loop
  vertex 0.00555000827 0.00274999999 4.40679423e-06
  vertex 0.00274450844 0.00274999999 -0.00358689646
  vertex -6.65457701e-05 0.00710000005 -0.00127826771
  endloop
 endfacet

 facet normal 0 0 0
  outer loop
  vertex -0.00166955299 0.00747436471 0.0268483441
  vertex -6.65457701e-05 0.00710000005 -0.00127826771
  vertex -0.00570806954 0.00587812066 0.00118515943
  endloop
 endfacet

 facet normal 0 0 0
  outer loop
  vertex -0.00166955299 0.00747436471 0.0268483441
  vertex -0.00570806954 0.00587812066 0.00118515943
  vertex -0.00514401216 0.00628402689 0.036618311
  endloop
 endfacet

 facet normal 0 0 0
  outer loop
  vertex -0.00166955299 0.00747436471 0.0268483441
  vertex -0.00514401216 0.00628402689 0.036618311
  vertex 0.00256190659 0.00657298742 0.025410356
  endloop
 endfacet

 facet normal 0 0 0
  outer loop
  vertex -0.00166955299 0.00747436471 0.0268483441
  vertex 0.00256190659 0.00657298742 0.025410356
  vertex 0.00187462242 0.00690627284 0.00388020976
  endloop
 endfacet

 facet normal 0 0 0
  outer loop
  vertex -0.00166955299 0.00747436471 0.0268483441
  vertex 0.00187462242 0.00690627284 0.00388020976
  vertex -6.65457701e-05 0.00710000005 -0.00127826771
  endloop
 endfacet

 facet normal 0 0 0
  outer loop
  vertex -0.00763429236 0.00274999975 -4.08435881e-05
  vertex -0.00570806954 0.00587812066 0.00118515943
  vertex -0.00581578305 0.0019842491 -0.00317178038
  endloop
 endfacet

 facet normal 0 0 0
  outer loop
  vertex -0.00763429236 0.00274999975 -4.08435881e-05
  vertex -0.0084335478 -0.000847534102 0.00126143929
  vertex -0.00852293056 0.000636551937 0.0371876471
  endloop
 endfacet

 facet normal 0 0 0
  outer loop
  vertex -0.00763429236 0.00274999975 -4.08435881e-05
  vertex -0.00852293056 0.000636551937 0.0371876471
  vertex -0.00774879381 0.00337284128 0.0387981534
  endloop
 endfacet

 facet normal 0 0 0
  outer loop
  vertex -0.00763429236 0.00274999975 -4.08435881e-05
  vertex -0.00774879381 0.00337284128 0.0387981534
  vertex -0.00570806954 0.00587812066 0.00118515943
  endloop
 endfacet

 facet normal 0 0 0
  outer loop
  vertex 0.00518593332 -0.00416692067 0.0365073048
  vertex 0.00167074788 -0.00698910421 0.0288771242
  vertex 0.00175190996 -0.00728763873 -0.000246944692
  endloop
 endfacet

 facet normal 0 0 0
  outer loop
  vertex 0.00518593332 -0.00416692067 0.0365073048
  vertex 0.00175190996 -0.00728763873 -0.000246944692
  vertex 0.00555000827 -0.00356230163 0.00558646955
  endloop
 endfacet

 facet normal 0 0 0
  outer loop
  vertex 0.00518593332 -0.00416692067 0.0365073048
  vertex 0.00555000827 -0.00356230163 0.00558646955
  vertex 0.00602629082 -0.00248519727 0.0378783904
  endloop
 endfacet

 facet normal 0 0 0
  outer loop
  vertex 0.00518593332 -0.00416692067 0.0365073048
  vertex 0.00602629082 -0.00248519727 0.0378783904
  vertex -0.00852293056 0.000636551937 0.0371876471
  endloop
 endfacet

 facet normal 0 0 0
  outer loop
  vertex 0.00518593332 -0.00416692067 0.0365073048
  vertex -0.00852293056 0.000636551937 0.0371876471
  vertex -0.0048171333 -0.00648526615 0.028193932
  endloop
 endfacet

 facet normal 0 0 0
  outer loop
  vertex 0.00644914014 0.000113983289 0.0378222242
  vertex 0.00612520846 0.00218322547 0.0362670645
  vertex -0.00514401216 0.00628402689 0.036618311
  endloop
 endfacet

 facet normal 0 0 0
  outer loop
  vertex 0.00644914014 0.000113983289 0.0378222242
  vertex -0.00514401216 0.00628402689 0.036618311
  vertex -0.00774879381 0.00337284128 0.0387981534
  endloop
 endfacet

 facet normal 0 0 0
  outer loop
  vertex 0.00644914014 0.000113983289 0.0378222242
  vertex -0.00774879381 0.00337284128 0.0387981534
  vertex 0.00602629082 -0.00248519727 0.0378783904
  endloop
 endfacet

 facet normal 0 0 0
  outer loop
  vertex -0.00733449729 -0.00274999999 -0.000763107091
  vertex -0.0084335478 -0.000847534102 0.00126143929
  vertex -0.00763429236 0.00274999975 -4.08435881e-05
  endloop
 endfacet

 facet normal 0 0 0
  outer loop
  vertex -0.00733449729 -0.00274999999 -0.000763107091
  vertex -0.00763429236 0.00274999975 -4.08435881e-05
  vertex -0.00581578305 0.0019842491 -0.00317178038
  endloop
 endfacet

 facet normal 0 0 0
  outer loop
  vertex -0.00733449729 -0.00274999999 -0.000763107091
  vertex -0.00581578305 0.0019842491 -0.00317178038
  vertex -0.00480420515 -0.00275000022 -0.00361280632
  endloop
 endfacet

 facet normal 0 0 0
  outer loop
  vertex -0.00733449729 -0.00274999999 -0.000763107091
  vertex -0.00480420515 -0.00275000022 -0.00361280632
  vertex -0.00529268151 -0.00618462684 0.00129939592
  endloop
 endfacet

 facet normal 0 0 0
  outer loop
  vertex -0.00529268151 -0.00618462684 0.00129939592
  vertex -0.0082355896 -0.00214877096 0.0320327617
  vertex -0.0084335478 -0.000847534102 0.00126143929
  endloop
 endfacet

 facet normal 0 0 0
  outer loop
  vertex -0.00529268151 -0.00618462684 0.00129939592
  vertex -0.0084335478 -0.000847534102 0.00126143929
  vertex -0.00733449729 -0.00274999999 -0.000763107091
  endloop
 endfacet

 facet normal 0 0 0
  outer loop
  vertex -0.00181034021 -0.00274999999 -0.00466728397
  vertex -0.00092100678 -1.0978185e-10 -0.00523008406
  vertex 0.00268920115 -0.00274999999 -0.00362236891
  endloop
 endfacet

 facet normal 0 0 0
  outer loop
  vertex -0.00181034021 -0.00274999999 -0.00466728397
  vertex 0.00268920115 -0.00274999999 -0.00362236891
  vertex -0.000569736818 -0.00724142138 -0.00175106677
  endloop
 endfacet

 facet normal 0 0 0
  outer loop
  vertex -0.00181034021 -0.00274999999 -0.00466728397
  vertex -0.000569736818 -0.00724142138 -0.00175106677
  vertex -0.00480420515 -0.00275000022 -0.00361280632
  endloop
 endfacet

 facet normal 0 0 0
  outer loop
  vertex -0.00181034021 -0.00274999999 -0.00466728397
  vertex -0.00480420515 -0.00275000022 -0.00361280632
  vertex -0.00092100678 -1.0978185e-10 -0.00523008406
  endloop
 endfacet

 facet normal 0 0 0
  outer loop
  vertex -0.00122686313 -0.00749791553 0.028007092
  vertex -0.0048171333 -0.00648526615 0.028193932
  vertex -0.00529268151 -0.00618462684 0.00129939592
  endloop
 endfacet

 facet normal 0 0 0
  outer loop
  vertex -0.00122686313 -0.00749791553 0.028007092
  vertex -0.00529268151 -0.00618462684 0.00129939592
  vertex -0.000569736818 -0.00724142138 -0.00175106677
  endloop
 endfacet

 facet normal 0 0 0
  outer loop
  vertex -0.00122686313 -0.00749791553 0.028007092
  vertex -0.000569736818 -0.00724142138 -0.00175106677
  vertex 0.00175190996 -0.00728763873 -0.000246944692
  endloop
 endfacet

 facet normal 0 0 0
  outer loop
  vertex -0.00122686313 -0.00749791553 0.028007092
  vertex 0.00175190996 -0.00728763873 -0.000246944692
  vertex 0.00167074788 -0.00698910421 0.0288771242
  endloop
 endfacet

 facet normal 0 0 0
  outer loop
  vertex -0.00122686313 -0.00749791553 0.028007092
  vertex 0.00167074788 -0.00698910421 0.0288771242
  vertex 0.00518593332 -0.00416692067 0.0365073048
  endloop
 endfacet

 facet normal 0 0 0
  outer loop
  vertex -0.00122686313 -0.00749791553 0.028007092
  vertex 0.00518593332 -0.00416692067 0.0365073048
  vertex -0.0048171333 -0.00648526615 0.028193932
  endloop
 endfacet

 facet normal 0 0 0
  outer loop
  vertex 0.00645000674 -7.22407745e-10 0.0067996704
  vertex 0.00555000827 0.000619736558 -0.00123917533
  vertex 0.00555000827 0.00274999999 4.40679423e-06
  endloop
 endfacet

 facet normal 0 0 0
  outer loop
  vertex 0.00645000674 -7.22407745e-10 0.0067996704
  vertex 0.00555000827 0.00274999999 4.40679423e-06
  vertex 0.0055500078 0.00356229907 0.00558647094
  endloop
 endfacet

 facet normal 0 0 0
  outer loop
  vertex 0.00645000674 -7.22407745e-10 0.0067996704
  vertex 0.0055500078 0.00356229907 0.00558647094
  vertex 0.00612520846 0.00218322547 0.0362670645
  endloop
 endfacet

 facet normal 0 0 0
  outer loop
  vertex 0.00645000674 -7.22407745e-10 0.0067996704
  vertex 0.00612520846 0.00218322547 0.0362670645
  vertex 0.00644914014 0.000113983289 0.0378222242
  endloop
 endfacet

 facet normal 0 0 0
  outer loop
  vertex 0.00645000674 -7.22407745e-10 0.0067996704
  vertex 0.00555000827 -0.00274999975 4.41006068e-06
  vertex 0.00555000827 0.000619736558 -0.00123917533
  endloop
 endfacet

endsolid AssimpScene
