solid AssimpScene
 facet normal 0 0 0
  outer loop
  vertex 0.00220000069 0.00462761987 0.00553830201
  vertex 0.00220000069 0.00149619102 0.00756239891
  vertex 0.00220000069 -0.00149619579 0.00756239891
  endloop
 endfacet

 facet normal 0 0 0
  outer loop
  vertex 0.00220000069 0.00462761987 0.00553830201
  vertex 0.00220000069 -0.00149619579 0.00756239891
  vertex 0.00220000069 -0.00486760587 0.00509950938
  endloop
 endfacet

 facet normal 0 0 0
  outer loop
  vertex 0.00220000069 0.00462761987 0.00553830201
  vertex 0.00220000069 -0.00486760587 0.00509950938
  vertex 0.00216773758 -0.00494999764 -0.000231364669
  endloop
 endfacet

 facet normal 0 0 0
  outer loop
  vertex 0.00220000069 0.00462761987 0.00553830201
  vertex 0.00216773758 -0.00494999764 -0.000231364669
  vertex 0.00216773758 0.00495000184 -0.000231364422
  endloop
 endfacet

 facet normal 0 0 0
  outer loop
  vertex -0.00922304951 0.00495000184 -0.00586516736
  vertex 0.000789648911 0.00700000208 -0.00127532135
  vertex -0.00187980733 0.00495000184 -0.00457887119
  endloop
 endfacet

 facet normal 0 0 0
  outer loop
  vertex -0.00922304951 0.00495000184 -0.00586516736
  vertex -0.0103775952 -0.00494999764 -0.0049483818
  vertex -0.0104213851 0.00495000184 -0.00394185493
  endloop
 endfacet

 facet normal 0 0 0
  outer loop
  vertex 0.00119702658 -0.00699999789 -0.000903947221
  vertex -0.00040837031 -0.00494999764 -0.00405518804
  vertex 0.00216773758 -0.00494999764 -0.000231364669
  endloop
 endfacet

 facet normal 0 0 0
  outer loop
  vertex 0.00119702658 -0.00699999789 -0.000903947221
  vertex 6.43279152e-10 -0.00699999789 0.00150000467
  vertex -0.0103775952 -0.00494999764 -0.0049483818
  endloop
 endfacet

 facet normal 0 0 0
  outer loop
  vertex 0.00220000069 -0.00486760587 0.00509950938
  vertex 6.43279152e-10 -0.00699999789 0.00150000467
  vertex 0.00119702658 -0.00699999789 -0.000903947221
  endloop
 endfacet

 facet normal 0 0 0
  outer loop
  vertex 0.00220000069 -0.00486760587 0.00509950938
  vertex 0.00119702658 -0.00699999789 -0.000903947221
  vertex 0.00216773758 -0.00494999764 -0.000231364669
  endloop
 endfacet

 facet normal 0 0 0
  outer loop
  vertex 0.00220000069 -0.00486760587 0.00509950938
  vertex 0.00220000069 -0.00149619579 0.00756239891
  vertex -0.00104999938 -0.00425416045 0.00587543892
  endloop
 endfacet

 facet normal 0 0 0
  outer loop
  vertex 0.00220000069 -0.00486760587 0.00509950938
  vertex -0.00104999938 -0.00425416045 0.00587543892
  vertex 6.43279152e-10 -0.00699999789 0.00150000467
  endloop
 endfacet

 facet normal 0 0 0
  outer loop
  vertex -0.00101054285 0.00700000115 0.00110851799
  vertex 0.00220000069 0.00462761987 0.00553830201
  vertex 0.000789648911 0.00700000208 -0.00127532135
  endloop
 endfacet

 facet normal 0 0 0
  outer loop
  vertex 0.000789648911 0.00700000208 -0.00127532135
  vertex -0.00922304951 0.00495000184 -0.00586516736
  vertex -0.0104213851 0.00495000184 -0.00394185493
  endloop
 endfacet

 facet normal 0 0 0
  outer loop
  vertex 0.000789648911 0.00700000208 -0.00127532135
  vertex -0.0104213851 0.00495000184 -0.00394185493
  vertex -0.00101054285 0.00700000115 0.00110851799
  endloop
 endfacet

 facet normal 0 0 0
  outer loop
  vertex 0.00106038293 0.00495000184 -0.00284192478
  vertex -0.00040837031 -0.00494999764 -0.00405518804
  vertex -0.00187980733 0.00495000184 -0.00457887119
  endloop
 endfacet

 facet normal 0 0 0
  outer loop
  vertex 0.00106038293 0.00495000184 -0.00284192478
  vertex -0.00187980733 0.00495000184 -0.00457887119
  vertex 0.000789648911 0.00700000208 -0.00127532135
  endloop
 endfacet

 facet normal 0 0 0
  outer loop
  vertex 0.00106038293 0.00495000184 -0.00284192478
  vertex 0.00216773758 -0.00494999764 -0.000231364669
  vertex -0.00040837031 -0.00494999764 -0.00405518804
  endloop
 endfacet

 facet normal 0 0 0
  outer loop
  vertex -0.00871188194 -0.00494999764 -0.00585808512
  vertex -0.0103775952 -0.00494999764 -0.0049483818
  vertex -0.00922304951 0.00495000184 -0.00586516736
  endloop
 endfacet

 facet normal 0 0 0
  outer loop
  vertex -0.00871188194 -0.00494999764 -0.00585808512
  vertex -0.00922304951 0.00495000184 -0.00586516736
  vertex -0.00187980733 0.00495000184 -0.00457887119
  endloop
 endfacet

 facet normal 0 0 0
  outer loop
  vertex -0.00871188194 -0.00494999764 -0.00585808512
  vertex -0.00187980733 0.00495000184 -0.00457887119
  vertex -0.00040837031 -0.00494999764 -0.00405518804
  endloop
 endfacet

 facet normal 0 0 0
  outer loop
  vertex -0.00871188194 -0.00494999764 -0.00585808512
  vertex -0.00040837031 -0.00494999764 -0.00405518804
  vertex 0.00119702658 -0.00699999789 -0.000903947221
  endloop
 endfacet

 facet normal 0 0 0
  outer loop
  vertex -0.00871188194 -0.00494999764 -0.00585808512
  vertex 0.00119702658 -0.00699999789 -0.000903947221
  vertex -0.0103775952 -0.00494999764 -0.0049483818
  endloop
 endfacet

 facet normal 0 0 0
  outer loop
  vertex 0.00220000069 0.00149619102 0.00756239891
  vertex 0.00220000069 0.00462761987 0.00553830201
  vertex -0.00104999938 0.00462761987 0.00553830201
  endloop
 endfacet

 facet normal 0 0 0
  outer loop
  vertex 0.00220000069 0.00149619102 0.00756239891
  vertex -0.00104999938 0.00462761987 0.00553830201
  vertex -0.00104999938 0.00250023091 0.00698933564
  endloop
 endfacet

 facet normal 0 0 0
  outer loop
  vertex -0.0101897512 -0.00494999764 -0.00348612736
  vertex -0.0103775952 -0.00494999764 -0.0049483818
  vertex 6.43279152e-10 -0.00699999789 0.00150000467
  endloop
 endfacet

 facet normal 0 0 0
  outer loop
  vertex -0.0101897512 -0.00494999764 -0.00348612736
  vertex 6.43279152e-10 -0.00699999789 0.00150000467
  vertex -0.00104999938 -0.00425416045 0.00587543892
  endloop
 endfacet

 facet normal 0 0 0
  outer loop
  vertex -0.0101897512 -0.00494999764 -0.00348612736
  vertex -0.00104999938 -0.00250023231 0.00698933564
  vertex -0.00104999938 0.00250023091 0.00698933564
  endloop
 endfacet

 facet normal 0 0 0
  outer loop
  vertex -0.0101897512 -0.00494999764 -0.00348612736
  vertex -0.00104999938 0.00250023091 0.00698933564
  vertex -0.0104213851 0.00495000184 -0.00394185493
  endloop
 endfacet

 facet normal 0 0 0
  outer loop
  vertex -0.0101897512 -0.00494999764 -0.00348612736
  vertex -0.0104213851 0.00495000184 -0.00394185493
  vertex -0.0103775952 -0.00494999764 -0.0049483818
  endloop
 endfacet

 facet normal 0 0 0
  outer loop
  vertex -0.00104999938 0.00462761987 0.00553830201
  vertex 0.00220000069 0.00462761987 0.00553830201
  vertex -0.00101054285 0.00700000115 0.00110851799
  endloop
 endfacet

 facet normal 0 0 0
  outer loop
  vertex -0.00104999938 0.00462761987 0.00553830201
  vertex -0.00101054285 0.00700000115 0.00110851799
  vertex -0.0104213851 0.00495000184 -0.00394185493
  endloop
 endfacet

 facet normal 0 0 0
  outer loop
  vertex -0.00104999938 0.00462761987 0.00553830201
  vertex -0.0104213851 0.00495000184 -0.00394185493
  vertex -0.00104999938 0.00250023091 0.00698933564
  endloop
 endfacet

 facet normal 0 0 0
  outer loop
  vertex -0.00104999938 -0.00250023231 0.00698933564
  vertex -0.0101897512 -0.00494999764 -0.00348612736
  vertex -0.00104999938 -0.00425416045 0.00587543892
  endloop
 endfacet

 facet normal 0 0 0
  outer loop
  vertex -0.00104999938 -0.00250023231 0.00698933564
  vertex -0.00104999938 -0.00425416045 0.00587543892
  vertex 0.00220000069 -0.00149619579 0.00756239891
  endloop
 endfacet

 facet normal 0 0 0
  outer loop
  vertex -0.00104999938 -0.00250023231 0.00698933564
  vertex 0.00220000069 -0.00149619579 0.00756239891
  vertex 0.00220000069 0.00149619102 0.00756239891
  endloop
 endfacet

 facet normal 0 0 0
  outer loop
  vertex -0.00104999938 -0.00250023231 0.00698933564
  vertex 0.00220000069 0.00149619102 0.00756239891
  vertex -0.00104999938 0.00250023091 0.00698933564
  endloop
 endfacet

 facet normal 0 0 0
  outer loop
  vertex 0.00216773758 0.00495000184 -0.000231364422
  vertex 0.00216773758 -0.00494999764 -0.000231364669
  vertex 0.00106038293 0.00495000184 -0.00284192478
  endloop
 endfacet

 facet normal 0 0 0
  outer loop
  vertex 0.00216773758 0.00495000184 -0.000231364422
  vertex 0.00106038293 0.00495000184 -0.00284192478
  vertex 0.000789648911 0.00700000208 -0.00127532135
  endloop
 endfacet

 facet normal 0 0 0
  outer loop
  vertex 0.00216773758 0.00495000184 -0.000231364422
  vertex 0.000789648911 0.00700000208 -0.00127532135
  vertex 0.00220000069 0.00462761987 0.00553830201
  endloop
 endfacet

endsolid AssimpScene
