solid AssimpScene
 facet normal 0 0 0
  outer loop
  vertex 0.00532662822 0.0041482416 0.0107000005
  vertex 0.0034697596 0.00618512928 0.0107000005
  vertex -0.0017420128 0.00766800623 0.0107000005
  endloop
 endfacet

 facet normal 0 0 0
  outer loop
  vertex 0.00532662822 0.0041482416 0.0107000005
  vertex -0.0017420128 0.00766800623 0.0107000005
  vertex -0.00659256708 0.00525271706 0.0107000005
  endloop
 endfacet

 facet normal 0 0 0
  outer loop
  vertex 0.00532662822 0.0041482416 0.0107000005
  vertex -0.00659256708 0.00525271706 0.0107000005
  vertex -0.00854999945 0.000199999849 0.0107000005
  endloop
 endfacet

 facet normal 0 0 0
  outer loop
  vertex 0.00532662822 0.0041482416 0.0107000005
  vertex -0.00854999945 0.000199999849 0.0107000005
  vertex -0.00659256708 -0.00485271774 0.0107000005
  endloop
 endfacet

 facet normal 0 0 0
  outer loop
  vertex 0.00532662822 0.0041482416 0.0107000005
  vertex -0.00659256708 -0.00485271774 0.0107000005
  vertex -0.00310247228 -0.00701369205 0.0107000005
  endloop
 endfacet

 facet normal 0 0 0
  outer loop
  vertex 0.00532662822 0.0041482416 0.0107000005
  vertex -0.00310247228 -0.00701369205 0.0107000005
  vertex -0.000357987155 -0.00726800598 0.0107000005
  endloop
 endfacet

 facet normal 0 0 0
  outer loop
  vertex 0.00532662822 0.0041482416 0.0107000005
  vertex -0.000357987155 -0.00726800598 0.0107000005
  vertex 0.00449256692 -0.00485271681 0.0107000005
  endloop
 endfacet

 facet normal 0 0 0
  outer loop
  vertex 0.00532662822 0.0041482416 0.0107000005
  vertex 0.00449256692 -0.00485271681 0.0107000005
  vertex 0.00644999975 0.000200000126 0.0107000005
  endloop
 endfacet

 facet normal 0 0 0
  outer loop
  vertex 0.0034697596 -0.00578512903 -0.0014224163
  vertex 0.00336764706 0.00626089051 -0.00164968311
  vertex 0.00565141812 0.00356763951 0.00768779265
  endloop
 endfacet

 facet normal 0 0 0
  outer loop
  vertex 0.0034697596 -0.00578512903 -0.0014224163
  vertex 0.00565141812 0.00356763951 0.00768779265
  vertex 0.00644999975 0.000200000126 0.0107000005
  endloop
 endfacet

 facet normal 0 0 0
  outer loop
  vertex -0.00610271748 0.00574256713 0.00421406375
  vertex -0.00610271748 -0.00534256687 0.00421406329
  vertex -0.00854999945 0.000199999849 0.0107000005
  endloop
 endfacet

 facet normal 0 0 0
  outer loop
  vertex -0.00659256708 -0.00485271774 0.0107000005
  vertex -0.00854999945 0.000199999849 0.0107000005
  vertex -0.00610271748 -0.00534256687 0.00421406329
  endloop
 endfacet

 facet normal 0 0 0
  outer loop
  vertex 0.00449256692 -0.00485271681 0.0107000005
  vertex 0.0034697596 -0.00578512903 -0.0014224163
  vertex 0.00644999975 0.000200000126 0.0107000005
  endloop
 endfacet

 facet normal 0 0 0
  outer loop
  vertex -0.00659256708 0.00525271706 0.0107000005
  vertex -0.00610271748 0.00574256713 0.00421406375
  vertex -0.00854999945 0.000199999849 0.0107000005
  endloop
 endfacet

 facet normal 0 0 0
  outer loop
  vertex -0.00310247228 -0.00701369205 -0.00210645772
  vertex -0.00310247275 0.00741369231 -0.00210645772
  vertex -0.000503125251 0.0076800352 -0.00371609628
  endloop
 endfacet

 facet normal 0 0 0
  outer loop
  vertex -0.00310247228 -0.00701369205 -0.00210645772
  vertex -0.000503125251 0.0076800352 -0.00371609628
  vertex -0.000357987185 -0.00726800645 -0.00373287289
  endloop
 endfacet

 facet normal 0 0 0
  outer loop
  vertex -0.00310247275 0.00741369231 -0.00210645772
  vertex -0.00310247228 -0.00701369205 -0.00210645772
  vertex -0.00610271748 -0.00534256687 0.00421406329
  endloop
 endfacet

 facet normal 0 0 0
  outer loop
  vertex -0.00310247275 0.00741369231 -0.00210645772
  vertex -0.00610271748 -0.00534256687 0.00421406329
  vertex -0.00610271748 0.00574256713 0.00421406375
  endloop
 endfacet

 facet normal 0 0 0
  outer loop
  vertex -0.00310247275 0.00741369231 -0.00210645772
  vertex -0.00610271748 0.00574256713 0.00421406375
  vertex -0.00659256708 0.00525271706 0.0107000005
  endloop
 endfacet

 facet normal 0 0 0
  outer loop
  vertex -0.00310247275 0.00741369231 -0.00210645772
  vertex -0.00659256708 0.00525271706 0.0107000005
  vertex -0.0017420128 0.00766800623 0.0107000005
  endloop
 endfacet

 facet normal 0 0 0
  outer loop
  vertex -0.00310247275 0.00741369231 -0.00210645772
  vertex -0.0017420128 0.00766800623 0.0107000005
  vertex -0.000503125251 0.0076800352 -0.00371609628
  endloop
 endfacet

 facet normal 0 0 0
  outer loop
  vertex -0.00310247228 -0.00701369205 0.0107000005
  vertex -0.00659256708 -0.00485271774 0.0107000005
  vertex -0.00610271748 -0.00534256687 0.00421406329
  endloop
 endfacet

 facet normal 0 0 0
  outer loop
  vertex -0.00310247228 -0.00701369205 0.0107000005
  vertex -0.00610271748 -0.00534256687 0.00421406329
  vertex -0.00310247228 -0.00701369205 -0.00210645772
  endloop
 endfacet

 facet normal 0 0 0
  outer loop
  vertex -0.00310247228 -0.00701369205 0.0107000005
  vertex -0.00310247228 -0.00701369205 -0.00210645772
  vertex -0.000357987185 -0.00726800645 -0.00373287289
  endloop
 endfacet

 facet normal 0 0 0
  outer loop
  vertex -0.00310247228 -0.00701369205 0.0107000005
  vertex -0.000357987185 -0.00726800645 -0.00373287289
  vertex -0.000357987155 -0.00726800598 0.0107000005
  endloop
 endfacet

 facet normal 0 0 0
  outer loop
  vertex 0.00176810881 -0.00675041461 -0.00330700702
  vertex 0.0034697596 -0.00578512903 -0.0014224163
  vertex 0.00449256692 -0.00485271681 0.0107000005
  endloop
 endfacet

 facet normal 0 0 0
  outer loop
  vertex 0.00176810881 -0.00675041461 -0.00330700702
  vertex 0.00449256692 -0.00485271681 0.0107000005
  vertex -0.000357987155 -0.00726800598 0.0107000005
  endloop
 endfacet

 facet normal 0 0 0
  outer loop
  vertex 0.00176810881 -0.00675041461 -0.00330700702
  vertex -0.000357987155 -0.00726800598 0.0107000005
  vertex -0.000357987185 -0.00726800645 -0.00373287289
  endloop
 endfacet

 facet normal 0 0 0
  outer loop
  vertex 0.00532662822 0.0041482416 0.0107000005
  vertex 0.00644999975 0.000200000126 0.0107000005
  vertex 0.00565141812 0.00356763951 0.00768779265
  endloop
 endfacet

 facet normal 0 0 0
  outer loop
  vertex 0.00532662822 0.0041482416 0.0107000005
  vertex 0.00565141812 0.00356763951 0.00768779265
  vertex 0.00336764706 0.00626089051 -0.00164968311
  endloop
 endfacet

 facet normal 0 0 0
  outer loop
  vertex 0.00532662822 0.0041482416 0.0107000005
  vertex 0.00336764706 0.00626089051 -0.00164968311
  vertex 0.0034697596 0.00618512928 0.0107000005
  endloop
 endfacet

 facet normal 0 0 0
  outer loop
  vertex 0.00177007739 0.00714961626 -0.00330595276
  vertex 0.00336764706 0.00626089051 -0.00164968311
  vertex 0.0034697596 -0.00578512903 -0.0014224163
  endloop
 endfacet

 facet normal 0 0 0
  outer loop
  vertex 0.00177007739 0.00714961626 -0.00330595276
  vertex 0.0034697596 -0.00578512903 -0.0014224163
  vertex 0.00176810881 -0.00675041461 -0.00330700702
  endloop
 endfacet

 facet normal 0 0 0
  outer loop
  vertex 0.00177007739 0.00714961626 -0.00330595276
  vertex 0.00176810881 -0.00675041461 -0.00330700702
  vertex -0.000357987185 -0.00726800645 -0.00373287289
  endloop
 endfacet

 facet normal 0 0 0
  outer loop
  vertex 0.00177007739 0.00714961626 -0.00330595276
  vertex -0.000357987185 -0.00726800645 -0.00373287289
  vertex -0.000503125251 0.0076800352 -0.00371609628
  endloop
 endfacet

 facet normal 0 0 0
  outer loop
  vertex 0.00177007739 0.00714961626 -0.00330595276
  vertex -0.000503125251 0.0076800352 -0.00371609628
  vertex -0.0017420128 0.00766800623 0.0107000005
  endloop
 endfacet

 facet normal 0 0 0
  outer loop
  vertex 0.00177007739 0.00714961626 -0.00330595276
  vertex -0.0017420128 0.00766800623 0.0107000005
  vertex 0.0034697596 0.00618512928 0.0107000005
  endloop
 endfacet

 facet normal 0 0 0
  outer loop
  vertex 0.00177007739 0.00714961626 -0.00330595276
  vertex 0.0034697596 0.00618512928 0.0107000005
  vertex 0.00336764706 0.00626089051 -0.00164968311
  endloop
 endfacet

endsolid AssimpScene
