solid AssimpScene
 facet normal 0 0 0
  outer loop
  vertex 0.00220000022 0.00462761801 0.00553830247
  vertex 0.00220000022 0.00149618962 0.00756239891
  vertex 0.00220000022 -0.00149619742 0.00756239891
  endloop
 endfacet

 facet normal 0 0 0
  outer loop
  vertex 0.00220000022 0.00462761801 0.00553830247
  vertex 0.00220000022 -0.00149619742 0.00756239891
  vertex 0.00220000022 -0.0048676068 0.00509950984
  endloop
 endfacet

 facet normal 0 0 0
  outer loop
  vertex 0.00220000022 0.00462761801 0.00553830247
  vertex 0.00220000022 -0.0048676068 0.00509950984
  vertex 0.00216773711 -0.00494999858 -0.000231364233
  endloop
 endfacet

 facet normal 0 0 0
  outer loop
  vertex 0.00220000022 0.00462761801 0.00553830247
  vertex 0.00216773711 -0.00494999858 -0.000231364233
  vertex 0.00216773711 0.00495000044 -0.000231364
  endloop
 endfacet

 facet normal 0 0 0
  outer loop
  vertex -0.00922305044 0.00495000044 -0.0058651669
  vertex 0.000789648388 0.00700000022 -0.00127532077
  vertex -0.00187980779 0.00495000044 -0.00457887026
  endloop
 endfacet

 facet normal 0 0 0
  outer loop
  vertex -0.00922305044 0.00495000044 -0.0058651669
  vertex -0.0103775961 -0.00494999858 -0.00494838087
  vertex -0.010421386 0.00495000044 -0.00394185446
  endloop
 endfacet

 facet normal 0 0 0
  outer loop
  vertex 0.00119702599 -0.00699999882 -0.000903946697
  vertex -0.000408370892 -0.00494999858 -0.00405518757
  vertex 0.00216773711 -0.00494999858 -0.000231364233
  endloop
 endfacet

 facet normal 0 0 0
  outer loop
  vertex 0.00119702599 -0.00699999882 -0.000903946697
  vertex 1.11203324e-10 -0.00699999882 0.00150000514
  vertex -0.0103775961 -0.00494999858 -0.00494838087
  endloop
 endfacet

 facet normal 0 0 0
  outer loop
  vertex 0.00220000022 -0.0048676068 0.00509950984
  vertex 1.11203324e-10 -0.00699999882 0.00150000514
  vertex 0.00119702599 -0.00699999882 -0.000903946697
  endloop
 endfacet

 facet normal 0 0 0
  outer loop
  vertex 0.00220000022 -0.0048676068 0.00509950984
  vertex 0.00119702599 -0.00699999882 -0.000903946697
  vertex 0.00216773711 -0.00494999858 -0.000231364233
  endloop
 endfacet

 facet normal 0 0 0
  outer loop
  vertex 0.00220000022 -0.0048676068 0.00509950984
  vertex 0.00220000022 -0.00149619742 0.00756239891
  vertex -0.00104999996 -0.00425416185 0.00587543938
  endloop
 endfacet

 facet normal 0 0 0
  outer loop
  vertex 0.00220000022 -0.0048676068 0.00509950984
  vertex -0.00104999996 -0.00425416185 0.00587543938
  vertex 1.11203324e-10 -0.00699999882 0.00150000514
  endloop
 endfacet

 facet normal 0 0 0
  outer loop
  vertex -0.00101054343 0.00699999975 0.00110851834
  vertex 0.00220000022 0.00462761801 0.00553830247
  vertex 0.000789648388 0.00700000022 -0.00127532077
  endloop
 endfacet

 facet normal 0 0 0
  outer loop
  vertex 0.000789648388 0.00700000022 -0.00127532077
  vertex -0.00922305044 0.00495000044 -0.0058651669
  vertex -0.010421386 0.00495000044 -0.00394185446
  endloop
 endfacet

 facet normal 0 0 0
  outer loop
  vertex 0.000789648388 0.00700000022 -0.00127532077
  vertex -0.010421386 0.00495000044 -0.00394185446
  vertex -0.00101054343 0.00699999975 0.00110851834
  endloop
 endfacet

 facet normal 0 0 0
  outer loop
  vertex 0.00106038246 0.00495000044 -0.00284192432
  vertex -0.000408370892 -0.00494999858 -0.00405518757
  vertex -0.00187980779 0.00495000044 -0.00457887026
  endloop
 endfacet

 facet normal 0 0 0
  outer loop
  vertex 0.00106038246 0.00495000044 -0.00284192432
  vertex -0.00187980779 0.00495000044 -0.00457887026
  vertex 0.000789648388 0.00700000022 -0.00127532077
  endloop
 endfacet

 facet normal 0 0 0
  outer loop
  vertex 0.00106038246 0.00495000044 -0.00284192432
  vertex 0.00216773711 -0.00494999858 -0.000231364233
  vertex -0.000408370892 -0.00494999858 -0.00405518757
  endloop
 endfacet

 facet normal 0 0 0
  outer loop
  vertex -0.0087118838 -0.00494999858 -0.00585808512
  vertex -0.0103775961 -0.00494999858 -0.00494838087
  vertex -0.00922305044 0.00495000044 -0.0058651669
  endloop
 endfacet

 facet normal 0 0 0
  outer loop
  vertex -0.0087118838 -0.00494999858 -0.00585808512
  vertex -0.00922305044 0.00495000044 -0.0058651669
  vertex -0.00187980779 0.00495000044 -0.00457887026
  endloop
 endfacet

 facet normal 0 0 0
  outer loop
  vertex -0.0087118838 -0.00494999858 -0.00585808512
  vertex -0.00187980779 0.00495000044 -0.00457887026
  vertex -0.000408370892 -0.00494999858 -0.00405518757
  endloop
 endfacet

 facet normal 0 0 0
  outer loop
  vertex -0.0087118838 -0.00494999858 -0.00585808512
  vertex -0.000408370892 -0.00494999858 -0.00405518757
  vertex 0.00119702599 -0.00699999882 -0.000903946697
  endloop
 endfacet

 facet normal 0 0 0
  outer loop
  vertex -0.0087118838 -0.00494999858 -0.00585808512
  vertex 0.00119702599 -0.00699999882 -0.000903946697
  vertex -0.0103775961 -0.00494999858 -0.00494838087
  endloop
 endfacet

 facet normal 0 0 0
  outer loop
  vertex 0.00220000022 0.00149618962 0.00756239891
  vertex 0.00220000022 0.00462761801 0.00553830247
  vertex -0.00104999985 0.00462761801 0.00553830247
  endloop
 endfacet

 facet normal 0 0 0
  outer loop
  vertex 0.00220000022 0.00149618962 0.00756239891
  vertex -0.00104999985 0.00462761801 0.00553830247
  vertex -0.00104999985 0.00250022952 0.00698933657
  endloop
 endfacet

 facet normal 0 0 0
  outer loop
  vertex -0.0101897521 -0.00494999858 -0.00348612689
  vertex -0.0103775961 -0.00494999858 -0.00494838087
  vertex 1.11203324e-10 -0.00699999882 0.00150000514
  endloop
 endfacet

 facet normal 0 0 0
  outer loop
  vertex -0.0101897521 -0.00494999858 -0.00348612689
  vertex 1.11203324e-10 -0.00699999882 0.00150000514
  vertex -0.00104999996 -0.00425416185 0.00587543938
  endloop
 endfacet

 facet normal 0 0 0
  outer loop
  vertex -0.0101897521 -0.00494999858 -0.00348612689
  vertex -0.00104999996 -0.00250023371 0.00698933657
  vertex -0.00104999985 0.00250022952 0.00698933657
  endloop
 endfacet

 facet normal 0 0 0
  outer loop
  vertex -0.0101897521 -0.00494999858 -0.00348612689
  vertex -0.00104999985 0.00250022952 0.00698933657
  vertex -0.010421386 0.00495000044 -0.00394185446
  endloop
 endfacet

 facet normal 0 0 0
  outer loop
  vertex -0.0101897521 -0.00494999858 -0.00348612689
  vertex -0.010421386 0.00495000044 -0.00394185446
  vertex -0.0103775961 -0.00494999858 -0.00494838087
  endloop
 endfacet

 facet normal 0 0 0
  outer loop
  vertex -0.00104999985 0.00462761801 0.00553830247
  vertex 0.00220000022 0.00462761801 0.00553830247
  vertex -0.00101054343 0.00699999975 0.00110851834
  endloop
 endfacet

 facet normal 0 0 0
  outer loop
  vertex -0.00104999985 0.00462761801 0.00553830247
  vertex -0.00101054343 0.00699999975 0.00110851834
  vertex -0.010421386 0.00495000044 -0.00394185446
  endloop
 endfacet

 facet normal 0 0 0
  outer loop
  vertex -0.00104999985 0.00462761801 0.00553830247
  vertex -0.010421386 0.00495000044 -0.00394185446
  vertex -0.00104999985 0.00250022952 0.00698933657
  endloop
 endfacet

 facet normal 0 0 0
  outer loop
  vertex -0.00104999996 -0.00250023371 0.00698933657
  vertex -0.0101897521 -0.00494999858 -0.00348612689
  vertex -0.00104999996 -0.00425416185 0.00587543938
  endloop
 endfacet

 facet normal 0 0 0
  outer loop
  vertex -0.00104999996 -0.00250023371 0.00698933657
  vertex -0.00104999996 -0.00425416185 0.00587543938
  vertex 0.00220000022 -0.00149619742 0.00756239891
  endloop
 endfacet

 facet normal 0 0 0
  outer loop
  vertex -0.00104999996 -0.00250023371 0.00698933657
  vertex 0.00220000022 -0.00149619742 0.00756239891
  vertex 0.00220000022 0.00149618962 0.00756239891
  endloop
 endfacet

 facet normal 0 0 0
  outer loop
  vertex -0.00104999996 -0.00250023371 0.00698933657
  vertex 0.00220000022 0.00149618962 0.00756239891
  vertex -0.00104999985 0.00250022952 0.00698933657
  endloop
 endfacet

 facet normal 0 0 0
  outer loop
  vertex 0.00216773711 0.00495000044 -0.000231364
  vertex 0.00216773711 -0.00494999858 -0.000231364233
  vertex 0.00106038246 0.00495000044 -0.00284192432
  endloop
 endfacet

 facet normal 0 0 0
  outer loop
  vertex 0.00216773711 0.00495000044 -0.000231364
  vertex 0.00106038246 0.00495000044 -0.00284192432
  vertex 0.000789648388 0.00700000022 -0.00127532077
  endloop
 endfacet

 facet normal 0 0 0
  outer loop
  vertex 0.00216773711 0.00495000044 -0.000231364
  vertex 0.000789648388 0.00700000022 -0.00127532077
  vertex 0.00220000022 0.00462761801 0.00553830247
  endloop
 endfacet

endsolid AssimpScene
