solid AssimpScene
 facet normal 0 0 0
  outer loop
  vertex -0.00662780786 -0.00351639418 -0.0160000008
  vertex -0.00748659717 -0.000450793741 -0.0160000008
  vertex -0.00525102997 0.00535387266 -0.0160000008
  endloop
 endfacet

 facet normal 0 0 0
  outer loop
  vertex -0.00662780786 -0.00351639418 -0.0160000008
  vertex -0.00525102997 0.00535387266 -0.0160000008
  vertex -0.000284259644 0.00749433599 -0.0160000008
  endloop
 endfacet

 facet normal 0 0 0
  outer loop
  vertex -0.00662780786 -0.00351639418 -0.0160000008
  vertex -0.000284259644 0.00749433599 -0.0160000008
  vertex 0.00476352312 0.0057948404 -0.0160000008
  endloop
 endfacet

 facet normal 0 0 0
  outer loop
  vertex -0.00662780786 -0.00351639418 -0.0160000008
  vertex 0.00476352312 0.0057948404 -0.0160000008
  vertex 0.00746159256 0.000759718474 -0.0160000008
  endloop
 endfacet

 facet normal 0 0 0
  outer loop
  vertex -0.00662780786 -0.00351639418 -0.0160000008
  vertex 0.00746159256 0.000759718474 -0.0160000008
  vertex 0.00600438146 -0.00449364726 -0.0160000008
  endloop
 endfacet

 facet normal 0 0 0
  outer loop
  vertex -0.00662780786 -0.00351639418 -0.0160000008
  vertex 0.00600438146 -0.00449364726 -0.0160000008
  vertex 0.00158223801 -0.00733046932 -0.0160000008
  endloop
 endfacet

 facet normal 0 0 0
  outer loop
  vertex -0.00662780786 -0.00351639418 -0.0160000008
  vertex 0.00158223801 -0.00733046932 -0.0160000008
  vertex -0.00431254087 -0.0061365515 -0.0160000008
  endloop
 endfacet

 facet normal 0 0 0
  outer loop
  vertex 0.00611556042 -0.00433407072 -0.0112203071
  vertex 0.00746159256 0.000759718474 -0.0160000008
  vertex 0.00711758807 0.000864407106 -0.00808054861
  endloop
 endfacet

 facet normal 0 0 0
  outer loop
  vertex 0.00476352312 0.0057948404 -0.0160000008
  vertex -0.000284259644 0.00749433599 -0.0160000008
  vertex 0.0013620446 0.00619975105 -0.00333745894
  endloop
 endfacet

 facet normal 0 0 0
  outer loop
  vertex 0.00600438146 -0.00449364726 -0.0160000008
  vertex 0.00746159256 0.000759718474 -0.0160000008
  vertex 0.00611556042 -0.00433407072 -0.0112203071
  endloop
 endfacet

 facet normal 0 0 0
  outer loop
  vertex -0.00103234337 -0.00724139065 -0.00678194268
  vertex 0.00207994436 -0.00563510135 -0.00297690951
  vertex -0.00212998665 -0.00421629613 7.47196245e-05
  endloop
 endfacet

 facet normal 0 0 0
  outer loop
  vertex -0.00103234337 -0.00724139065 -0.00678194268
  vertex -0.00212998665 -0.00421629613 7.47196245e-05
  vertex -0.00486389874 -0.00490790792 -0.00491443556
  endloop
 endfacet

 facet normal 0 0 0
  outer loop
  vertex -0.00103234337 -0.00724139065 -0.00678194268
  vertex -0.00486389874 -0.00490790792 -0.00491443556
  vertex -0.00431254087 -0.0061365515 -0.0160000008
  endloop
 endfacet

 facet normal 0 0 0
  outer loop
  vertex -0.00103234337 -0.00724139065 -0.00678194268
  vertex -0.00431254087 -0.0061365515 -0.0160000008
  vertex 0.00158223801 -0.00733046932 -0.0160000008
  endloop
 endfacet

 facet normal 0 0 0
  outer loop
  vertex 0.000880005071 0.0031666439 0.000663637999
  vertex 0.0013620446 0.00619975105 -0.00333745894
  vertex -0.00294271577 0.0041261171 -0.000240392968
  endloop
 endfacet

 facet normal 0 0 0
  outer loop
  vertex -0.00202803104 0.00706754532 -0.00707271695
  vertex -0.000284259644 0.00749433599 -0.0160000008
  vertex -0.00525102997 0.00535387266 -0.0160000008
  endloop
 endfacet

 facet normal 0 0 0
  outer loop
  vertex -0.00202803104 0.00706754532 -0.00707271695
  vertex -0.00525102997 0.00535387266 -0.0160000008
  vertex -0.00547396205 0.00427003112 -0.00495013921
  endloop
 endfacet

 facet normal 0 0 0
  outer loop
  vertex -0.00202803104 0.00706754532 -0.00707271695
  vertex -0.00547396205 0.00427003112 -0.00495013921
  vertex -0.00294271577 0.0041261171 -0.000240392968
  endloop
 endfacet

 facet normal 0 0 0
  outer loop
  vertex -0.00202803104 0.00706754532 -0.00707271695
  vertex -0.00294271577 0.0041261171 -0.000240392968
  vertex 0.0013620446 0.00619975105 -0.00333745894
  endloop
 endfacet

 facet normal 0 0 0
  outer loop
  vertex -0.00202803104 0.00706754532 -0.00707271695
  vertex 0.0013620446 0.00619975105 -0.00333745894
  vertex -0.000284259644 0.00749433599 -0.0160000008
  endloop
 endfacet

 facet normal 0 0 0
  outer loop
  vertex 0.000892796495 -0.00272846804 0.000917675439
  vertex -0.00248560845 2.08705696e-05 0.00229907059
  vertex -0.00212998665 -0.00421629613 7.47196245e-05
  endloop
 endfacet

 facet normal 0 0 0
  outer loop
  vertex 0.000892796495 -0.00272846804 0.000917675439
  vertex -0.00212998665 -0.00421629613 7.47196245e-05
  vertex 0.00207994436 -0.00563510135 -0.00297690951
  endloop
 endfacet

 facet normal 0 0 0
  outer loop
  vertex 0.000892796495 -0.00272846804 0.000917675439
  vertex 0.00408203574 5.0473036e-06 -0.000674935232
  vertex 0.000880005071 0.0031666439 0.000663637999
  endloop
 endfacet

 facet normal 0 0 0
  outer loop
  vertex 0.000892796495 -0.00272846804 0.000917675439
  vertex 0.000880005071 0.0031666439 0.000663637999
  vertex -0.00248560845 2.08705696e-05 0.00229907059
  endloop
 endfacet

 facet normal 0 0 0
  outer loop
  vertex 0.00556604005 0.0047377455 -0.00915619079
  vertex 0.00711758807 0.000864407106 -0.00808054861
  vertex 0.00746159256 0.000759718474 -0.0160000008
  endloop
 endfacet

 facet normal 0 0 0
  outer loop
  vertex 0.00556604005 0.0047377455 -0.00915619079
  vertex 0.00746159256 0.000759718474 -0.0160000008
  vertex 0.00476352312 0.0057948404 -0.0160000008
  endloop
 endfacet

 facet normal 0 0 0
  outer loop
  vertex 0.00556604005 0.0047377455 -0.00915619079
  vertex 0.00476352312 0.0057948404 -0.0160000008
  vertex 0.0013620446 0.00619975105 -0.00333745894
  endloop
 endfacet

 facet normal 0 0 0
  outer loop
  vertex 0.00604220154 -0.00183123606 -0.00475893682
  vertex 0.00408203574 5.0473036e-06 -0.000674935232
  vertex 0.000892796495 -0.00272846804 0.000917675439
  endloop
 endfacet

 facet normal 0 0 0
  outer loop
  vertex 0.00604220154 -0.00183123606 -0.00475893682
  vertex 0.000892796495 -0.00272846804 0.000917675439
  vertex 0.00207994436 -0.00563510135 -0.00297690951
  endloop
 endfacet

 facet normal 0 0 0
  outer loop
  vertex 0.00604220154 -0.00183123606 -0.00475893682
  vertex 0.00207994436 -0.00563510135 -0.00297690951
  vertex 0.00323761092 -0.00651143026 -0.00891892426
  endloop
 endfacet

 facet normal 0 0 0
  outer loop
  vertex 0.00604220154 -0.00183123606 -0.00475893682
  vertex 0.00323761092 -0.00651143026 -0.00891892426
  vertex 0.00611556042 -0.00433407072 -0.0112203071
  endloop
 endfacet

 facet normal 0 0 0
  outer loop
  vertex 0.00604220154 -0.00183123606 -0.00475893682
  vertex 0.00611556042 -0.00433407072 -0.0112203071
  vertex 0.00711758807 0.000864407106 -0.00808054861
  endloop
 endfacet

 facet normal 0 0 0
  outer loop
  vertex 0.00604220154 -0.00183123606 -0.00475893682
  vertex 0.00711758807 0.000864407106 -0.00808054861
  vertex 0.00408203574 5.0473036e-06 -0.000674935232
  endloop
 endfacet

 facet normal 0 0 0
  outer loop
  vertex 0.00418470846 0.00350005506 -0.00283015613
  vertex 0.00408203574 5.0473036e-06 -0.000674935232
  vertex 0.00711758807 0.000864407106 -0.00808054861
  endloop
 endfacet

 facet normal 0 0 0
  outer loop
  vertex 0.00418470846 0.00350005506 -0.00283015613
  vertex 0.00711758807 0.000864407106 -0.00808054861
  vertex 0.00556604005 0.0047377455 -0.00915619079
  endloop
 endfacet

 facet normal 0 0 0
  outer loop
  vertex 0.00418470846 0.00350005506 -0.00283015613
  vertex 0.00556604005 0.0047377455 -0.00915619079
  vertex 0.0013620446 0.00619975105 -0.00333745894
  endloop
 endfacet

 facet normal 0 0 0
  outer loop
  vertex 0.00418470846 0.00350005506 -0.00283015613
  vertex 0.0013620446 0.00619975105 -0.00333745894
  vertex 0.000880005071 0.0031666439 0.000663637999
  endloop
 endfacet

 facet normal 0 0 0
  outer loop
  vertex 0.00418470846 0.00350005506 -0.00283015613
  vertex 0.000880005071 0.0031666439 0.000663637999
  vertex 0.00408203574 5.0473036e-06 -0.000674935232
  endloop
 endfacet

 facet normal 0 0 0
  outer loop
  vertex -0.00424489332 0.00132333837 0.00137810118
  vertex -0.00248560845 2.08705696e-05 0.00229907059
  vertex 0.000880005071 0.0031666439 0.000663637999
  endloop
 endfacet

 facet normal 0 0 0
  outer loop
  vertex -0.00424489332 0.00132333837 0.00137810118
  vertex 0.000880005071 0.0031666439 0.000663637999
  vertex -0.00294271577 0.0041261171 -0.000240392968
  endloop
 endfacet

 facet normal 0 0 0
  outer loop
  vertex -0.00424489332 0.00132333837 0.00137810118
  vertex -0.00294271577 0.0041261171 -0.000240392968
  vertex -0.00547396205 0.00427003112 -0.00495013921
  endloop
 endfacet

 facet normal 0 0 0
  outer loop
  vertex -0.00424489332 0.00132333837 0.00137810118
  vertex -0.00547396205 0.00427003112 -0.00495013921
  vertex -0.00585250091 -0.00038602564 -0.000664248888
  endloop
 endfacet

 facet normal 0 0 0
  outer loop
  vertex -0.00418874994 -0.00171384728 0.0012064802
  vertex -0.00585250091 -0.00038602564 -0.000664248888
  vertex -0.00486389874 -0.00490790792 -0.00491443556
  endloop
 endfacet

 facet normal 0 0 0
  outer loop
  vertex -0.00418874994 -0.00171384728 0.0012064802
  vertex -0.00486389874 -0.00490790792 -0.00491443556
  vertex -0.00212998665 -0.00421629613 7.47196245e-05
  endloop
 endfacet

 facet normal 0 0 0
  outer loop
  vertex -0.00418874994 -0.00171384728 0.0012064802
  vertex -0.00212998665 -0.00421629613 7.47196245e-05
  vertex -0.00248560845 2.08705696e-05 0.00229907059
  endloop
 endfacet

 facet normal 0 0 0
  outer loop
  vertex -0.00418874994 -0.00171384728 0.0012064802
  vertex -0.00248560845 2.08705696e-05 0.00229907059
  vertex -0.00424489332 0.00132333837 0.00137810118
  endloop
 endfacet

 facet normal 0 0 0
  outer loop
  vertex -0.00418874994 -0.00171384728 0.0012064802
  vertex -0.00424489332 0.00132333837 0.00137810118
  vertex -0.00585250091 -0.00038602564 -0.000664248888
  endloop
 endfacet

 facet normal 0 0 0
  outer loop
  vertex -0.00669269869 -0.00228726189 -0.00588481268
  vertex -0.00486389874 -0.00490790792 -0.00491443556
  vertex -0.00585250091 -0.00038602564 -0.000664248888
  endloop
 endfacet

 facet normal 0 0 0
  outer loop
  vertex -0.00700094271 0.00150260422 -0.00700797699
  vertex -0.00748659717 -0.000450793741 -0.0160000008
  vertex -0.00669269869 -0.00228726189 -0.00588481268
  endloop
 endfacet

 facet normal 0 0 0
  outer loop
  vertex -0.00700094271 0.00150260422 -0.00700797699
  vertex -0.00669269869 -0.00228726189 -0.00588481268
  vertex -0.00585250091 -0.00038602564 -0.000664248888
  endloop
 endfacet

 facet normal 0 0 0
  outer loop
  vertex -0.00700094271 0.00150260422 -0.00700797699
  vertex -0.00585250091 -0.00038602564 -0.000664248888
  vertex -0.00547396205 0.00427003112 -0.00495013921
  endloop
 endfacet

 facet normal 0 0 0
  outer loop
  vertex -0.00700094271 0.00150260422 -0.00700797699
  vertex -0.00547396205 0.00427003112 -0.00495013921
  vertex -0.00525102997 0.00535387266 -0.0160000008
  endloop
 endfacet

 facet normal 0 0 0
  outer loop
  vertex -0.00700094271 0.00150260422 -0.00700797699
  vertex -0.00525102997 0.00535387266 -0.0160000008
  vertex -0.00748659717 -0.000450793741 -0.0160000008
  endloop
 endfacet

 facet normal 0 0 0
  outer loop
  vertex 0.00323761092 -0.00651143026 -0.00891892426
  vertex 0.00158223801 -0.00733046932 -0.0160000008
  vertex 0.00600438146 -0.00449364726 -0.0160000008
  endloop
 endfacet

 facet normal 0 0 0
  outer loop
  vertex 0.00323761092 -0.00651143026 -0.00891892426
  vertex 0.00600438146 -0.00449364726 -0.0160000008
  vertex 0.00611556042 -0.00433407072 -0.0112203071
  endloop
 endfacet

 facet normal 0 0 0
  outer loop
  vertex 0.00323761092 -0.00651143026 -0.00891892426
  vertex 0.00207994436 -0.00563510135 -0.00297690951
  vertex -0.00103234337 -0.00724139065 -0.00678194268
  endloop
 endfacet

 facet normal 0 0 0
  outer loop
  vertex 0.00323761092 -0.00651143026 -0.00891892426
  vertex -0.00103234337 -0.00724139065 -0.00678194268
  vertex 0.00158223801 -0.00733046932 -0.0160000008
  endloop
 endfacet

 facet normal 0 0 0
  outer loop
  vertex -0.00662780786 -0.00351639418 -0.0160000008
  vertex -0.00431254087 -0.0061365515 -0.0160000008
  vertex -0.00486389874 -0.00490790792 -0.00491443556
  endloop
 endfacet

 facet normal 0 0 0
  outer loop
  vertex -0.00662780786 -0.00351639418 -0.0160000008
  vertex -0.00486389874 -0.00490790792 -0.00491443556
  vertex -0.00669269869 -0.00228726189 -0.00588481268
  endloop
 endfacet

 facet normal 0 0 0
  outer loop
  vertex -0.00662780786 -0.00351639418 -0.0160000008
  vertex -0.00669269869 -0.00228726189 -0.00588481268
  vertex -0.00748659717 -0.000450793741 -0.0160000008
  endloop
 endfacet

endsolid AssimpScene
