solid AssimpScene
 facet normal 0 0 0
  outer loop
  vertex -0.00612696819 -0.00433048932 -0.0160000008
  vertex -0.00736860698 -0.00139856013 -0.0160000008
  vertex -0.00588838756 0.00464372011 -0.0160000008
  endloop
 endfacet

 facet normal 0 0 0
  outer loop
  vertex -0.00612696819 -0.00433048932 -0.0160000008
  vertex -0.00588838756 0.00464372011 -0.0160000008
  vertex -0.00123423408 0.00739746774 -0.0160000008
  endloop
 endfacet

 facet normal 0 0 0
  outer loop
  vertex -0.00612696819 -0.00433048932 -0.0160000008
  vertex -0.00123423408 0.00739746774 -0.0160000008
  vertex 0.00398828229 0.00635334011 -0.0160000008
  endloop
 endfacet

 facet normal 0 0 0
  outer loop
  vertex -0.00612696819 -0.00433048932 -0.0160000008
  vertex 0.00398828229 0.00635334011 -0.0160000008
  vertex 0.00730437646 0.00170252961 -0.0160000008
  endloop
 endfacet

 facet normal 0 0 0
  outer loop
  vertex -0.00612696819 -0.00433048932 -0.0160000008
  vertex 0.00730437646 0.00170252961 -0.0160000008
  vertex 0.00652526598 -0.00369680533 -0.0160000008
  endloop
 endfacet

 facet normal 0 0 0
  outer loop
  vertex -0.00612696819 -0.00433048932 -0.0160000008
  vertex 0.00652526598 -0.00369680533 -0.0160000008
  vertex 0.00249793474 -0.00707103964 -0.0160000008
  endloop
 endfacet

 facet normal 0 0 0
  outer loop
  vertex -0.00612696819 -0.00433048932 -0.0160000008
  vertex 0.00249793474 -0.00707103964 -0.0160000008
  vertex -0.003497547 -0.00663494039 -0.0160000008
  endloop
 endfacet

 facet normal 0 0 0
  outer loop
  vertex 0.00661513768 -0.00352487573 -0.0112226913
  vertex 0.00730437646 0.00170252961 -0.0160000008
  vertex 0.00695260195 0.001750911 -0.00807881635
  endloop
 endfacet

 facet normal 0 0 0
  outer loop
  vertex 0.00652526598 -0.00369680533 -0.0160000008
  vertex 0.00730437646 0.00170252961 -0.0160000008
  vertex 0.00661513768 -0.00352487573 -0.0112226913
  endloop
 endfacet

 facet normal 0 0 0
  outer loop
  vertex -0.000102917962 -0.00731499586 -0.00679014623
  vertex 0.00277843676 -0.00533278752 -0.00298915408
  vertex -0.00157313782 -0.00446581421 5.92507968e-05
  endloop
 endfacet

 facet normal 0 0 0
  outer loop
  vertex -0.000102917962 -0.00731499586 -0.00679014623
  vertex -0.00157313782 -0.00446581421 5.92507968e-05
  vertex -0.00419581402 -0.00549248653 -0.00492510106
  endloop
 endfacet

 facet normal 0 0 0
  outer loop
  vertex -0.000102917962 -0.00731499586 -0.00679014623
  vertex -0.00419581402 -0.00549248653 -0.00492510106
  vertex -0.003497547 -0.00663494039 -0.0160000008
  endloop
 endfacet

 facet normal 0 0 0
  outer loop
  vertex -0.000102917962 -0.00731499586 -0.00679014623
  vertex -0.003497547 -0.00663494039 -0.0160000008
  vertex 0.00249793474 -0.00707103964 -0.0160000008
  endloop
 endfacet

 facet normal 0 0 0
  outer loop
  vertex 0.000473971741 0.00323185697 0.000676600554
  vertex 0.000566561823 0.00631242292 -0.00331556471
  vertex -0.00344490982 0.0037003553 -0.000219227761
  endloop
 endfacet

 facet normal 0 0 0
  outer loop
  vertex -0.00291286642 0.00674833357 -0.00705320528
  vertex -0.00123423408 0.00739746774 -0.0160000008
  vertex -0.00588838756 0.00464372011 -0.0160000008
  endloop
 endfacet

 facet normal 0 0 0
  outer loop
  vertex -0.00291286642 0.00674833357 -0.00705320528
  vertex -0.00588838756 0.00464372011 -0.0160000008
  vertex -0.00597724784 0.00352636608 -0.00493499357
  endloop
 endfacet

 facet normal 0 0 0
  outer loop
  vertex -0.00291286642 0.00674833357 -0.00705320528
  vertex -0.00597724784 0.00352636608 -0.00493499357
  vertex -0.00344490982 0.0037003553 -0.000219227761
  endloop
 endfacet

 facet normal 0 0 0
  outer loop
  vertex -0.00291286642 0.00674833357 -0.00705320528
  vertex -0.00344490982 0.0037003553 -0.000219227761
  vertex 0.000566561823 0.00631242292 -0.00331556471
  endloop
 endfacet

 facet normal 0 0 0
  outer loop
  vertex 0.00123400229 -0.00261106109 0.000908951799
  vertex -0.00246528815 -0.000317116064 0.00229915185
  vertex -0.00157313782 -0.00446581421 5.92507968e-05
  endloop
 endfacet

 facet normal 0 0 0
  outer loop
  vertex 0.00123400229 -0.00261106109 0.000908951799
  vertex -0.00157313782 -0.00446581421 5.92507968e-05
  vertex 0.00277843676 -0.00533278752 -0.00298915408
  endloop
 endfacet

 facet normal 0 0 0
  outer loop
  vertex 0.00123400229 -0.00261106109 0.000908951799
  vertex 0.00405071769 0.00050466822 -0.000674903451
  vertex 0.000473971741 0.00323185697 0.000676600554
  endloop
 endfacet

 facet normal 0 0 0
  outer loop
  vertex 0.00123400229 -0.00261106109 0.000908951799
  vertex 0.000473971741 0.00323185697 0.000676600554
  vertex -0.00246528815 -0.000317116064 0.00229915185
  endloop
 endfacet

 facet normal 0 0 0
  outer loop
  vertex 0.00492548896 0.00539911259 -0.00914772879
  vertex 0.00695260195 0.001750911 -0.00807881635
  vertex 0.00730437646 0.00170252961 -0.0160000008
  endloop
 endfacet

 facet normal 0 0 0
  outer loop
  vertex 0.00492548896 0.00539911259 -0.00914772879
  vertex 0.00730437646 0.00170252961 -0.0160000008
  vertex 0.00398828229 0.00635334011 -0.0160000008
  endloop
 endfacet

 facet normal 0 0 0
  outer loop
  vertex 0.00622458337 -0.00106114906 -0.00476450333
  vertex 0.00405071769 0.00050466822 -0.000674903451
  vertex 0.00123400229 -0.00261106109 0.000908951799
  endloop
 endfacet

 facet normal 0 0 0
  outer loop
  vertex 0.00622458337 -0.00106114906 -0.00476450333
  vertex 0.00123400229 -0.00261106109 0.000908951799
  vertex 0.00277843676 -0.00533278752 -0.00298915408
  endloop
 endfacet

 facet normal 0 0 0
  outer loop
  vertex 0.00622458337 -0.00106114906 -0.00476450333
  vertex 0.00277843676 -0.00533278752 -0.00298915408
  vertex 0.00403711619 -0.00604883768 -0.0089236591
  endloop
 endfacet

 facet normal 0 0 0
  outer loop
  vertex 0.00622458337 -0.00106114906 -0.00476450333
  vertex 0.00403711619 -0.00604883768 -0.0089236591
  vertex 0.00661513768 -0.00352487573 -0.0112226913
  endloop
 endfacet

 facet normal 0 0 0
  outer loop
  vertex 0.00622458337 -0.00106114906 -0.00476450333
  vertex 0.00661513768 -0.00352487573 -0.0112226913
  vertex 0.00695260195 0.001750911 -0.00807881635
  endloop
 endfacet

 facet normal 0 0 0
  outer loop
  vertex 0.00622458337 -0.00106114906 -0.00476450333
  vertex 0.00695260195 0.001750911 -0.00807881635
  vertex 0.00405071769 0.00050466822 -0.000674903451
  endloop
 endfacet

 facet normal 0 0 0
  outer loop
  vertex 0.00371204456 0.00398814166 -0.00281680981
  vertex 0.00405071769 0.00050466822 -0.000674903451
  vertex 0.00695260195 0.001750911 -0.00807881635
  endloop
 endfacet

 facet normal 0 0 0
  outer loop
  vertex 0.00371204456 0.00398814166 -0.00281680981
  vertex 0.00695260195 0.001750911 -0.00807881635
  vertex 0.00492548896 0.00539911259 -0.00914772879
  endloop
 endfacet

 facet normal 0 0 0
  outer loop
  vertex 0.00371204456 0.00398814166 -0.00281680981
  vertex 0.00492548896 0.00539911259 -0.00914772879
  vertex 0.000566561823 0.00631242292 -0.00331556471
  endloop
 endfacet

 facet normal 0 0 0
  outer loop
  vertex 0.00371204456 0.00398814166 -0.00281680981
  vertex 0.000566561823 0.00631242292 -0.00331556471
  vertex 0.000473971741 0.00323185697 0.000676600554
  endloop
 endfacet

 facet normal 0 0 0
  outer loop
  vertex 0.00371204456 0.00398814166 -0.00281680981
  vertex 0.000473971741 0.00323185697 0.000676600554
  vertex 0.00405071769 0.00050466822 -0.000674903451
  endloop
 endfacet

 facet normal 0 0 0
  outer loop
  vertex -0.00437845849 0.000751919695 0.00138661836
  vertex -0.00246528815 -0.000317116064 0.00229915185
  vertex 0.000473971741 0.00323185697 0.000676600554
  endloop
 endfacet

 facet normal 0 0 0
  outer loop
  vertex -0.00437845849 0.000751919695 0.00138661836
  vertex 0.000473971741 0.00323185697 0.000676600554
  vertex -0.00344490982 0.0037003553 -0.000219227761
  endloop
 endfacet

 facet normal 0 0 0
  outer loop
  vertex -0.00437845849 0.000751919695 0.00138661836
  vertex -0.00344490982 0.0037003553 -0.000219227761
  vertex -0.00597724784 0.00352636608 -0.00493499357
  endloop
 endfacet

 facet normal 0 0 0
  outer loop
  vertex -0.00437845849 0.000751919695 0.00138661836
  vertex -0.00597724784 0.00352636608 -0.00493499357
  vertex -0.0057527991 -0.00114454015 -0.000666058331
  endloop
 endfacet

 facet normal 0 0 0
  outer loop
  vertex -0.0039318474 -0.00225030235 0.00119694986
  vertex -0.0057527991 -0.00114454015 -0.000666058331
  vertex -0.00419581402 -0.00549248653 -0.00492510106
  endloop
 endfacet

 facet normal 0 0 0
  outer loop
  vertex -0.0039318474 -0.00225030235 0.00119694986
  vertex -0.00419581402 -0.00549248653 -0.00492510106
  vertex -0.00157313782 -0.00446581421 5.92507968e-05
  endloop
 endfacet

 facet normal 0 0 0
  outer loop
  vertex -0.0039318474 -0.00225030235 0.00119694986
  vertex -0.00157313782 -0.00446581421 5.92507968e-05
  vertex -0.00246528815 -0.000317116064 0.00229915185
  endloop
 endfacet

 facet normal 0 0 0
  outer loop
  vertex -0.0039318474 -0.00225030235 0.00119694986
  vertex -0.00246528815 -0.000317116064 0.00229915185
  vertex -0.00437845849 0.000751919695 0.00138661836
  endloop
 endfacet

 facet normal 0 0 0
  outer loop
  vertex -0.0039318474 -0.00225030235 0.00119694986
  vertex -0.00437845849 0.000751919695 0.00138661836
  vertex -0.0057527991 -0.00114454015 -0.000666058331
  endloop
 endfacet

 facet normal 0 0 0
  outer loop
  vertex -0.006343727 -0.00312951976 -0.00588952098
  vertex -0.00419581402 -0.00549248653 -0.00492510106
  vertex -0.0057527991 -0.00114454015 -0.000666058331
  endloop
 endfacet

 facet normal 0 0 0
  outer loop
  vertex -0.00713557377 0.000588011288 -0.00700465217
  vertex -0.00736860698 -0.00139856013 -0.0160000008
  vertex -0.006343727 -0.00312951976 -0.00588952098
  endloop
 endfacet

 facet normal 0 0 0
  outer loop
  vertex -0.00713557377 0.000588011288 -0.00700465217
  vertex -0.006343727 -0.00312951976 -0.00588952098
  vertex -0.0057527991 -0.00114454015 -0.000666058331
  endloop
 endfacet

 facet normal 0 0 0
  outer loop
  vertex -0.00713557377 0.000588011288 -0.00700465217
  vertex -0.0057527991 -0.00114454015 -0.000666058331
  vertex -0.00597724784 0.00352636608 -0.00493499357
  endloop
 endfacet

 facet normal 0 0 0
  outer loop
  vertex -0.00713557377 0.000588011288 -0.00700465217
  vertex -0.00597724784 0.00352636608 -0.00493499357
  vertex -0.00588838756 0.00464372011 -0.0160000008
  endloop
 endfacet

 facet normal 0 0 0
  outer loop
  vertex -0.00713557377 0.000588011288 -0.00700465217
  vertex -0.00588838756 0.00464372011 -0.0160000008
  vertex -0.00736860698 -0.00139856013 -0.0160000008
  endloop
 endfacet

 facet normal 0 0 0
  outer loop
  vertex 0.00403711619 -0.00604883768 -0.0089236591
  vertex 0.00249793474 -0.00707103964 -0.0160000008
  vertex 0.00652526598 -0.00369680533 -0.0160000008
  endloop
 endfacet

 facet normal 0 0 0
  outer loop
  vertex 0.00403711619 -0.00604883768 -0.0089236591
  vertex 0.00652526598 -0.00369680533 -0.0160000008
  vertex 0.00661513768 -0.00352487573 -0.0112226913
  endloop
 endfacet

 facet normal 0 0 0
  outer loop
  vertex 0.00403711619 -0.00604883768 -0.0089236591
  vertex 0.00277843676 -0.00533278752 -0.00298915408
  vertex -0.000102917962 -0.00731499586 -0.00679014623
  endloop
 endfacet

 facet normal 0 0 0
  outer loop
  vertex 0.00403711619 -0.00604883768 -0.0089236591
  vertex -0.000102917962 -0.00731499586 -0.00679014623
  vertex 0.00249793474 -0.00707103964 -0.0160000008
  endloop
 endfacet

 facet normal 0 0 0
  outer loop
  vertex -0.00612696819 -0.00433048932 -0.0160000008
  vertex -0.003497547 -0.00663494039 -0.0160000008
  vertex -0.00419581402 -0.00549248653 -0.00492510106
  endloop
 endfacet

 facet normal 0 0 0
  outer loop
  vertex -0.00612696819 -0.00433048932 -0.0160000008
  vertex -0.00419581402 -0.00549248653 -0.00492510106
  vertex -0.006343727 -0.00312951976 -0.00588952098
  endloop
 endfacet

 facet normal 0 0 0
  outer loop
  vertex -0.00612696819 -0.00433048932 -0.0160000008
  vertex -0.006343727 -0.00312951976 -0.00588952098
  vertex -0.00736860698 -0.00139856013 -0.0160000008
  endloop
 endfacet

 facet normal 0 0 0
  outer loop
  vertex 0.000873937272 0.00724460836 -0.00816101488
  vertex 0.000566561823 0.00631242292 -0.00331556471
  vertex 0.00492548896 0.00539911259 -0.00914772879
  endloop
 endfacet

 facet normal 0 0 0
  outer loop
  vertex 0.000873937272 0.00724460836 -0.00816101488
  vertex 0.00492548896 0.00539911259 -0.00914772879
  vertex 0.00398828229 0.00635334011 -0.0160000008
  endloop
 endfacet

 facet normal 0 0 0
  outer loop
  vertex 0.000873937272 0.00724460836 -0.00816101488
  vertex 0.00398828229 0.00635334011 -0.0160000008
  vertex -0.00123423408 0.00739746774 -0.0160000008
  endloop
 endfacet

 facet normal 0 0 0
  outer loop
  vertex 0.000873937272 0.00724460836 -0.00816101488
  vertex -0.00123423408 0.00739746774 -0.0160000008
  vertex -0.00291286642 0.00674833357 -0.00705320528
  endloop
 endfacet

 facet normal 0 0 0
  outer loop
  vertex 0.000873937272 0.00724460836 -0.00816101488
  vertex -0.00291286642 0.00674833357 -0.00705320528
  vertex 0.000566561823 0.00631242292 -0.00331556471
  endloop
 endfacet

endsolid AssimpScene
