solid AssimpScene
 facet normal 0 0 0
  outer loop
  vertex 0.00274868822 0.000916867168 0.0463335291
  vertex 0.00685321819 0.00275339 0.0397292152
  vertex 0.00740416395 0.00699539809 0.0403084978
  endloop
 endfacet

 facet normal 0 0 0
  outer loop
  vertex 0.00274868822 0.000916867168 0.0463335291
  vertex 0.00740416395 0.00699539809 0.0403084978
  vertex 0.00275004958 0.00598515198 0.0483240187
  endloop
 endfacet

 facet normal 0 0 0
  outer loop
  vertex -0.00445696712 0.00644996902 -0.00463055726
  vertex -1.51374399e-12 0.0132999634 -0.00530804927
  vertex 0.00445696712 0.00644996902 -0.00463055726
  endloop
 endfacet

 facet normal 0 0 0
  outer loop
  vertex 0.00530330092 0.0111032715 -0.00419831602
  vertex 0.00445696712 0.00644996902 -0.00463055726
  vertex -1.51374399e-12 0.0132999634 -0.00530804927
  endloop
 endfacet

 facet normal 0 0 0
  outer loop
  vertex 0.00530330092 0.000496724271 0.00394999515
  vertex 0.00749999983 0.00580001157 0.00194421213
  vertex 0.00685321819 0.00275339 0.0397292152
  endloop
 endfacet

 facet normal 0 0 0
  outer loop
  vertex 8.23157514e-13 0.000799988804 -0.00175000681
  vertex -5.36666891e-11 -0.00169997488 0.00395000912
  vertex -0.00530330092 0.000496724271 0.00394999515
  endloop
 endfacet

 facet normal 0 0 0
  outer loop
  vertex 8.23157514e-13 0.000799988804 -0.00175000681
  vertex -0.00445696712 0.00644996902 -0.00463055726
  vertex 0.00445696712 0.00644996902 -0.00463055726
  endloop
 endfacet

 facet normal 0 0 0
  outer loop
  vertex 8.23157514e-13 0.000799988804 -0.00175000681
  vertex 0.00530330092 0.000496724271 0.00394999515
  vertex -5.36666891e-11 -0.00169997488 0.00395000912
  endloop
 endfacet

 facet normal 0 0 0
  outer loop
  vertex -0.00275067915 0.00327240769 0.0478521995
  vertex 0.00069921359 0.00623802887 0.0488033332
  vertex -0.0027490065 0.00949970912 0.0472655185
  endloop
 endfacet

 facet normal 0 0 0
  outer loop
  vertex -0.00587686989 0.0104599306 0.0424324572
  vertex -0.0075000003 0.00580025651 0.0397573784
  vertex -0.00275067915 0.00327240769 0.0478521995
  endloop
 endfacet

 facet normal 0 0 0
  outer loop
  vertex -0.00587686989 0.0104599306 0.0424324572
  vertex -0.00275067915 0.00327240769 0.0478521995
  vertex -0.0027490065 0.00949970912 0.0472655185
  endloop
 endfacet

 facet normal 0 0 0
  outer loop
  vertex -0.00587686989 0.0104599306 0.0424324572
  vertex -0.00743583636 0.00677895034 0.000777545385
  vertex -0.0075000003 0.00580025651 0.0397573784
  endloop
 endfacet

 facet normal 0 0 0
  outer loop
  vertex -0.00490431441 0.0114742722 -0.00444769999
  vertex -0.00743583636 0.00677895034 0.000777545385
  vertex -0.00587686989 0.0104599306 0.0424324572
  endloop
 endfacet

 facet normal 0 0 0
  outer loop
  vertex -0.00490431441 0.0114742722 -0.00444769999
  vertex -0.00587686989 0.0104599306 0.0424324572
  vertex -0.00120529439 0.0131669734 0.0420760922
  endloop
 endfacet

 facet normal 0 0 0
  outer loop
  vertex -0.00490431441 0.0114742722 -0.00444769999
  vertex -0.00120529439 0.0131669734 0.0420760922
  vertex -1.51374399e-12 0.0132999634 -0.00530804927
  endloop
 endfacet

 facet normal 0 0 0
  outer loop
  vertex -0.00490431441 0.0114742722 -0.00444769999
  vertex -1.51374399e-12 0.0132999634 -0.00530804927
  vertex -0.00445696712 0.00644996902 -0.00463055726
  endloop
 endfacet

 facet normal 0 0 0
  outer loop
  vertex 0.00275132316 0.01072622 0.0462900139
  vertex -0.0027490065 0.00949970912 0.0472655185
  vertex 0.00069921359 0.00623802887 0.0488033332
  endloop
 endfacet

 facet normal 0 0 0
  outer loop
  vertex 0.00356052956 -0.000800710695 0.0380312167
  vertex -5.36666891e-11 -0.00169997488 0.00395000912
  vertex 0.00530330092 0.000496724271 0.00394999515
  endloop
 endfacet

 facet normal 0 0 0
  outer loop
  vertex 0.00356052956 -0.000800710695 0.0380312167
  vertex 0.00530330092 0.000496724271 0.00394999515
  vertex 0.00685321819 0.00275339 0.0397292152
  endloop
 endfacet

 facet normal 0 0 0
  outer loop
  vertex -0.00610532658 0.00144422648 0.0394612066
  vertex -0.00530330092 0.000496724271 0.00394999515
  vertex -0.00217053387 -0.000799131347 0.044174917
  endloop
 endfacet

 facet normal 0 0 0
  outer loop
  vertex -0.00610532658 0.00144422648 0.0394612066
  vertex -0.00217053387 -0.000799131347 0.044174917
  vertex -0.00275067915 0.00327240769 0.0478521995
  endloop
 endfacet

 facet normal 0 0 0
  outer loop
  vertex -0.00610532658 0.00144422648 0.0394612066
  vertex -0.00275067915 0.00327240769 0.0478521995
  vertex -0.0075000003 0.00580025651 0.0397573784
  endloop
 endfacet

 facet normal 0 0 0
  outer loop
  vertex 0.00275004958 0.00598515198 0.0483240187
  vertex 0.00587937189 0.0104567725 0.0424324572
  vertex 0.00275132316 0.01072622 0.0462900139
  endloop
 endfacet

 facet normal 0 0 0
  outer loop
  vertex 0.00275004958 0.00598515198 0.0483240187
  vertex 0.00275132316 0.01072622 0.0462900139
  vertex 0.00069921359 0.00623802887 0.0488033332
  endloop
 endfacet

 facet normal 0 0 0
  outer loop
  vertex 0.00749999983 0.00580001157 0.00194421213
  vertex 0.00530330092 0.0111032715 -0.00419831602
  vertex 0.00587937189 0.0104567725 0.0424324572
  endloop
 endfacet

 facet normal 0 0 0
  outer loop
  vertex 0.00749999983 0.00580001157 0.00194421213
  vertex 0.00587937189 0.0104567725 0.0424324572
  vertex 0.00740416395 0.00699539809 0.0403084978
  endloop
 endfacet

 facet normal 0 0 0
  outer loop
  vertex 0.00740416395 0.00699539809 0.0403084978
  vertex 0.00587937189 0.0104567725 0.0424324572
  vertex 0.00275004958 0.00598515198 0.0483240187
  endloop
 endfacet

 facet normal 0 0 0
  outer loop
  vertex 0.00740416395 0.00699539809 0.0403084978
  vertex 0.00685321819 0.00275339 0.0397292152
  vertex 0.00749999983 0.00580001157 0.00194421213
  endloop
 endfacet

 facet normal 0 0 0
  outer loop
  vertex 0.00275187404 0.0127771702 0.0413488075
  vertex 0.00275132316 0.01072622 0.0462900139
  vertex 0.00587937189 0.0104567725 0.0424324572
  endloop
 endfacet

 facet normal 0 0 0
  outer loop
  vertex 0.00275187404 0.0127771702 0.0413488075
  vertex 0.00587937189 0.0104567725 0.0424324572
  vertex 0.00530330092 0.0111032715 -0.00419831602
  endloop
 endfacet

 facet normal 0 0 0
  outer loop
  vertex 0.00275187404 0.0127771702 0.0413488075
  vertex 0.00530330092 0.0111032715 -0.00419831602
  vertex -1.51374399e-12 0.0132999634 -0.00530804927
  endloop
 endfacet

 facet normal 0 0 0
  outer loop
  vertex 0.00275187404 0.0127771702 0.0413488075
  vertex -1.51374399e-12 0.0132999634 -0.00530804927
  vertex -0.00120529439 0.0131669734 0.0420760922
  endloop
 endfacet

 facet normal 0 0 0
  outer loop
  vertex 0.00265461206 -0.000800430309 0.043722406
  vertex 0.00356052956 -0.000800710695 0.0380312167
  vertex 0.00685321819 0.00275339 0.0397292152
  endloop
 endfacet

 facet normal 0 0 0
  outer loop
  vertex 0.00265461206 -0.000800430309 0.043722406
  vertex 0.00685321819 0.00275339 0.0397292152
  vertex 0.00274868822 0.000916867168 0.0463335291
  endloop
 endfacet

 facet normal 0 0 0
  outer loop
  vertex -0.000374513096 0.0121261952 0.0453603677
  vertex -0.0027490065 0.00949970912 0.0472655185
  vertex 0.00275132316 0.01072622 0.0462900139
  endloop
 endfacet

 facet normal 0 0 0
  outer loop
  vertex -0.000374513096 0.0121261952 0.0453603677
  vertex 0.00275132316 0.01072622 0.0462900139
  vertex 0.00275187404 0.0127771702 0.0413488075
  endloop
 endfacet

 facet normal 0 0 0
  outer loop
  vertex -0.000374513096 0.0121261952 0.0453603677
  vertex 0.00275187404 0.0127771702 0.0413488075
  vertex -0.00120529439 0.0131669734 0.0420760922
  endloop
 endfacet

 facet normal 0 0 0
  outer loop
  vertex -0.000374513096 0.0121261952 0.0453603677
  vertex -0.00120529439 0.0131669734 0.0420760922
  vertex -0.00587686989 0.0104599306 0.0424324572
  endloop
 endfacet

 facet normal 0 0 0
  outer loop
  vertex -0.000374513096 0.0121261952 0.0453603677
  vertex -0.00587686989 0.0104599306 0.0424324572
  vertex -0.0027490065 0.00949970912 0.0472655185
  endloop
 endfacet

 facet normal 0 0 0
  outer loop
  vertex 0.00617817044 0.00644997926 -0.00310649979
  vertex 0.00445696712 0.00644996902 -0.00463055726
  vertex 0.00530330092 0.0111032715 -0.00419831602
  endloop
 endfacet

 facet normal 0 0 0
  outer loop
  vertex 0.00617817044 0.00644997926 -0.00310649979
  vertex 0.00530330092 0.0111032715 -0.00419831602
  vertex 0.00749999983 0.00580001157 0.00194421213
  endloop
 endfacet

 facet normal 0 0 0
  outer loop
  vertex 0.00617817044 0.00644997926 -0.00310649979
  vertex 0.00749999983 0.00580001157 0.00194421213
  vertex 0.00530330092 0.000496724271 0.00394999515
  endloop
 endfacet

 facet normal 0 0 0
  outer loop
  vertex 0.00530330092 0.000496724271 0.00394999515
  vertex 8.23157514e-13 0.000799988804 -0.00175000681
  vertex 0.00445696712 0.00644996902 -0.00463055726
  endloop
 endfacet

 facet normal 0 0 0
  outer loop
  vertex 0.00530330092 0.000496724271 0.00394999515
  vertex 0.00445696712 0.00644996902 -0.00463055726
  vertex 0.00617817044 0.00644997926 -0.00310649979
  endloop
 endfacet

 facet normal 0 0 0
  outer loop
  vertex 0.00274868822 0.000916867168 0.0463335291
  vertex 0.00275004958 0.00598515198 0.0483240187
  vertex 0.00069921359 0.00623802887 0.0488033332
  endloop
 endfacet

 facet normal 0 0 0
  outer loop
  vertex 0.00274868822 0.000916867168 0.0463335291
  vertex 0.00069921359 0.00623802887 0.0488033332
  vertex -0.000537911837 0.00098163099 0.0470708497
  endloop
 endfacet

 facet normal 0 0 0
  outer loop
  vertex -0.000537911837 0.00098163099 0.0470708497
  vertex 0.00069921359 0.00623802887 0.0488033332
  vertex -0.00275067915 0.00327240769 0.0478521995
  endloop
 endfacet

 facet normal 0 0 0
  outer loop
  vertex -0.000537911837 0.00098163099 0.0470708497
  vertex -0.00275067915 0.00327240769 0.0478521995
  vertex -0.00217053387 -0.000799131347 0.044174917
  endloop
 endfacet

 facet normal 0 0 0
  outer loop
  vertex -0.000537911837 0.00098163099 0.0470708497
  vertex -0.00217053387 -0.000799131347 0.044174917
  vertex 0.00265461206 -0.000800430309 0.043722406
  endloop
 endfacet

 facet normal 0 0 0
  outer loop
  vertex -0.000537911837 0.00098163099 0.0470708497
  vertex 0.00265461206 -0.000800430309 0.043722406
  vertex 0.00274868822 0.000916867168 0.0463335291
  endloop
 endfacet

 facet normal 0 0 0
  outer loop
  vertex -0.00714283669 0.00351312943 0.00380864926
  vertex -0.00530330092 0.000496724271 0.00394999515
  vertex -0.00610532658 0.00144422648 0.0394612066
  endloop
 endfacet

 facet normal 0 0 0
  outer loop
  vertex -0.00714283669 0.00351312943 0.00380864926
  vertex -0.00610532658 0.00144422648 0.0394612066
  vertex -0.0075000003 0.00580025651 0.0397573784
  endloop
 endfacet

 facet normal 0 0 0
  outer loop
  vertex -0.00714283669 0.00351312943 0.00380864926
  vertex -0.0075000003 0.00580025651 0.0397573784
  vertex -0.00743583636 0.00677895034 0.000777545385
  endloop
 endfacet

 facet normal 0 0 0
  outer loop
  vertex -5.36666891e-11 -0.00169997488 0.00395000912
  vertex 0.00356052956 -0.000800710695 0.0380312167
  vertex 0.00265461206 -0.000800430309 0.043722406
  endloop
 endfacet

 facet normal 0 0 0
  outer loop
  vertex -5.36666891e-11 -0.00169997488 0.00395000912
  vertex 0.00265461206 -0.000800430309 0.043722406
  vertex -5.12883867e-11 -0.00169976091 0.0369680263
  endloop
 endfacet

 facet normal 0 0 0
  outer loop
  vertex -5.12883867e-11 -0.00169976091 0.0369680263
  vertex 0.00265461206 -0.000800430309 0.043722406
  vertex -0.00217053387 -0.000799131347 0.044174917
  endloop
 endfacet

 facet normal 0 0 0
  outer loop
  vertex -5.12883867e-11 -0.00169976091 0.0369680263
  vertex -0.00217053387 -0.000799131347 0.044174917
  vertex -0.00530330092 0.000496724271 0.00394999515
  endloop
 endfacet

 facet normal 0 0 0
  outer loop
  vertex -5.12883867e-11 -0.00169976091 0.0369680263
  vertex -0.00530330092 0.000496724271 0.00394999515
  vertex -5.36666891e-11 -0.00169997488 0.00395000912
  endloop
 endfacet

 facet normal 0 0 0
  outer loop
  vertex -0.00617817044 0.00644997926 -0.00310649979
  vertex -0.00445696712 0.00644996902 -0.00463055726
  vertex 8.23157514e-13 0.000799988804 -0.00175000681
  endloop
 endfacet

 facet normal 0 0 0
  outer loop
  vertex -0.00617817044 0.00644997926 -0.00310649979
  vertex 8.23157514e-13 0.000799988804 -0.00175000681
  vertex -0.00530330092 0.000496724271 0.00394999515
  endloop
 endfacet

 facet normal 0 0 0
  outer loop
  vertex -0.00617817044 0.00644997926 -0.00310649979
  vertex -0.00530330092 0.000496724271 0.00394999515
  vertex -0.00714283669 0.00351312943 0.00380864926
  endloop
 endfacet

 facet normal 0 0 0
  outer loop
  vertex -0.00617817044 0.00644997926 -0.00310649979
  vertex -0.00714283669 0.00351312943 0.00380864926
  vertex -0.00743583636 0.00677895034 0.000777545385
  endloop
 endfacet

 facet normal 0 0 0
  outer loop
  vertex -0.00617817044 0.00644997926 -0.00310649979
  vertex -0.00743583636 0.00677895034 0.000777545385
  vertex -0.00490431441 0.0114742722 -0.00444769999
  endloop
 endfacet

 facet normal 0 0 0
  outer loop
  vertex -0.00617817044 0.00644997926 -0.00310649979
  vertex -0.00490431441 0.0114742722 -0.00444769999
  vertex -0.00445696712 0.00644996902 -0.00463055726
  endloop
 endfacet

endsolid AssimpScene
