solid AssimpScene
 facet normal 0 0 0
  outer loop
  vertex 0.00532662822 0.00414824113 0.0106999995
  vertex 0.0034697596 0.00618512928 0.0106999995
  vertex -0.00174201292 0.00766800623 0.0106999995
  endloop
 endfacet

 facet normal 0 0 0
  outer loop
  vertex 0.00532662822 0.00414824113 0.0106999995
  vertex -0.00174201292 0.00766800623 0.0106999995
  vertex -0.00659256708 0.00525271753 0.0106999995
  endloop
 endfacet

 facet normal 0 0 0
  outer loop
  vertex 0.00532662822 0.00414824113 0.0106999995
  vertex -0.00659256708 0.00525271753 0.0106999995
  vertex -0.00854999945 0.000199999777 0.0106999995
  endloop
 endfacet

 facet normal 0 0 0
  outer loop
  vertex 0.00532662822 0.00414824113 0.0106999995
  vertex -0.00854999945 0.000199999777 0.0106999995
  vertex -0.00659256661 -0.00485271681 0.0106999995
  endloop
 endfacet

 facet normal 0 0 0
  outer loop
  vertex 0.00532662822 0.00414824113 0.0106999995
  vertex -0.00659256661 -0.00485271681 0.0106999995
  vertex -0.00310247228 -0.00701369252 0.0106999995
  endloop
 endfacet

 facet normal 0 0 0
  outer loop
  vertex 0.00532662822 0.00414824113 0.0106999995
  vertex -0.00310247228 -0.00701369252 0.0106999995
  vertex -0.000357987126 -0.00726800645 0.0106999995
  endloop
 endfacet

 facet normal 0 0 0
  outer loop
  vertex 0.00532662822 0.00414824113 0.0106999995
  vertex -0.000357987126 -0.00726800645 0.0106999995
  vertex 0.00449256739 -0.00485271681 0.0106999995
  endloop
 endfacet

 facet normal 0 0 0
  outer loop
  vertex 0.00532662822 0.00414824113 0.0106999995
  vertex 0.00449256739 -0.00485271681 0.0106999995
  vertex 0.00644999975 0.000200000184 0.0106999995
  endloop
 endfacet

 facet normal 0 0 0
  outer loop
  vertex 0.00346975983 -0.00578512903 -0.00142241584
  vertex 0.00336764683 0.00626089051 -0.00164968264
  vertex 0.00565141812 0.00356763997 0.00768779265
  endloop
 endfacet

 facet normal 0 0 0
  outer loop
  vertex 0.00346975983 -0.00578512903 -0.00142241584
  vertex 0.00565141812 0.00356763997 0.00768779265
  vertex 0.00644999975 0.000200000184 0.0106999995
  endloop
 endfacet

 facet normal 0 0 0
  outer loop
  vertex -0.00610271748 0.00574256666 0.00421406422
  vertex -0.00610271748 -0.00534256687 0.00421406375
  vertex -0.00854999945 0.000199999777 0.0106999995
  endloop
 endfacet

 facet normal 0 0 0
  outer loop
  vertex -0.00659256661 -0.00485271681 0.0106999995
  vertex -0.00854999945 0.000199999777 0.0106999995
  vertex -0.00610271748 -0.00534256687 0.00421406375
  endloop
 endfacet

 facet normal 0 0 0
  outer loop
  vertex 0.00449256739 -0.00485271681 0.0106999995
  vertex 0.00346975983 -0.00578512903 -0.00142241584
  vertex 0.00644999975 0.000200000184 0.0106999995
  endloop
 endfacet

 facet normal 0 0 0
  outer loop
  vertex -0.00659256708 0.00525271753 0.0106999995
  vertex -0.00610271748 0.00574256666 0.00421406422
  vertex -0.00854999945 0.000199999777 0.0106999995
  endloop
 endfacet

 facet normal 0 0 0
  outer loop
  vertex -0.00310247228 -0.00701369252 -0.00210645725
  vertex -0.00310247275 0.00741369231 -0.00210645725
  vertex -0.000503125309 0.0076800352 -0.00371609582
  endloop
 endfacet

 facet normal 0 0 0
  outer loop
  vertex -0.00310247228 -0.00701369252 -0.00210645725
  vertex -0.000503125309 0.0076800352 -0.00371609582
  vertex -0.000357987097 -0.00726800645 -0.00373287429
  endloop
 endfacet

 facet normal 0 0 0
  outer loop
  vertex -0.00310247275 0.00741369231 -0.00210645725
  vertex -0.00310247228 -0.00701369252 -0.00210645725
  vertex -0.00610271748 -0.00534256687 0.00421406375
  endloop
 endfacet

 facet normal 0 0 0
  outer loop
  vertex -0.00310247275 0.00741369231 -0.00210645725
  vertex -0.00610271748 -0.00534256687 0.00421406375
  vertex -0.00610271748 0.00574256666 0.00421406422
  endloop
 endfacet

 facet normal 0 0 0
  outer loop
  vertex -0.00310247275 0.00741369231 -0.00210645725
  vertex -0.00610271748 0.00574256666 0.00421406422
  vertex -0.00659256708 0.00525271753 0.0106999995
  endloop
 endfacet

 facet normal 0 0 0
  outer loop
  vertex -0.00310247275 0.00741369231 -0.00210645725
  vertex -0.00659256708 0.00525271753 0.0106999995
  vertex -0.00174201292 0.00766800623 0.0106999995
  endloop
 endfacet

 facet normal 0 0 0
  outer loop
  vertex -0.00310247275 0.00741369231 -0.00210645725
  vertex -0.00174201292 0.00766800623 0.0106999995
  vertex -0.000503125309 0.0076800352 -0.00371609582
  endloop
 endfacet

 facet normal 0 0 0
  outer loop
  vertex -0.00310247228 -0.00701369252 0.0106999995
  vertex -0.00659256661 -0.00485271681 0.0106999995
  vertex -0.00610271748 -0.00534256687 0.00421406375
  endloop
 endfacet

 facet normal 0 0 0
  outer loop
  vertex -0.00310247228 -0.00701369252 0.0106999995
  vertex -0.00610271748 -0.00534256687 0.00421406375
  vertex -0.00310247228 -0.00701369252 -0.00210645725
  endloop
 endfacet

 facet normal 0 0 0
  outer loop
  vertex -0.00310247228 -0.00701369252 0.0106999995
  vertex -0.00310247228 -0.00701369252 -0.00210645725
  vertex -0.000357987097 -0.00726800645 -0.00373287429
  endloop
 endfacet

 facet normal 0 0 0
  outer loop
  vertex -0.00310247228 -0.00701369252 0.0106999995
  vertex -0.000357987097 -0.00726800645 -0.00373287429
  vertex -0.000357987126 -0.00726800645 0.0106999995
  endloop
 endfacet

 facet normal 0 0 0
  outer loop
  vertex 0.00176810892 -0.00675041461 -0.00330700655
  vertex 0.00346975983 -0.00578512903 -0.00142241584
  vertex 0.00449256739 -0.00485271681 0.0106999995
  endloop
 endfacet

 facet normal 0 0 0
  outer loop
  vertex 0.00176810892 -0.00675041461 -0.00330700655
  vertex 0.00449256739 -0.00485271681 0.0106999995
  vertex -0.000357987126 -0.00726800645 0.0106999995
  endloop
 endfacet

 facet normal 0 0 0
  outer loop
  vertex 0.00176810892 -0.00675041461 -0.00330700655
  vertex -0.000357987126 -0.00726800645 0.0106999995
  vertex -0.000357987097 -0.00726800645 -0.00373287429
  endloop
 endfacet

 facet normal 0 0 0
  outer loop
  vertex 0.00532662822 0.00414824113 0.0106999995
  vertex 0.00644999975 0.000200000184 0.0106999995
  vertex 0.00565141812 0.00356763997 0.00768779265
  endloop
 endfacet

 facet normal 0 0 0
  outer loop
  vertex 0.00532662822 0.00414824113 0.0106999995
  vertex 0.00565141812 0.00356763997 0.00768779265
  vertex 0.00336764683 0.00626089051 -0.00164968264
  endloop
 endfacet

 facet normal 0 0 0
  outer loop
  vertex 0.00532662822 0.00414824113 0.0106999995
  vertex 0.00336764683 0.00626089051 -0.00164968264
  vertex 0.0034697596 0.00618512928 0.0106999995
  endloop
 endfacet

 facet normal 0 0 0
  outer loop
  vertex 0.00177007727 0.00714961579 -0.0033059523
  vertex 0.00336764683 0.00626089051 -0.00164968264
  vertex 0.00346975983 -0.00578512903 -0.00142241584
  endloop
 endfacet

 facet normal 0 0 0
  outer loop
  vertex 0.00177007727 0.00714961579 -0.0033059523
  vertex 0.00346975983 -0.00578512903 -0.00142241584
  vertex 0.00176810892 -0.00675041461 -0.00330700655
  endloop
 endfacet

 facet normal 0 0 0
  outer loop
  vertex 0.00177007727 0.00714961579 -0.0033059523
  vertex 0.00176810892 -0.00675041461 -0.00330700655
  vertex -0.000357987097 -0.00726800645 -0.00373287429
  endloop
 endfacet

 facet normal 0 0 0
  outer loop
  vertex 0.00177007727 0.00714961579 -0.0033059523
  vertex -0.000357987097 -0.00726800645 -0.00373287429
  vertex -0.000503125309 0.0076800352 -0.00371609582
  endloop
 endfacet

 facet normal 0 0 0
  outer loop
  vertex 0.00177007727 0.00714961579 -0.0033059523
  vertex -0.000503125309 0.0076800352 -0.00371609582
  vertex -0.00174201292 0.00766800623 0.0106999995
  endloop
 endfacet

 facet normal 0 0 0
  outer loop
  vertex 0.00177007727 0.00714961579 -0.0033059523
  vertex -0.00174201292 0.00766800623 0.0106999995
  vertex 0.0034697596 0.00618512928 0.0106999995
  endloop
 endfacet

 facet normal 0 0 0
  outer loop
  vertex 0.00177007727 0.00714961579 -0.0033059523
  vertex 0.0034697596 0.00618512928 0.0106999995
  vertex 0.00336764683 0.00626089051 -0.00164968264
  endloop
 endfacet

endsolid AssimpScene
