solid AssimpScene
 facet normal 0 0 0
  outer loop
  vertex 0.00220000045 0.00462761847 0.00553830247
  vertex 0.00220000045 0.00149619009 0.00756239938
  vertex 0.00220000045 -0.00149619672 0.00756239938
  endloop
 endfacet

 facet normal 0 0 0
  outer loop
  vertex 0.00220000045 0.00462761847 0.00553830247
  vertex 0.00220000045 -0.00149619672 0.00756239938
  vertex 0.00220000045 -0.00486760633 0.00509950938
  endloop
 endfacet

 facet normal 0 0 0
  outer loop
  vertex 0.00220000045 0.00462761847 0.00553830247
  vertex 0.00220000045 -0.00486760633 0.00509950938
  vertex 0.00216773734 -0.00494999811 -0.000231364334
  endloop
 endfacet

 facet normal 0 0 0
  outer loop
  vertex 0.00220000045 0.00462761847 0.00553830247
  vertex 0.00216773734 -0.00494999811 -0.000231364334
  vertex 0.00216773734 0.0049500009 -0.000231364116
  endloop
 endfacet

 facet normal 0 0 0
  outer loop
  vertex -0.00922304951 0.0049500009 -0.0058651669
  vertex 0.000789648737 0.00700000115 -0.00127532089
  vertex -0.00187980756 0.0049500009 -0.00457887072
  endloop
 endfacet

 facet normal 0 0 0
  outer loop
  vertex -0.00922304951 0.0049500009 -0.0058651669
  vertex -0.0103775961 -0.00494999811 -0.00494838087
  vertex -0.0104213851 0.0049500009 -0.00394185446
  endloop
 endfacet

 facet normal 0 0 0
  outer loop
  vertex 0.00119702634 -0.00699999835 -0.000903946813
  vertex -0.000408370513 -0.00494999811 -0.00405518757
  vertex 0.00216773734 -0.00494999811 -0.000231364334
  endloop
 endfacet

 facet normal 0 0 0
  outer loop
  vertex 0.00119702634 -0.00699999835 -0.000903946813
  vertex 4.38629827e-10 -0.00699999835 0.0015000049
  vertex -0.0103775961 -0.00494999811 -0.00494838087
  endloop
 endfacet

 facet normal 0 0 0
  outer loop
  vertex 0.00220000045 -0.00486760633 0.00509950938
  vertex 4.38629827e-10 -0.00699999835 0.0015000049
  vertex 0.00119702634 -0.00699999835 -0.000903946813
  endloop
 endfacet

 facet normal 0 0 0
  outer loop
  vertex 0.00220000045 -0.00486760633 0.00509950938
  vertex 0.00119702634 -0.00699999835 -0.000903946813
  vertex 0.00216773734 -0.00494999811 -0.000231364334
  endloop
 endfacet

 facet normal 0 0 0
  outer loop
  vertex 0.00220000045 -0.00486760633 0.00509950938
  vertex 0.00220000045 -0.00149619672 0.00756239938
  vertex -0.00104999961 -0.00425416091 0.00587543892
  endloop
 endfacet

 facet normal 0 0 0
  outer loop
  vertex 0.00220000045 -0.00486760633 0.00509950938
  vertex -0.00104999961 -0.00425416091 0.00587543892
  vertex 4.38629827e-10 -0.00699999835 0.0015000049
  endloop
 endfacet

 facet normal 0 0 0
  outer loop
  vertex -0.00101054308 0.00700000022 0.00110851822
  vertex 0.00220000045 0.00462761847 0.00553830247
  vertex 0.000789648737 0.00700000115 -0.00127532089
  endloop
 endfacet

 facet normal 0 0 0
  outer loop
  vertex 0.000789648737 0.00700000115 -0.00127532089
  vertex -0.00922304951 0.0049500009 -0.0058651669
  vertex -0.0104213851 0.0049500009 -0.00394185446
  endloop
 endfacet

 facet normal 0 0 0
  outer loop
  vertex 0.000789648737 0.00700000115 -0.00127532089
  vertex -0.0104213851 0.0049500009 -0.00394185446
  vertex -0.00101054308 0.00700000022 0.00110851822
  endloop
 endfacet

 facet normal 0 0 0
  outer loop
  vertex 0.00106038281 0.0049500009 -0.00284192408
  vertex -0.000408370513 -0.00494999811 -0.00405518757
  vertex -0.00187980756 0.0049500009 -0.00457887072
  endloop
 endfacet

 facet normal 0 0 0
  outer loop
  vertex 0.00106038281 0.0049500009 -0.00284192408
  vertex -0.00187980756 0.0049500009 -0.00457887072
  vertex 0.000789648737 0.00700000115 -0.00127532089
  endloop
 endfacet

 facet normal 0 0 0
  outer loop
  vertex 0.00106038281 0.0049500009 -0.00284192408
  vertex 0.00216773734 -0.00494999811 -0.000231364334
  vertex -0.000408370513 -0.00494999811 -0.00405518757
  endloop
 endfacet

 facet normal 0 0 0
  outer loop
  vertex -0.0087118838 -0.00494999811 -0.00585808512
  vertex -0.0103775961 -0.00494999811 -0.00494838087
  vertex -0.00922304951 0.0049500009 -0.0058651669
  endloop
 endfacet

 facet normal 0 0 0
  outer loop
  vertex -0.0087118838 -0.00494999811 -0.00585808512
  vertex -0.00922304951 0.0049500009 -0.0058651669
  vertex -0.00187980756 0.0049500009 -0.00457887072
  endloop
 endfacet

 facet normal 0 0 0
  outer loop
  vertex -0.0087118838 -0.00494999811 -0.00585808512
  vertex -0.00187980756 0.0049500009 -0.00457887072
  vertex -0.000408370513 -0.00494999811 -0.00405518757
  endloop
 endfacet

 facet normal 0 0 0
  outer loop
  vertex -0.0087118838 -0.00494999811 -0.00585808512
  vertex -0.000408370513 -0.00494999811 -0.00405518757
  vertex 0.00119702634 -0.00699999835 -0.000903946813
  endloop
 endfacet

 facet normal 0 0 0
  outer loop
  vertex -0.0087118838 -0.00494999811 -0.00585808512
  vertex 0.00119702634 -0.00699999835 -0.000903946813
  vertex -0.0103775961 -0.00494999811 -0.00494838087
  endloop
 endfacet

 facet normal 0 0 0
  outer loop
  vertex 0.00220000045 0.00149619009 0.00756239938
  vertex 0.00220000045 0.00462761847 0.00553830247
  vertex -0.0010499995 0.00462761894 0.00553830201
  endloop
 endfacet

 facet normal 0 0 0
  outer loop
  vertex 0.00220000045 0.00149619009 0.00756239938
  vertex -0.0010499995 0.00462761894 0.00553830201
  vertex -0.0010499995 0.00250022975 0.00698933611
  endloop
 endfacet

 facet normal 0 0 0
  outer loop
  vertex -0.0101897521 -0.00494999811 -0.00348612689
  vertex -0.0103775961 -0.00494999811 -0.00494838087
  vertex 4.38629827e-10 -0.00699999835 0.0015000049
  endloop
 endfacet

 facet normal 0 0 0
  outer loop
  vertex -0.0101897521 -0.00494999811 -0.00348612689
  vertex 4.38629827e-10 -0.00699999835 0.0015000049
  vertex -0.00104999961 -0.00425416091 0.00587543892
  endloop
 endfacet

 facet normal 0 0 0
  outer loop
  vertex -0.0101897521 -0.00494999811 -0.00348612689
  vertex -0.00104999961 -0.00250023347 0.00698933611
  vertex -0.0010499995 0.00250022975 0.00698933611
  endloop
 endfacet

 facet normal 0 0 0
  outer loop
  vertex -0.0101897521 -0.00494999811 -0.00348612689
  vertex -0.0010499995 0.00250022975 0.00698933611
  vertex -0.0104213851 0.0049500009 -0.00394185446
  endloop
 endfacet

 facet normal 0 0 0
  outer loop
  vertex -0.0101897521 -0.00494999811 -0.00348612689
  vertex -0.0104213851 0.0049500009 -0.00394185446
  vertex -0.0103775961 -0.00494999811 -0.00494838087
  endloop
 endfacet

 facet normal 0 0 0
  outer loop
  vertex -0.0010499995 0.00462761894 0.00553830201
  vertex 0.00220000045 0.00462761847 0.00553830247
  vertex -0.00101054308 0.00700000022 0.00110851822
  endloop
 endfacet

 facet normal 0 0 0
  outer loop
  vertex -0.0010499995 0.00462761894 0.00553830201
  vertex -0.00101054308 0.00700000022 0.00110851822
  vertex -0.0104213851 0.0049500009 -0.00394185446
  endloop
 endfacet

 facet normal 0 0 0
  outer loop
  vertex -0.0010499995 0.00462761894 0.00553830201
  vertex -0.0104213851 0.0049500009 -0.00394185446
  vertex -0.0010499995 0.00250022975 0.00698933611
  endloop
 endfacet

 facet normal 0 0 0
  outer loop
  vertex -0.00104999961 -0.00250023347 0.00698933611
  vertex -0.0101897521 -0.00494999811 -0.00348612689
  vertex -0.00104999961 -0.00425416091 0.00587543892
  endloop
 endfacet

 facet normal 0 0 0
  outer loop
  vertex -0.00104999961 -0.00250023347 0.00698933611
  vertex -0.00104999961 -0.00425416091 0.00587543892
  vertex 0.00220000045 -0.00149619672 0.00756239938
  endloop
 endfacet

 facet normal 0 0 0
  outer loop
  vertex -0.00104999961 -0.00250023347 0.00698933611
  vertex 0.00220000045 -0.00149619672 0.00756239938
  vertex 0.00220000045 0.00149619009 0.00756239938
  endloop
 endfacet

 facet normal 0 0 0
  outer loop
  vertex -0.00104999961 -0.00250023347 0.00698933611
  vertex 0.00220000045 0.00149619009 0.00756239938
  vertex -0.0010499995 0.00250022975 0.00698933611
  endloop
 endfacet

 facet normal 0 0 0
  outer loop
  vertex 0.00216773734 0.0049500009 -0.000231364116
  vertex 0.00216773734 -0.00494999811 -0.000231364334
  vertex 0.00106038281 0.0049500009 -0.00284192408
  endloop
 endfacet

 facet normal 0 0 0
  outer loop
  vertex 0.00216773734 0.0049500009 -0.000231364116
  vertex 0.00106038281 0.0049500009 -0.00284192408
  vertex 0.000789648737 0.00700000115 -0.00127532089
  endloop
 endfacet

 facet normal 0 0 0
  outer loop
  vertex 0.00216773734 0.0049500009 -0.000231364116
  vertex 0.000789648737 0.00700000115 -0.00127532089
  vertex 0.00220000045 0.00462761847 0.00553830247
  endloop
 endfacet

endsolid AssimpScene
