solid AssimpScene
 facet normal 0 0 0
  outer loop
  vertex -0.00662565371 -0.0035140242 -0.0159999989
  vertex -0.00748444255 -0.000448423991 -0.0159999989
  vertex -0.00524887582 0.00535624195 -0.0159999989
  endloop
 endfacet

 facet normal 0 0 0
  outer loop
  vertex -0.00662565371 -0.0035140242 -0.0159999989
  vertex -0.00524887582 0.00535624195 -0.0159999989
  vertex -0.00028210532 0.00749670528 -0.0159999989
  endloop
 endfacet

 facet normal 0 0 0
  outer loop
  vertex -0.00662565371 -0.0035140242 -0.0159999989
  vertex -0.00028210532 0.00749670528 -0.0159999989
  vertex 0.00476567633 0.00579721015 -0.0159999989
  endloop
 endfacet

 facet normal 0 0 0
  outer loop
  vertex -0.00662565371 -0.0035140242 -0.0159999989
  vertex 0.00476567633 0.00579721015 -0.0159999989
  vertex 0.00746374624 0.000762088166 -0.0159999989
  endloop
 endfacet

 facet normal 0 0 0
  outer loop
  vertex -0.00662565371 -0.0035140242 -0.0159999989
  vertex 0.00746374624 0.000762088166 -0.0159999989
  vertex 0.00600653514 -0.0044912775 -0.0159999989
  endloop
 endfacet

 facet normal 0 0 0
  outer loop
  vertex -0.00662565371 -0.0035140242 -0.0159999989
  vertex 0.00600653514 -0.0044912775 -0.0159999989
  vertex 0.00158439216 -0.00732809957 -0.0159999989
  endloop
 endfacet

 facet normal 0 0 0
  outer loop
  vertex -0.00662565371 -0.0035140242 -0.0159999989
  vertex 0.00158439216 -0.00732809957 -0.0159999989
  vertex -0.00431038626 -0.00613418175 -0.0159999989
  endloop
 endfacet

 facet normal 0 0 0
  outer loop
  vertex 0.0061177141 -0.00433170097 -0.0112203052
  vertex 0.00746374624 0.000762088166 -0.0159999989
  vertex 0.00711974176 0.000866776856 -0.00808054861
  endloop
 endfacet

 facet normal 0 0 0
  outer loop
  vertex 0.00476567633 0.00579721015 -0.0159999989
  vertex -0.00028210532 0.00749670528 -0.0159999989
  vertex 0.00136419863 0.0062021208 -0.00333745917
  endloop
 endfacet

 facet normal 0 0 0
  outer loop
  vertex 0.00600653514 -0.0044912775 -0.0159999989
  vertex 0.00746374624 0.000762088166 -0.0159999989
  vertex 0.0061177141 -0.00433170097 -0.0112203052
  endloop
 endfacet

 facet normal 0 0 0
  outer loop
  vertex -0.0010301891 -0.0072390209 -0.00678194175
  vertex 0.00208209828 -0.0056327316 -0.00297690975
  vertex -0.00212783203 -0.00421392638 7.47194717e-05
  endloop
 endfacet

 facet normal 0 0 0
  outer loop
  vertex -0.0010301891 -0.0072390209 -0.00678194175
  vertex -0.00212783203 -0.00421392638 7.47194717e-05
  vertex -0.00486174412 -0.00490553817 -0.00491443556
  endloop
 endfacet

 facet normal 0 0 0
  outer loop
  vertex -0.0010301891 -0.0072390209 -0.00678194175
  vertex -0.00486174412 -0.00490553817 -0.00491443556
  vertex -0.00431038626 -0.00613418175 -0.0159999989
  endloop
 endfacet

 facet normal 0 0 0
  outer loop
  vertex -0.0010301891 -0.0072390209 -0.00678194175
  vertex -0.00431038626 -0.00613418175 -0.0159999989
  vertex 0.00158439216 -0.00732809957 -0.0159999989
  endloop
 endfacet

 facet normal 0 0 0
  outer loop
  vertex 0.000882159336 0.00316901365 0.000663637766
  vertex 0.00136419863 0.0062021208 -0.00333745917
  vertex -0.00294056162 0.00412848685 -0.000240393041
  endloop
 endfacet

 facet normal 0 0 0
  outer loop
  vertex -0.00202587666 0.00706991507 -0.00707271695
  vertex -0.00028210532 0.00749670528 -0.0159999989
  vertex -0.00524887582 0.00535624195 -0.0159999989
  endloop
 endfacet

 facet normal 0 0 0
  outer loop
  vertex -0.00202587666 0.00706991507 -0.00707271695
  vertex -0.00524887582 0.00535624195 -0.0159999989
  vertex -0.0054718079 0.00427240087 -0.00495013921
  endloop
 endfacet

 facet normal 0 0 0
  outer loop
  vertex -0.00202587666 0.00706991507 -0.00707271695
  vertex -0.0054718079 0.00427240087 -0.00495013921
  vertex -0.00294056162 0.00412848685 -0.000240393041
  endloop
 endfacet

 facet normal 0 0 0
  outer loop
  vertex -0.00202587666 0.00706991507 -0.00707271695
  vertex -0.00294056162 0.00412848685 -0.000240393041
  vertex 0.00136419863 0.0062021208 -0.00333745917
  endloop
 endfacet

 facet normal 0 0 0
  outer loop
  vertex -0.00202587666 0.00706991507 -0.00707271695
  vertex 0.00136419863 0.0062021208 -0.00333745917
  vertex -0.00028210532 0.00749670528 -0.0159999989
  endloop
 endfacet

 facet normal 0 0 0
  outer loop
  vertex 0.000894950703 -0.00272609829 0.000917675323
  vertex -0.00248345383 2.32402963e-05 0.00229907036
  vertex -0.00212783203 -0.00421392638 7.47194717e-05
  endloop
 endfacet

 facet normal 0 0 0
  outer loop
  vertex 0.000894950703 -0.00272609829 0.000917675323
  vertex -0.00212783203 -0.00421392638 7.47194717e-05
  vertex 0.00208209828 -0.0056327316 -0.00297690975
  endloop
 endfacet

 facet normal 0 0 0
  outer loop
  vertex 0.000894950703 -0.00272609829 0.000917675323
  vertex 0.00408418942 7.41703207e-06 -0.000674935349
  vertex 0.000882159336 0.00316901365 0.000663637766
  endloop
 endfacet

 facet normal 0 0 0
  outer loop
  vertex 0.000894950703 -0.00272609829 0.000917675323
  vertex 0.000882159336 0.00316901365 0.000663637766
  vertex -0.00248345383 2.32402963e-05 0.00229907036
  endloop
 endfacet

 facet normal 0 0 0
  outer loop
  vertex 0.00556819327 0.00474011479 -0.00915618986
  vertex 0.00711974176 0.000866776856 -0.00808054861
  vertex 0.00746374624 0.000762088166 -0.0159999989
  endloop
 endfacet

 facet normal 0 0 0
  outer loop
  vertex 0.00556819327 0.00474011479 -0.00915618986
  vertex 0.00746374624 0.000762088166 -0.0159999989
  vertex 0.00476567633 0.00579721015 -0.0159999989
  endloop
 endfacet

 facet normal 0 0 0
  outer loop
  vertex 0.00556819327 0.00474011479 -0.00915618986
  vertex 0.00476567633 0.00579721015 -0.0159999989
  vertex 0.00136419863 0.0062021208 -0.00333745917
  endloop
 endfacet

 facet normal 0 0 0
  outer loop
  vertex 0.00604435569 -0.0018288662 -0.00475893682
  vertex 0.00408418942 7.41703207e-06 -0.000674935349
  vertex 0.000894950703 -0.00272609829 0.000917675323
  endloop
 endfacet

 facet normal 0 0 0
  outer loop
  vertex 0.00604435569 -0.0018288662 -0.00475893682
  vertex 0.000894950703 -0.00272609829 0.000917675323
  vertex 0.00208209828 -0.0056327316 -0.00297690975
  endloop
 endfacet

 facet normal 0 0 0
  outer loop
  vertex 0.00604435569 -0.0018288662 -0.00475893682
  vertex 0.00208209828 -0.0056327316 -0.00297690975
  vertex 0.00323976506 -0.00650906051 -0.00891892519
  endloop
 endfacet

 facet normal 0 0 0
  outer loop
  vertex 0.00604435569 -0.0018288662 -0.00475893682
  vertex 0.00323976506 -0.00650906051 -0.00891892519
  vertex 0.0061177141 -0.00433170097 -0.0112203052
  endloop
 endfacet

 facet normal 0 0 0
  outer loop
  vertex 0.00604435569 -0.0018288662 -0.00475893682
  vertex 0.0061177141 -0.00433170097 -0.0112203052
  vertex 0.00711974176 0.000866776856 -0.00808054861
  endloop
 endfacet

 facet normal 0 0 0
  outer loop
  vertex 0.00604435569 -0.0018288662 -0.00475893682
  vertex 0.00711974176 0.000866776856 -0.00808054861
  vertex 0.00408418942 7.41703207e-06 -0.000674935349
  endloop
 endfacet

 facet normal 0 0 0
  outer loop
  vertex 0.00418686261 0.00350242481 -0.00283015613
  vertex 0.00408418942 7.41703207e-06 -0.000674935349
  vertex 0.00711974176 0.000866776856 -0.00808054861
  endloop
 endfacet

 facet normal 0 0 0
  outer loop
  vertex 0.00418686261 0.00350242481 -0.00283015613
  vertex 0.00711974176 0.000866776856 -0.00808054861
  vertex 0.00556819327 0.00474011479 -0.00915618986
  endloop
 endfacet

 facet normal 0 0 0
  outer loop
  vertex 0.00418686261 0.00350242481 -0.00283015613
  vertex 0.00556819327 0.00474011479 -0.00915618986
  vertex 0.00136419863 0.0062021208 -0.00333745917
  endloop
 endfacet

 facet normal 0 0 0
  outer loop
  vertex 0.00418686261 0.00350242481 -0.00283015613
  vertex 0.00136419863 0.0062021208 -0.00333745917
  vertex 0.000882159336 0.00316901365 0.000663637766
  endloop
 endfacet

 facet normal 0 0 0
  outer loop
  vertex 0.00418686261 0.00350242481 -0.00283015613
  vertex 0.000882159336 0.00316901365 0.000663637766
  vertex 0.00408418942 7.41703207e-06 -0.000674935349
  endloop
 endfacet

 facet normal 0 0 0
  outer loop
  vertex -0.00424273917 0.00132570812 0.00137810095
  vertex -0.00248345383 2.32402963e-05 0.00229907036
  vertex 0.000882159336 0.00316901365 0.000663637766
  endloop
 endfacet

 facet normal 0 0 0
  outer loop
  vertex -0.00424273917 0.00132570812 0.00137810095
  vertex 0.000882159336 0.00316901365 0.000663637766
  vertex -0.00294056162 0.00412848685 -0.000240393041
  endloop
 endfacet

 facet normal 0 0 0
  outer loop
  vertex -0.00424273917 0.00132570812 0.00137810095
  vertex -0.00294056162 0.00412848685 -0.000240393041
  vertex -0.0054718079 0.00427240087 -0.00495013921
  endloop
 endfacet

 facet normal 0 0 0
  outer loop
  vertex -0.00424273917 0.00132570812 0.00137810095
  vertex -0.0054718079 0.00427240087 -0.00495013921
  vertex -0.00585034676 -0.000383655861 -0.00066424883
  endloop
 endfacet

 facet normal 0 0 0
  outer loop
  vertex -0.00418659579 -0.00171147753 0.00120647985
  vertex -0.00585034676 -0.000383655861 -0.00066424883
  vertex -0.00486174412 -0.00490553817 -0.00491443556
  endloop
 endfacet

 facet normal 0 0 0
  outer loop
  vertex -0.00418659579 -0.00171147753 0.00120647985
  vertex -0.00486174412 -0.00490553817 -0.00491443556
  vertex -0.00212783203 -0.00421392638 7.47194717e-05
  endloop
 endfacet

 facet normal 0 0 0
  outer loop
  vertex -0.00418659579 -0.00171147753 0.00120647985
  vertex -0.00212783203 -0.00421392638 7.47194717e-05
  vertex -0.00248345383 2.32402963e-05 0.00229907036
  endloop
 endfacet

 facet normal 0 0 0
  outer loop
  vertex -0.00418659579 -0.00171147753 0.00120647985
  vertex -0.00248345383 2.32402963e-05 0.00229907036
  vertex -0.00424273917 0.00132570812 0.00137810095
  endloop
 endfacet

 facet normal 0 0 0
  outer loop
  vertex -0.00418659579 -0.00171147753 0.00120647985
  vertex -0.00424273917 0.00132570812 0.00137810095
  vertex -0.00585034676 -0.000383655861 -0.00066424883
  endloop
 endfacet

 facet normal 0 0 0
  outer loop
  vertex -0.00669054454 -0.00228489214 -0.00588481314
  vertex -0.00486174412 -0.00490553817 -0.00491443556
  vertex -0.00585034676 -0.000383655861 -0.00066424883
  endloop
 endfacet

 facet normal 0 0 0
  outer loop
  vertex -0.00699878857 0.00150497386 -0.00700797653
  vertex -0.00748444255 -0.000448423991 -0.0159999989
  vertex -0.00669054454 -0.00228489214 -0.00588481314
  endloop
 endfacet

 facet normal 0 0 0
  outer loop
  vertex -0.00699878857 0.00150497386 -0.00700797653
  vertex -0.00669054454 -0.00228489214 -0.00588481314
  vertex -0.00585034676 -0.000383655861 -0.00066424883
  endloop
 endfacet

 facet normal 0 0 0
  outer loop
  vertex -0.00699878857 0.00150497386 -0.00700797653
  vertex -0.00585034676 -0.000383655861 -0.00066424883
  vertex -0.0054718079 0.00427240087 -0.00495013921
  endloop
 endfacet

 facet normal 0 0 0
  outer loop
  vertex -0.00699878857 0.00150497386 -0.00700797653
  vertex -0.0054718079 0.00427240087 -0.00495013921
  vertex -0.00524887582 0.00535624195 -0.0159999989
  endloop
 endfacet

 facet normal 0 0 0
  outer loop
  vertex -0.00699878857 0.00150497386 -0.00700797653
  vertex -0.00524887582 0.00535624195 -0.0159999989
  vertex -0.00748444255 -0.000448423991 -0.0159999989
  endloop
 endfacet

 facet normal 0 0 0
  outer loop
  vertex 0.00323976506 -0.00650906051 -0.00891892519
  vertex 0.00158439216 -0.00732809957 -0.0159999989
  vertex 0.00600653514 -0.0044912775 -0.0159999989
  endloop
 endfacet

 facet normal 0 0 0
  outer loop
  vertex 0.00323976506 -0.00650906051 -0.00891892519
  vertex 0.00600653514 -0.0044912775 -0.0159999989
  vertex 0.0061177141 -0.00433170097 -0.0112203052
  endloop
 endfacet

 facet normal 0 0 0
  outer loop
  vertex 0.00323976506 -0.00650906051 -0.00891892519
  vertex 0.00208209828 -0.0056327316 -0.00297690975
  vertex -0.0010301891 -0.0072390209 -0.00678194175
  endloop
 endfacet

 facet normal 0 0 0
  outer loop
  vertex 0.00323976506 -0.00650906051 -0.00891892519
  vertex -0.0010301891 -0.0072390209 -0.00678194175
  vertex 0.00158439216 -0.00732809957 -0.0159999989
  endloop
 endfacet

 facet normal 0 0 0
  outer loop
  vertex -0.00662565371 -0.0035140242 -0.0159999989
  vertex -0.00431038626 -0.00613418175 -0.0159999989
  vertex -0.00486174412 -0.00490553817 -0.00491443556
  endloop
 endfacet

 facet normal 0 0 0
  outer loop
  vertex -0.00662565371 -0.0035140242 -0.0159999989
  vertex -0.00486174412 -0.00490553817 -0.00491443556
  vertex -0.00669054454 -0.00228489214 -0.00588481314
  endloop
 endfacet

 facet normal 0 0 0
  outer loop
  vertex -0.00662565371 -0.0035140242 -0.0159999989
  vertex -0.00669054454 -0.00228489214 -0.00588481314
  vertex -0.00748444255 -0.000448423991 -0.0159999989
  endloop
 endfacet

endsolid AssimpScene
