solid AssimpScene
 facet normal 0 0 0
  outer loop
  vertex 0.00594354235 0.00290931226 0.0106999995
  vertex 0.00346975983 0.00618512928 0.0106999995
  vertex -0.00174201292 0.00766800623 0.0106999995
  endloop
 endfacet

 facet normal 0 0 0
  outer loop
  vertex 0.00594354235 0.00290931226 0.0106999995
  vertex -0.00174201292 0.00766800623 0.0106999995
  vertex -0.00659256754 0.00525271753 0.0106999995
  endloop
 endfacet

 facet normal 0 0 0
  outer loop
  vertex 0.00594354235 0.00290931226 0.0106999995
  vertex -0.00659256754 0.00525271753 0.0106999995
  vertex -0.00854999945 0.000199999849 0.0106999995
  endloop
 endfacet

 facet normal 0 0 0
  outer loop
  vertex 0.00594354235 0.00290931226 0.0106999995
  vertex -0.00854999945 0.000199999849 0.0106999995
  vertex -0.00659256754 -0.00485271681 0.0106999995
  endloop
 endfacet

 facet normal 0 0 0
  outer loop
  vertex 0.00594354235 0.00290931226 0.0106999995
  vertex -0.00659256754 -0.00485271681 0.0106999995
  vertex -0.00310247252 -0.00701369205 0.0106999995
  endloop
 endfacet

 facet normal 0 0 0
  outer loop
  vertex 0.00594354235 0.00290931226 0.0106999995
  vertex -0.00310247252 -0.00701369205 0.0106999995
  vertex -0.000357987155 -0.00726800645 0.0106999995
  endloop
 endfacet

 facet normal 0 0 0
  outer loop
  vertex 0.00594354235 0.00290931226 0.0106999995
  vertex -0.000357987155 -0.00726800645 0.0106999995
  vertex 0.00449256739 -0.00485271681 0.0106999995
  endloop
 endfacet

 facet normal 0 0 0
  outer loop
  vertex 0.00594354235 0.00290931226 0.0106999995
  vertex 0.00449256739 -0.00485271681 0.0106999995
  vertex 0.00645000022 0.000200000126 0.0106999995
  endloop
 endfacet

 facet normal 0 0 0
  outer loop
  vertex 0.0034697603 -0.00578512903 -0.00142241549
  vertex 0.00336764706 0.00626089051 -0.00164968229
  vertex 0.00565141812 0.00356763951 0.00768779311
  endloop
 endfacet

 facet normal 0 0 0
  outer loop
  vertex 0.0034697603 -0.00578512903 -0.00142241549
  vertex 0.00565141812 0.00356763951 0.00768779311
  vertex 0.00645000022 0.000200000126 0.0106999995
  endloop
 endfacet

 facet normal 0 0 0
  outer loop
  vertex -0.00610271795 0.00574256713 0.00421406422
  vertex -0.00610271795 -0.00534256687 0.00421406422
  vertex -0.00854999945 0.000199999849 0.0106999995
  endloop
 endfacet

 facet normal 0 0 0
  outer loop
  vertex -0.00659256754 -0.00485271681 0.0106999995
  vertex -0.00854999945 0.000199999849 0.0106999995
  vertex -0.00610271795 -0.00534256687 0.00421406422
  endloop
 endfacet

 facet normal 0 0 0
  outer loop
  vertex 0.00449256739 -0.00485271681 0.0106999995
  vertex 0.0034697603 -0.00578512903 -0.00142241549
  vertex 0.00645000022 0.000200000126 0.0106999995
  endloop
 endfacet

 facet normal 0 0 0
  outer loop
  vertex -0.00659256754 0.00525271753 0.0106999995
  vertex -0.00610271795 0.00574256713 0.00421406422
  vertex -0.00854999945 0.000199999849 0.0106999995
  endloop
 endfacet

 facet normal 0 0 0
  outer loop
  vertex -0.00310247252 -0.00701369252 -0.00210645702
  vertex -0.00310247275 0.00741369231 -0.00210645702
  vertex -0.000503125309 0.0076800352 -0.00371609535
  endloop
 endfacet

 facet normal 0 0 0
  outer loop
  vertex -0.00310247252 -0.00701369252 -0.00210645702
  vertex -0.000503125309 0.0076800352 -0.00371609535
  vertex -0.000357987155 -0.00726800645 -0.00373287429
  endloop
 endfacet

 facet normal 0 0 0
  outer loop
  vertex -0.00310247275 0.00741369231 -0.00210645702
  vertex -0.00310247252 -0.00701369252 -0.00210645702
  vertex -0.00610271795 -0.00534256687 0.00421406422
  endloop
 endfacet

 facet normal 0 0 0
  outer loop
  vertex -0.00310247275 0.00741369231 -0.00210645702
  vertex -0.00610271795 -0.00534256687 0.00421406422
  vertex -0.00610271795 0.00574256713 0.00421406422
  endloop
 endfacet

 facet normal 0 0 0
  outer loop
  vertex -0.00310247275 0.00741369231 -0.00210645702
  vertex -0.00610271795 0.00574256713 0.00421406422
  vertex -0.00659256754 0.00525271753 0.0106999995
  endloop
 endfacet

 facet normal 0 0 0
  outer loop
  vertex -0.00310247275 0.00741369231 -0.00210645702
  vertex -0.00659256754 0.00525271753 0.0106999995
  vertex -0.00174201292 0.00766800623 0.0106999995
  endloop
 endfacet

 facet normal 0 0 0
  outer loop
  vertex -0.00310247275 0.00741369231 -0.00210645702
  vertex -0.00174201292 0.00766800623 0.0106999995
  vertex -0.000503125309 0.0076800352 -0.00371609535
  endloop
 endfacet

 facet normal 0 0 0
  outer loop
  vertex 0.00565141812 0.00356763951 0.00768779311
  vertex 0.00336764706 0.00626089051 -0.00164968229
  vertex 0.00346975983 0.00618512928 0.0106999995
  endloop
 endfacet

 facet normal 0 0 0
  outer loop
  vertex -0.00310247252 -0.00701369205 0.0106999995
  vertex -0.00659256754 -0.00485271681 0.0106999995
  vertex -0.00610271795 -0.00534256687 0.00421406422
  endloop
 endfacet

 facet normal 0 0 0
  outer loop
  vertex -0.00310247252 -0.00701369205 0.0106999995
  vertex -0.00610271795 -0.00534256687 0.00421406422
  vertex -0.00310247252 -0.00701369252 -0.00210645702
  endloop
 endfacet

 facet normal 0 0 0
  outer loop
  vertex -0.00310247252 -0.00701369205 0.0106999995
  vertex -0.00310247252 -0.00701369252 -0.00210645702
  vertex -0.000357987155 -0.00726800645 -0.00373287429
  endloop
 endfacet

 facet normal 0 0 0
  outer loop
  vertex -0.00310247252 -0.00701369205 0.0106999995
  vertex -0.000357987155 -0.00726800645 -0.00373287429
  vertex -0.000357987155 -0.00726800645 0.0106999995
  endloop
 endfacet

 facet normal 0 0 0
  outer loop
  vertex 0.00176810904 -0.00675041461 -0.00330700632
  vertex 0.0034697603 -0.00578512903 -0.00142241549
  vertex 0.00449256739 -0.00485271681 0.0106999995
  endloop
 endfacet

 facet normal 0 0 0
  outer loop
  vertex 0.00176810904 -0.00675041461 -0.00330700632
  vertex 0.00449256739 -0.00485271681 0.0106999995
  vertex -0.000357987155 -0.00726800645 0.0106999995
  endloop
 endfacet

 facet normal 0 0 0
  outer loop
  vertex 0.00176810904 -0.00675041461 -0.00330700632
  vertex -0.000357987155 -0.00726800645 0.0106999995
  vertex -0.000357987155 -0.00726800645 -0.00373287429
  endloop
 endfacet

 facet normal 0 0 0
  outer loop
  vertex 0.00594354235 0.00290931226 0.0106999995
  vertex 0.00645000022 0.000200000126 0.0106999995
  vertex 0.00565141812 0.00356763951 0.00768779311
  endloop
 endfacet

 facet normal 0 0 0
  outer loop
  vertex 0.00594354235 0.00290931226 0.0106999995
  vertex 0.00565141812 0.00356763951 0.00768779311
  vertex 0.00346975983 0.00618512928 0.0106999995
  endloop
 endfacet

 facet normal 0 0 0
  outer loop
  vertex 0.00177007762 0.00714961579 -0.00330595206
  vertex 0.00336764706 0.00626089051 -0.00164968229
  vertex 0.0034697603 -0.00578512903 -0.00142241549
  endloop
 endfacet

 facet normal 0 0 0
  outer loop
  vertex 0.00177007762 0.00714961579 -0.00330595206
  vertex 0.0034697603 -0.00578512903 -0.00142241549
  vertex 0.00176810904 -0.00675041461 -0.00330700632
  endloop
 endfacet

 facet normal 0 0 0
  outer loop
  vertex 0.00177007762 0.00714961579 -0.00330595206
  vertex 0.00176810904 -0.00675041461 -0.00330700632
  vertex -0.000357987155 -0.00726800645 -0.00373287429
  endloop
 endfacet

 facet normal 0 0 0
  outer loop
  vertex 0.00177007762 0.00714961579 -0.00330595206
  vertex -0.000357987155 -0.00726800645 -0.00373287429
  vertex -0.000503125309 0.0076800352 -0.00371609535
  endloop
 endfacet

 facet normal 0 0 0
  outer loop
  vertex 0.00177007762 0.00714961579 -0.00330595206
  vertex -0.000503125309 0.0076800352 -0.00371609535
  vertex -0.00174201292 0.00766800623 0.0106999995
  endloop
 endfacet

 facet normal 0 0 0
  outer loop
  vertex 0.00177007762 0.00714961579 -0.00330595206
  vertex -0.00174201292 0.00766800623 0.0106999995
  vertex 0.00346975983 0.00618512928 0.0106999995
  endloop
 endfacet

 facet normal 0 0 0
  outer loop
  vertex 0.00177007762 0.00714961579 -0.00330595206
  vertex 0.00346975983 0.00618512928 0.0106999995
  vertex 0.00336764706 0.00626089051 -0.00164968229
  endloop
 endfacet

endsolid AssimpScene
