solid AssimpScene
 facet normal 0 0 0
  outer loop
  vertex 0.00196872512 -0.00494999764 -0.00116736139
  vertex 0.00220000045 0.00462761894 0.00553830201
  vertex 0.00220000045 0.00149619067 0.00756239891
  endloop
 endfacet

 facet normal 0 0 0
  outer loop
  vertex 0.00196872512 -0.00494999764 -0.00116736139
  vertex 0.00220000045 0.00149619067 0.00756239891
  vertex 0.00220000045 -0.00149619626 0.00756239891
  endloop
 endfacet

 facet normal 0 0 0
  outer loop
  vertex 0.00196872512 -0.00494999764 -0.00116736139
  vertex 0.00220000045 -0.00149619626 0.00756239891
  vertex 0.00220000045 -0.00486760633 0.00509950984
  endloop
 endfacet

 facet normal 0 0 0
  outer loop
  vertex 0.00196872512 -0.00494999764 -0.00116736139
  vertex -0.00128866476 -0.00494999764 -0.00443039276
  vertex 7.85806769e-05 0.00326491264 -0.0037525706
  endloop
 endfacet

 facet normal 0 0 0
  outer loop
  vertex -0.00104999961 -0.00425416091 0.00587543938
  vertex -0.0101897512 -0.00494999764 -0.00348612689
  vertex 4.73516559e-10 -0.00699999835 0.00150000479
  endloop
 endfacet

 facet normal 0 0 0
  outer loop
  vertex -0.00871188194 0.00495000137 -0.00585808512
  vertex -0.00128866488 0.00495000137 -0.00443039322
  vertex -0.00128866476 -0.00494999764 -0.00443039276
  endloop
 endfacet

 facet normal 0 0 0
  outer loop
  vertex -0.00871188194 0.00495000137 -0.00585808512
  vertex -0.00128866476 -0.00494999764 -0.00443039276
  vertex -0.00922304951 -0.00494999764 -0.0058651669
  endloop
 endfacet

 facet normal 0 0 0
  outer loop
  vertex -0.00871188194 0.00495000137 -0.00585808512
  vertex -0.00922304951 -0.00494999764 -0.0058651669
  vertex -0.0101072574 0.00295000104 -0.00538227009
  endloop
 endfacet

 facet normal 0 0 0
  outer loop
  vertex 0.00144273893 0.00700000115 -0.000410489767
  vertex 3.72701175e-10 0.00700000115 0.0015000049
  vertex 0.00220000045 0.00462761894 0.00553830201
  endloop
 endfacet

 facet normal 0 0 0
  outer loop
  vertex 0.00119702634 -0.00699999835 -0.00090394693
  vertex -0.00128866476 -0.00494999764 -0.00443039276
  vertex 0.00196872512 -0.00494999764 -0.00116736139
  endloop
 endfacet

 facet normal 0 0 0
  outer loop
  vertex 0.00119702634 -0.00699999835 -0.00090394693
  vertex -0.00922304951 -0.00494999764 -0.0058651669
  vertex -0.00128866476 -0.00494999764 -0.00443039276
  endloop
 endfacet

 facet normal 0 0 0
  outer loop
  vertex 0.00220000045 -0.00486760633 0.00509950984
  vertex 4.73516559e-10 -0.00699999835 0.00150000479
  vertex 0.00119702634 -0.00699999835 -0.00090394693
  endloop
 endfacet

 facet normal 0 0 0
  outer loop
  vertex 0.00220000045 -0.00486760633 0.00509950984
  vertex 0.00119702634 -0.00699999835 -0.00090394693
  vertex 0.00196872512 -0.00494999764 -0.00116736139
  endloop
 endfacet

 facet normal 0 0 0
  outer loop
  vertex 0.00220000045 -0.00486760633 0.00509950984
  vertex 0.00220000045 -0.00149619626 0.00756239891
  vertex -0.00104999961 -0.00425416091 0.00587543938
  endloop
 endfacet

 facet normal 0 0 0
  outer loop
  vertex 0.00220000045 -0.00486760633 0.00509950984
  vertex -0.00104999961 -0.00425416091 0.00587543938
  vertex 4.73516559e-10 -0.00699999835 0.00150000479
  endloop
 endfacet

 facet normal 0 0 0
  outer loop
  vertex -0.00128866488 0.00495000137 -0.00443039322
  vertex -0.00871188194 0.00495000137 -0.00585808512
  vertex 0.00144273893 0.00700000115 -0.000410489767
  endloop
 endfacet

 facet normal 0 0 0
  outer loop
  vertex -0.00128866488 0.00495000137 -0.00443039322
  vertex 7.85806769e-05 0.00326491264 -0.0037525706
  vertex -0.00128866476 -0.00494999764 -0.00443039276
  endloop
 endfacet

 facet normal 0 0 0
  outer loop
  vertex 0.00220000045 0.00149619067 0.00756239891
  vertex 0.00220000045 0.00462761894 0.00553830201
  vertex -0.0010499995 0.00462761894 0.00553830201
  endloop
 endfacet

 facet normal 0 0 0
  outer loop
  vertex 0.00220000045 0.00149619067 0.00756239891
  vertex -0.0010499995 0.00462761894 0.00553830201
  vertex -0.0010499995 0.00250023021 0.00698933657
  endloop
 endfacet

 facet normal 0 0 0
  outer loop
  vertex -0.0103775952 0.00495000137 -0.0049483818
  vertex -0.0101897512 0.00495000137 -0.00348612736
  vertex 3.72701175e-10 0.00700000115 0.0015000049
  endloop
 endfacet

 facet normal 0 0 0
  outer loop
  vertex -0.0103775952 0.00495000137 -0.0049483818
  vertex 3.72701175e-10 0.00700000115 0.0015000049
  vertex 0.00144273893 0.00700000115 -0.000410489767
  endloop
 endfacet

 facet normal 0 0 0
  outer loop
  vertex -0.0103775952 0.00495000137 -0.0049483818
  vertex 0.00144273893 0.00700000115 -0.000410489767
  vertex -0.00871188194 0.00495000137 -0.00585808512
  endloop
 endfacet

 facet normal 0 0 0
  outer loop
  vertex -0.0103775952 0.00495000137 -0.0049483818
  vertex -0.00871188194 0.00495000137 -0.00585808512
  vertex -0.0101072574 0.00295000104 -0.00538227009
  endloop
 endfacet

 facet normal 0 0 0
  outer loop
  vertex -0.0010499995 0.00462761894 0.00553830201
  vertex 3.72701175e-10 0.00700000115 0.0015000049
  vertex -0.0101897512 0.00495000137 -0.00348612736
  endloop
 endfacet

 facet normal 0 0 0
  outer loop
  vertex -0.0010499995 0.00462761894 0.00553830201
  vertex -0.0101897512 0.00495000137 -0.00348612736
  vertex -0.0010499995 0.00250023021 0.00698933657
  endloop
 endfacet

 facet normal 0 0 0
  outer loop
  vertex -0.0010499995 0.00462761894 0.00553830201
  vertex 0.00220000045 0.00462761894 0.00553830201
  vertex 3.72701175e-10 0.00700000115 0.0015000049
  endloop
 endfacet

 facet normal 0 0 0
  outer loop
  vertex -0.00104999961 -0.00250023301 0.00698933564
  vertex -0.0010499995 0.00250023021 0.00698933657
  vertex -0.0101897512 0.00495000137 -0.00348612736
  endloop
 endfacet

 facet normal 0 0 0
  outer loop
  vertex -0.00104999961 -0.00250023301 0.00698933564
  vertex -0.0101897512 0.00495000137 -0.00348612736
  vertex -0.0101897512 -0.00494999764 -0.00348612689
  endloop
 endfacet

 facet normal 0 0 0
  outer loop
  vertex -0.00104999961 -0.00250023301 0.00698933564
  vertex -0.0101897512 -0.00494999764 -0.00348612689
  vertex -0.00104999961 -0.00425416091 0.00587543938
  endloop
 endfacet

 facet normal 0 0 0
  outer loop
  vertex -0.00104999961 -0.00250023301 0.00698933564
  vertex -0.00104999961 -0.00425416091 0.00587543938
  vertex 0.00220000045 -0.00149619626 0.00756239891
  endloop
 endfacet

 facet normal 0 0 0
  outer loop
  vertex -0.00104999961 -0.00250023301 0.00698933564
  vertex 0.00220000045 -0.00149619626 0.00756239891
  vertex 0.00220000045 0.00149619067 0.00756239891
  endloop
 endfacet

 facet normal 0 0 0
  outer loop
  vertex -0.00104999961 -0.00250023301 0.00698933564
  vertex 0.00220000045 0.00149619067 0.00756239891
  vertex -0.0010499995 0.00250023021 0.00698933657
  endloop
 endfacet

 facet normal 0 0 0
  outer loop
  vertex -0.0103775952 -0.00494999764 -0.00494838087
  vertex -0.0101072574 0.00295000104 -0.00538227009
  vertex -0.00922304951 -0.00494999764 -0.0058651669
  endloop
 endfacet

 facet normal 0 0 0
  outer loop
  vertex -0.0103775952 -0.00494999764 -0.00494838087
  vertex -0.00922304951 -0.00494999764 -0.0058651669
  vertex 0.00119702634 -0.00699999835 -0.00090394693
  endloop
 endfacet

 facet normal 0 0 0
  outer loop
  vertex -0.0103775952 -0.00494999764 -0.00494838087
  vertex 0.00119702634 -0.00699999835 -0.00090394693
  vertex 4.73516559e-10 -0.00699999835 0.00150000479
  endloop
 endfacet

 facet normal 0 0 0
  outer loop
  vertex -0.0103775952 -0.00494999764 -0.00494838087
  vertex 4.73516559e-10 -0.00699999835 0.00150000479
  vertex -0.0101897512 -0.00494999764 -0.00348612689
  endloop
 endfacet

 facet normal 0 0 0
  outer loop
  vertex -0.0103775952 -0.00494999764 -0.00494838087
  vertex -0.0101897512 -0.00494999764 -0.00348612689
  vertex -0.0101897512 0.00495000137 -0.00348612736
  endloop
 endfacet

 facet normal 0 0 0
  outer loop
  vertex -0.0103775952 -0.00494999764 -0.00494838087
  vertex -0.0101897512 0.00495000137 -0.00348612736
  vertex -0.0103775952 0.00495000137 -0.0049483818
  endloop
 endfacet

 facet normal 0 0 0
  outer loop
  vertex -0.0103775952 -0.00494999764 -0.00494838087
  vertex -0.0103775952 0.00495000137 -0.0049483818
  vertex -0.0101072574 0.00295000104 -0.00538227009
  endloop
 endfacet

 facet normal 0 0 0
  outer loop
  vertex 0.00159504451 0.00495000137 -0.00204830384
  vertex 7.85806769e-05 0.00326491264 -0.0037525706
  vertex -0.00128866488 0.00495000137 -0.00443039322
  endloop
 endfacet

 facet normal 0 0 0
  outer loop
  vertex 0.00159504451 0.00495000137 -0.00204830384
  vertex -0.00128866488 0.00495000137 -0.00443039322
  vertex 0.00144273893 0.00700000115 -0.000410489767
  endloop
 endfacet

 facet normal 0 0 0
  outer loop
  vertex 0.00159504451 0.00495000137 -0.00204830384
  vertex 0.00144273893 0.00700000115 -0.000410489767
  vertex 0.00220000045 0.00462761894 0.00553830201
  endloop
 endfacet

 facet normal 0 0 0
  outer loop
  vertex 0.00159504451 0.00495000137 -0.00204830384
  vertex 0.00220000045 0.00462761894 0.00553830201
  vertex 0.00196872512 -0.00494999764 -0.00116736139
  endloop
 endfacet

 facet normal 0 0 0
  outer loop
  vertex 0.00159504451 0.00495000137 -0.00204830384
  vertex 0.00196872512 -0.00494999764 -0.00116736139
  vertex 7.85806769e-05 0.00326491264 -0.0037525706
  endloop
 endfacet

endsolid AssimpScene
