solid AssimpScene
 facet normal 0 0 0
  outer loop
  vertex 0.00345560815 -0.00664315466 -0.0140000004
  vertex -0.0020069438 -0.00723463902 -0.0140000004
  vertex -0.00672073942 -0.00326640182 -0.0140000004
  endloop
 endfacet

 facet normal 0 0 0
  outer loop
  vertex 0.00345560815 -0.00664315466 -0.0140000004
  vertex -0.00672073942 -0.00326640182 -0.0140000004
  vertex -0.0069509116 0.0028253179 -0.0140000004
  endloop
 endfacet

 facet normal 0 0 0
  outer loop
  vertex 0.00345560815 -0.00664315466 -0.0140000004
  vertex -0.0069509116 0.0028253179 -0.0140000004
  vertex -0.00282530952 0.00692530489 -0.0140000004
  endloop
 endfacet

 facet normal 0 0 0
  outer loop
  vertex 0.00345560815 -0.00664315466 -0.0140000004
  vertex -0.00282530952 0.00692530489 -0.0140000004
  vertex 0.00285711698 0.00694210036 -0.0140000004
  endloop
 endfacet

 facet normal 0 0 0
  outer loop
  vertex 0.00345560815 -0.00664315466 -0.0140000004
  vertex 0.00285711698 0.00694210036 -0.0140000004
  vertex 0.00669940514 0.00337411929 -0.0140000004
  endloop
 endfacet

 facet normal 0 0 0
  outer loop
  vertex 0.00345560815 -0.00664315466 -0.0140000004
  vertex 0.00669940514 0.00337411929 -0.0140000004
  vertex 0.00705794943 -0.00256977486 -0.0140000004
  endloop
 endfacet

 facet normal 0 0 0
  outer loop
  vertex 0.00669940514 0.00337411929 -0.0140000004
  vertex 0.00285711698 0.00694210036 -0.0140000004
  vertex 0.00516186887 0.00472812401 -0.00321734138
  endloop
 endfacet

 facet normal 0 0 0
  outer loop
  vertex 0.00345560815 -0.00664315466 -0.0140000004
  vertex 0.0004822677 -0.00705657247 -0.00357472594
  vertex -0.0020069438 -0.00723463902 -0.0140000004
  endloop
 endfacet

 facet normal 0 0 0
  outer loop
  vertex 0.00174045307 0.00713606179 -0.00378562231
  vertex -0.00276169693 0.00662329094 -0.00214482984
  vertex 0.000883664296 0.00526864314 0.000128393513
  endloop
 endfacet

 facet normal 0 0 0
  outer loop
  vertex 0.00174045307 0.00713606179 -0.00378562231
  vertex 0.000883664296 0.00526864314 0.000128393513
  vertex 0.00516186887 0.00472812401 -0.00321734138
  endloop
 endfacet

 facet normal 0 0 0
  outer loop
  vertex 0.00174045307 0.00713606179 -0.00378562231
  vertex 0.00516186887 0.00472812401 -0.00321734138
  vertex 0.00285711698 0.00694210036 -0.0140000004
  endloop
 endfacet

 facet normal 0 0 0
  outer loop
  vertex 0.00174045307 0.00713606179 -0.00378562231
  vertex 0.00285711698 0.00694210036 -0.0140000004
  vertex -0.00282530952 0.00692530489 -0.0140000004
  endloop
 endfacet

 facet normal 0 0 0
  outer loop
  vertex 0.00174045307 0.00713606179 -0.00378562231
  vertex -0.00282530952 0.00692530489 -0.0140000004
  vertex -0.00276169693 0.00662329094 -0.00214482984
  endloop
 endfacet

 facet normal 0 0 0
  outer loop
  vertex 0.00587662496 0.000623071683 -0.00182153075
  vertex 0.00327245938 -0.003378405 -0.000668553053
  vertex 0.00698798895 -0.00246624765 -0.00523774279
  endloop
 endfacet

 facet normal 0 0 0
  outer loop
  vertex -0.00325518847 -0.00664916774 -0.00450451346
  vertex -0.0020069438 -0.00723463902 -0.0140000004
  vertex 0.0004822677 -0.00705657247 -0.00357472594
  endloop
 endfacet

 facet normal 0 0 0
  outer loop
  vertex -0.00325518847 -0.00664916774 -0.00450451346
  vertex 0.0004822677 -0.00705657247 -0.00357472594
  vertex -0.00348531851 -0.00402328745 0.000134789283
  endloop
 endfacet

 facet normal 0 0 0
  outer loop
  vertex -0.00325518847 -0.00664916774 -0.00450451346
  vertex -0.00348531851 -0.00402328745 0.000134789283
  vertex -0.00657835463 -0.00310452236 -0.002578574
  endloop
 endfacet

 facet normal 0 0 0
  outer loop
  vertex -0.00325518847 -0.00664916774 -0.00450451346
  vertex -0.00657835463 -0.00310452236 -0.002578574
  vertex -0.00672073942 -0.00326640182 -0.0140000004
  endloop
 endfacet

 facet normal 0 0 0
  outer loop
  vertex -0.00325518847 -0.00664916774 -0.00450451346
  vertex -0.00672073942 -0.00326640182 -0.0140000004
  vertex -0.0020069438 -0.00723463902 -0.0140000004
  endloop
 endfacet

 facet normal 0 0 0
  outer loop
  vertex 0.00433613593 -0.00603140518 -0.00533851702
  vertex 0.0004822677 -0.00705657247 -0.00357472594
  vertex 0.00345560815 -0.00664315466 -0.0140000004
  endloop
 endfacet

 facet normal 0 0 0
  outer loop
  vertex 0.00433613593 -0.00603140518 -0.00533851702
  vertex 0.00345560815 -0.00664315466 -0.0140000004
  vertex 0.00705794943 -0.00256977486 -0.0140000004
  endloop
 endfacet

 facet normal 0 0 0
  outer loop
  vertex 0.00433613593 -0.00603140518 -0.00533851702
  vertex 0.00705794943 -0.00256977486 -0.0140000004
  vertex 0.00698798895 -0.00246624765 -0.00523774279
  endloop
 endfacet

 facet normal 0 0 0
  outer loop
  vertex 0.00433613593 -0.00603140518 -0.00533851702
  vertex 0.00698798895 -0.00246624765 -0.00523774279
  vertex 0.00327245938 -0.003378405 -0.000668553053
  endloop
 endfacet

 facet normal 0 0 0
  outer loop
  vertex 0.00433613593 -0.00603140518 -0.00533851702
  vertex 0.00327245938 -0.003378405 -0.000668553053
  vertex 2.73565092e-05 -0.00513733458 -0.000590247451
  endloop
 endfacet

 facet normal 0 0 0
  outer loop
  vertex 0.00433613593 -0.00603140518 -0.00533851702
  vertex 2.73565092e-05 -0.00513733458 -0.000590247451
  vertex 0.0004822677 -0.00705657247 -0.00357472594
  endloop
 endfacet

 facet normal 0 0 0
  outer loop
  vertex -0.00738963997 0.00054535747 -0.00400674716
  vertex -0.0069509116 0.0028253179 -0.0140000004
  vertex -0.00672073942 -0.00326640182 -0.0140000004
  endloop
 endfacet

 facet normal 0 0 0
  outer loop
  vertex -0.00738963997 0.00054535747 -0.00400674716
  vertex -0.00672073942 -0.00326640182 -0.0140000004
  vertex -0.00657835463 -0.00310452236 -0.002578574
  endloop
 endfacet

 facet normal 0 0 0
  outer loop
  vertex -0.0023023719 0.00484973053 0.000642057974
  vertex -0.00558799924 0.00191479258 -2.74688027e-05
  vertex -0.00142475229 0.000682846585 0.00183502329
  endloop
 endfacet

 facet normal 0 0 0
  outer loop
  vertex -0.0023023719 0.00484973053 0.000642057974
  vertex -0.00142475229 0.000682846585 0.00183502329
  vertex 0.000883664296 0.00526864314 0.000128393513
  endloop
 endfacet

 facet normal 0 0 0
  outer loop
  vertex -0.0023023719 0.00484973053 0.000642057974
  vertex 0.000883664296 0.00526864314 0.000128393513
  vertex -0.00276169693 0.00662329094 -0.00214482984
  endloop
 endfacet

 facet normal 0 0 0
  outer loop
  vertex 0.00724490127 0.00153729494 -0.00510569522
  vertex 0.00698798895 -0.00246624765 -0.00523774279
  vertex 0.00705794943 -0.00256977486 -0.0140000004
  endloop
 endfacet

 facet normal 0 0 0
  outer loop
  vertex 0.00724490127 0.00153729494 -0.00510569522
  vertex 0.00705794943 -0.00256977486 -0.0140000004
  vertex 0.00669940514 0.00337411929 -0.0140000004
  endloop
 endfacet

 facet normal 0 0 0
  outer loop
  vertex 0.00724490127 0.00153729494 -0.00510569522
  vertex 0.00669940514 0.00337411929 -0.0140000004
  vertex 0.00516186887 0.00472812401 -0.00321734138
  endloop
 endfacet

 facet normal 0 0 0
  outer loop
  vertex 0.00724490127 0.00153729494 -0.00510569522
  vertex 0.00516186887 0.00472812401 -0.00321734138
  vertex 0.00587662496 0.000623071683 -0.00182153075
  endloop
 endfacet

 facet normal 0 0 0
  outer loop
  vertex 0.00724490127 0.00153729494 -0.00510569522
  vertex 0.00587662496 0.000623071683 -0.00182153075
  vertex 0.00698798895 -0.00246624765 -0.00523774279
  endloop
 endfacet

 facet normal 0 0 0
  outer loop
  vertex -0.00565536739 0.00469796732 -0.00380703341
  vertex -0.0069509116 0.0028253179 -0.0140000004
  vertex -0.00738963997 0.00054535747 -0.00400674716
  endloop
 endfacet

 facet normal 0 0 0
  outer loop
  vertex -0.00565536739 0.00469796732 -0.00380703341
  vertex -0.00738963997 0.00054535747 -0.00400674716
  vertex -0.00558799924 0.00191479258 -2.74688027e-05
  endloop
 endfacet

 facet normal 0 0 0
  outer loop
  vertex -0.00565536739 0.00469796732 -0.00380703341
  vertex -0.00558799924 0.00191479258 -2.74688027e-05
  vertex -0.0023023719 0.00484973053 0.000642057974
  endloop
 endfacet

 facet normal 0 0 0
  outer loop
  vertex -0.00565536739 0.00469796732 -0.00380703341
  vertex -0.0023023719 0.00484973053 0.000642057974
  vertex -0.00276169693 0.00662329094 -0.00214482984
  endloop
 endfacet

 facet normal 0 0 0
  outer loop
  vertex -0.00565536739 0.00469796732 -0.00380703341
  vertex -0.00276169693 0.00662329094 -0.00214482984
  vertex -0.00282530952 0.00692530489 -0.0140000004
  endloop
 endfacet

 facet normal 0 0 0
  outer loop
  vertex -0.00565536739 0.00469796732 -0.00380703341
  vertex -0.00282530952 0.00692530489 -0.0140000004
  vertex -0.0069509116 0.0028253179 -0.0140000004
  endloop
 endfacet

 facet normal 0 0 0
  outer loop
  vertex -0.00580405444 -0.00157497765 2.96501785e-05
  vertex -0.00657835463 -0.00310452236 -0.002578574
  vertex -0.00348531851 -0.00402328745 0.000134789283
  endloop
 endfacet

 facet normal 0 0 0
  outer loop
  vertex -0.00580405444 -0.00157497765 2.96501785e-05
  vertex -0.00348531851 -0.00402328745 0.000134789283
  vertex -0.00142475229 0.000682846585 0.00183502329
  endloop
 endfacet

 facet normal 0 0 0
  outer loop
  vertex -0.00580405444 -0.00157497765 2.96501785e-05
  vertex -0.00142475229 0.000682846585 0.00183502329
  vertex -0.00558799924 0.00191479258 -2.74688027e-05
  endloop
 endfacet

 facet normal 0 0 0
  outer loop
  vertex -0.00580405444 -0.00157497765 2.96501785e-05
  vertex -0.00558799924 0.00191479258 -2.74688027e-05
  vertex -0.00738963997 0.00054535747 -0.00400674716
  endloop
 endfacet

 facet normal 0 0 0
  outer loop
  vertex -0.00580405444 -0.00157497765 2.96501785e-05
  vertex -0.00738963997 0.00054535747 -0.00400674716
  vertex -0.00657835463 -0.00310452236 -0.002578574
  endloop
 endfacet

 facet normal 0 0 0
  outer loop
  vertex 0.0021544958 0.00185423181 0.000844311435
  vertex -0.00142475229 0.000682846585 0.00183502329
  vertex 0.00327245938 -0.003378405 -0.000668553053
  endloop
 endfacet

 facet normal 0 0 0
  outer loop
  vertex 0.0021544958 0.00185423181 0.000844311435
  vertex 0.00327245938 -0.003378405 -0.000668553053
  vertex 0.00587662496 0.000623071683 -0.00182153075
  endloop
 endfacet

 facet normal 0 0 0
  outer loop
  vertex 0.00587662496 0.000623071683 -0.00182153075
  vertex 0.00516186887 0.00472812401 -0.00321734138
  vertex 0.000883664296 0.00526864314 0.000128393513
  endloop
 endfacet

 facet normal 0 0 0
  outer loop
  vertex 0.00587662496 0.000623071683 -0.00182153075
  vertex 0.000883664296 0.00526864314 0.000128393513
  vertex 0.0021544958 0.00185423181 0.000844311435
  endloop
 endfacet

 facet normal 0 0 0
  outer loop
  vertex 0.0021544958 0.00185423181 0.000844311435
  vertex 0.000883664296 0.00526864314 0.000128393513
  vertex -0.00142475229 0.000682846585 0.00183502329
  endloop
 endfacet

 facet normal 0 0 0
  outer loop
  vertex 2.73565092e-05 -0.00513733458 -0.000590247451
  vertex 0.00327245938 -0.003378405 -0.000668553053
  vertex -0.00142475229 0.000682846585 0.00183502329
  endloop
 endfacet

 facet normal 0 0 0
  outer loop
  vertex 2.73565092e-05 -0.00513733458 -0.000590247451
  vertex -0.00142475229 0.000682846585 0.00183502329
  vertex -0.00348531851 -0.00402328745 0.000134789283
  endloop
 endfacet

 facet normal 0 0 0
  outer loop
  vertex 2.73565092e-05 -0.00513733458 -0.000590247451
  vertex -0.00348531851 -0.00402328745 0.000134789283
  vertex 0.0004822677 -0.00705657247 -0.00357472594
  endloop
 endfacet

endsolid AssimpScene
