solid AssimpScene
 facet normal 0 0 0
  outer loop
  vertex -0.00277961907 -0.00729783671 0.03201719
  vertex -0.00361515093 -0.00704769464 0.00238016411
  vertex -0.000876419712 -0.00724142138 -0.0016194809
  endloop
 endfacet

 facet normal 0 0 0
  outer loop
  vertex -0.00277961907 -0.00729783671 0.03201719
  vertex -0.000876419712 -0.00724142138 -0.0016194809
  vertex 0.00162020768 -0.00728763826 -0.000710688939
  endloop
 endfacet

 facet normal 0 0 0
  outer loop
  vertex -0.00277961907 -0.00729783671 0.03201719
  vertex 0.00162020768 -0.00728763826 -0.000710688939
  vertex 9.1558024e-05 -0.00741261384 0.0332488827
  endloop
 endfacet

 facet normal 0 0 0
  outer loop
  vertex -0.00517131714 -0.00626615854 0.0272833295
  vertex -0.008509879 -0.00077473768 0.0197160672
  vertex -0.00655685412 -0.00509161642 0.00123075361
  endloop
 endfacet

 facet normal 0 0 0
  outer loop
  vertex -0.00650530215 0.00514681218 0.0244225897
  vertex -0.00785444025 0.00274999999 0.000723786303
  vertex -0.008509879 -0.00077473768 0.0197160672
  endloop
 endfacet

 facet normal 0 0 0
  outer loop
  vertex 0.00349326269 -0.00596730784 0.0308636781
  vertex 9.1558024e-05 -0.00741261384 0.0332488827
  vertex 0.00162020768 -0.00728763826 -0.000710688939
  endloop
 endfacet

 facet normal 0 0 0
  outer loop
  vertex -0.00474866433 0.00274999999 -0.00364789413
  vertex -0.00166469149 -0.000624649518 -0.00517981173
  vertex -0.006127703 -0.00137091812 -0.00307792099
  endloop
 endfacet

 facet normal 0 0 0
  outer loop
  vertex -0.00474866433 0.00274999999 -0.00364789413
  vertex -0.006127703 -0.00137091812 -0.00307792099
  vertex -0.00785444025 0.00274999999 0.000723786303
  endloop
 endfacet

 facet normal 0 0 0
  outer loop
  vertex -0.00490407972 0.00643397728 0.00150489574
  vertex -0.00785444025 0.00274999999 0.000723786303
  vertex -0.00650530215 0.00514681218 0.0244225897
  endloop
 endfacet

 facet normal 0 0 0
  outer loop
  vertex -0.00490407972 0.00643397728 0.00150489574
  vertex 0.000639999984 0.00710000005 -0.00110851275
  vertex -0.00474866433 0.00274999999 -0.00364789413
  endloop
 endfacet

 facet normal 0 0 0
  outer loop
  vertex -0.00490407972 0.00643397728 0.00150489574
  vertex -0.00474866433 0.00274999999 -0.00364789413
  vertex -0.00785444025 0.00274999999 0.000723786303
  endloop
 endfacet

 facet normal 0 0 0
  outer loop
  vertex 0.00554999989 -0.00274999999 4.41219981e-06
  vertex 0.00643731141 0.000436086237 0.00664967438
  vertex 0.0060299919 -0.00247461349 0.0211983807
  endloop
 endfacet

 facet normal 0 0 0
  outer loop
  vertex 0.00554999989 -0.00274999999 4.41219981e-06
  vertex 0.0060299919 -0.00247461349 0.0211983807
  vertex 0.00349326269 -0.00596730784 0.0308636781
  endloop
 endfacet

 facet normal 0 0 0
  outer loop
  vertex 0.00554999989 -0.00274999999 4.41219981e-06
  vertex 0.00349326269 -0.00596730784 0.0308636781
  vertex 0.00162020768 -0.00728763826 -0.000710688939
  endloop
 endfacet

 facet normal 0 0 0
  outer loop
  vertex 0.00555000035 0.00274999999 4.41212205e-06
  vertex 0.00643731141 0.000436086237 0.00664967438
  vertex 0.00554999989 -0.00274999999 4.41219981e-06
  endloop
 endfacet

 facet normal 0 0 0
  outer loop
  vertex 0.00555000035 0.00274999999 4.41212205e-06
  vertex 0.00554999989 -0.00274999999 4.41219981e-06
  vertex 0.0048733307 0.000384449406 -0.00231554778
  endloop
 endfacet

 facet normal 0 0 0
  outer loop
  vertex 0.00127250876 0.00274999999 -0.004310966
  vertex 0.000639999984 0.00710000005 -0.00110851275
  vertex 0.00555000035 0.00274999999 4.41212205e-06
  endloop
 endfacet

 facet normal 0 0 0
  outer loop
  vertex 0.00127250876 0.00274999999 -0.004310966
  vertex 0.00555000035 0.00274999999 4.41212205e-06
  vertex 0.0048733307 0.000384449406 -0.00231554778
  endloop
 endfacet

 facet normal 0 0 0
  outer loop
  vertex 0.00127250876 0.00274999999 -0.004310966
  vertex -0.00166469149 -0.000624649518 -0.00517981173
  vertex -0.00474866433 0.00274999999 -0.00364789413
  endloop
 endfacet

 facet normal 0 0 0
  outer loop
  vertex 0.00127250876 0.00274999999 -0.004310966
  vertex -0.00474866433 0.00274999999 -0.00364789413
  vertex 0.000639999984 0.00710000005 -0.00110851275
  endloop
 endfacet

 facet normal 0 0 0
  outer loop
  vertex -0.00277961907 -0.00729783671 0.03201719
  vertex 9.1558024e-05 -0.00741261384 0.0332488827
  vertex -0.0011109506 0.00749975257 0.0330816582
  endloop
 endfacet

 facet normal 0 0 0
  outer loop
  vertex 0.00200683135 -0.00274999999 -0.00400361093
  vertex -0.00166469149 -0.000624649518 -0.00517981173
  vertex 0.00127250876 0.00274999999 -0.004310966
  endloop
 endfacet

 facet normal 0 0 0
  outer loop
  vertex 0.00200683135 -0.00274999999 -0.00400361093
  vertex 0.00127250876 0.00274999999 -0.004310966
  vertex 0.0048733307 0.000384449406 -0.00231554778
  endloop
 endfacet

 facet normal 0 0 0
  outer loop
  vertex 0.00200683135 -0.00274999999 -0.00400361093
  vertex 0.0048733307 0.000384449406 -0.00231554778
  vertex 0.00554999989 -0.00274999999 4.41219981e-06
  endloop
 endfacet

 facet normal 0 0 0
  outer loop
  vertex 0.00200683135 -0.00274999999 -0.00400361093
  vertex 0.00554999989 -0.00274999999 4.41219981e-06
  vertex 0.00162020768 -0.00728763826 -0.000710688939
  endloop
 endfacet

 facet normal 0 0 0
  outer loop
  vertex 0.00200683135 -0.00274999999 -0.00400361093
  vertex 0.00162020768 -0.00728763826 -0.000710688939
  vertex -0.000876419712 -0.00724142138 -0.0016194809
  endloop
 endfacet

 facet normal 0 0 0
  outer loop
  vertex 0.00190228748 0.00689449068 0.0327316858
  vertex 9.1558024e-05 -0.00741261384 0.0332488827
  vertex 0.00349326269 -0.00596730784 0.0308636781
  endloop
 endfacet

 facet normal 0 0 0
  outer loop
  vertex 0.00190228748 0.00689449068 0.0327316858
  vertex 0.00349326269 -0.00596730784 0.0308636781
  vertex 0.00367009826 0.00582843646 0.030269986
  endloop
 endfacet

 facet normal 0 0 0
  outer loop
  vertex 0.00190228748 0.00689449068 0.0327316858
  vertex 0.000639999984 0.00710000005 -0.00110851275
  vertex -0.0011109506 0.00749975257 0.0330816582
  endloop
 endfacet

 facet normal 0 0 0
  outer loop
  vertex 0.00190228748 0.00689449068 0.0327316858
  vertex -0.0011109506 0.00749975257 0.0330816582
  vertex 9.1558024e-05 -0.00741261384 0.0332488827
  endloop
 endfacet

 facet normal 0 0 0
  outer loop
  vertex -0.00844762474 -0.00117389334 0.00188523694
  vertex -0.00785444025 0.00274999999 0.000723786303
  vertex -0.006127703 -0.00137091812 -0.00307792099
  endloop
 endfacet

 facet normal 0 0 0
  outer loop
  vertex -0.00844762474 -0.00117389334 0.00188523694
  vertex -0.006127703 -0.00137091812 -0.00307792099
  vertex -0.00655685412 -0.00509161642 0.00123075361
  endloop
 endfacet

 facet normal 0 0 0
  outer loop
  vertex -0.00844762474 -0.00117389334 0.00188523694
  vertex -0.00655685412 -0.00509161642 0.00123075361
  vertex -0.008509879 -0.00077473768 0.0197160672
  endloop
 endfacet

 facet normal 0 0 0
  outer loop
  vertex -0.00844762474 -0.00117389334 0.00188523694
  vertex -0.008509879 -0.00077473768 0.0197160672
  vertex -0.00785444025 0.00274999999 0.000723786303
  endloop
 endfacet

 facet normal 0 0 0
  outer loop
  vertex 0.00367009826 0.00582843646 0.030269986
  vertex 0.00349326269 -0.00596730784 0.0308636781
  vertex 0.0060299919 -0.00247461349 0.0211983807
  endloop
 endfacet

 facet normal 0 0 0
  outer loop
  vertex 0.00367009826 0.00582843646 0.030269986
  vertex 0.0060299919 -0.00247461349 0.0211983807
  vertex 0.00623889454 0.001766923 0.0206963923
  endloop
 endfacet

 facet normal 0 0 0
  outer loop
  vertex 0.00623889454 0.001766923 0.0206963923
  vertex 0.0060299919 -0.00247461349 0.0211983807
  vertex 0.00643731141 0.000436086237 0.00664967438
  endloop
 endfacet

 facet normal 0 0 0
  outer loop
  vertex 0.00623889454 0.001766923 0.0206963923
  vertex 0.00643731141 0.000436086237 0.00664967438
  vertex 0.00555000035 0.00274999999 4.41212205e-06
  endloop
 endfacet

 facet normal 0 0 0
  outer loop
  vertex -0.00650530215 0.00514681218 0.0244225897
  vertex -0.008509879 -0.00077473768 0.0197160672
  vertex -0.00517131714 -0.00626615854 0.0272833295
  endloop
 endfacet

 facet normal 0 0 0
  outer loop
  vertex -0.00650530215 0.00514681218 0.0244225897
  vertex -0.00517131714 -0.00626615854 0.0272833295
  vertex -0.00277961907 -0.00729783671 0.03201719
  endloop
 endfacet

 facet normal 0 0 0
  outer loop
  vertex -0.00650530215 0.00514681218 0.0244225897
  vertex -0.00277961907 -0.00729783671 0.03201719
  vertex -0.00308836414 0.00721769128 0.0316270888
  endloop
 endfacet

 facet normal 0 0 0
  outer loop
  vertex -0.00308836414 0.00721769128 0.0316270888
  vertex -0.00277961907 -0.00729783671 0.03201719
  vertex -0.0011109506 0.00749975257 0.0330816582
  endloop
 endfacet

 facet normal 0 0 0
  outer loop
  vertex -0.00308836414 0.00721769128 0.0316270888
  vertex -0.0011109506 0.00749975257 0.0330816582
  vertex 0.000639999984 0.00710000005 -0.00110851275
  endloop
 endfacet

 facet normal 0 0 0
  outer loop
  vertex -0.00308836414 0.00721769128 0.0316270888
  vertex 0.000639999984 0.00710000005 -0.00110851275
  vertex -0.00490407972 0.00643397728 0.00150489574
  endloop
 endfacet

 facet normal 0 0 0
  outer loop
  vertex -0.00308836414 0.00721769128 0.0316270888
  vertex -0.00490407972 0.00643397728 0.00150489574
  vertex -0.00650530215 0.00514681218 0.0244225897
  endloop
 endfacet

 facet normal 0 0 0
  outer loop
  vertex 0.00367009826 0.00582843646 0.030269986
  vertex 0.00623889454 0.001766923 0.0206963923
  vertex 0.00555000035 0.00274999999 4.41212205e-06
  endloop
 endfacet

 facet normal 0 0 0
  outer loop
  vertex 0.00367009826 0.00582843646 0.030269986
  vertex 0.00555000035 0.00274999999 4.41212205e-06
  vertex 0.00388508034 0.00564756431 0.00438713981
  endloop
 endfacet

 facet normal 0 0 0
  outer loop
  vertex 0.00388508034 0.00564756431 0.00438713981
  vertex 0.00555000035 0.00274999999 4.41212205e-06
  vertex 0.000639999984 0.00710000005 -0.00110851275
  endloop
 endfacet

 facet normal 0 0 0
  outer loop
  vertex 0.00388508034 0.00564756431 0.00438713981
  vertex 0.000639999984 0.00710000005 -0.00110851275
  vertex 0.00190228748 0.00689449068 0.0327316858
  endloop
 endfacet

 facet normal 0 0 0
  outer loop
  vertex 0.00388508034 0.00564756431 0.00438713981
  vertex 0.00190228748 0.00689449068 0.0327316858
  vertex 0.00367009826 0.00582843646 0.030269986
  endloop
 endfacet

 facet normal 0 0 0
  outer loop
  vertex -0.0033272868 -0.00274999999 -0.00432675378
  vertex -0.00166469149 -0.000624649518 -0.00517981173
  vertex 0.00200683135 -0.00274999999 -0.00400361093
  endloop
 endfacet

 facet normal 0 0 0
  outer loop
  vertex -0.0033272868 -0.00274999999 -0.00432675378
  vertex 0.00200683135 -0.00274999999 -0.00400361093
  vertex -0.000876419712 -0.00724142138 -0.0016194809
  endloop
 endfacet

 facet normal 0 0 0
  outer loop
  vertex -0.000876419712 -0.00724142138 -0.0016194809
  vertex -0.00655685412 -0.00509161642 0.00123075361
  vertex -0.006127703 -0.00137091812 -0.00307792099
  endloop
 endfacet

 facet normal 0 0 0
  outer loop
  vertex -0.000876419712 -0.00724142138 -0.0016194809
  vertex -0.006127703 -0.00137091812 -0.00307792099
  vertex -0.0033272868 -0.00274999999 -0.00432675378
  endloop
 endfacet

 facet normal 0 0 0
  outer loop
  vertex -0.0033272868 -0.00274999999 -0.00432675378
  vertex -0.006127703 -0.00137091812 -0.00307792099
  vertex -0.00166469149 -0.000624649518 -0.00517981173
  endloop
 endfacet

 facet normal 0 0 0
  outer loop
  vertex -0.00361515093 -0.00704769464 0.00238016411
  vertex -0.00655685412 -0.00509161642 0.00123075361
  vertex -0.000876419712 -0.00724142138 -0.0016194809
  endloop
 endfacet

 facet normal 0 0 0
  outer loop
  vertex -0.00361515093 -0.00704769464 0.00238016411
  vertex -0.00277961907 -0.00729783671 0.03201719
  vertex -0.00517131714 -0.00626615854 0.0272833295
  endloop
 endfacet

 facet normal 0 0 0
  outer loop
  vertex -0.00361515093 -0.00704769464 0.00238016411
  vertex -0.00517131714 -0.00626615854 0.0272833295
  vertex -0.00655685412 -0.00509161642 0.00123075361
  endloop
 endfacet

endsolid AssimpScene
