solid AssimpScene
 facet normal 0 0 0
  outer loop
  vertex -0.00274958857 0.00733244326 0.0481563285
  vertex 0.00069921359 0.00623771362 0.0488033742
  vertex 0.0027508093 0.00881263427 0.047642298
  endloop
 endfacet

 facet normal 0 0 0
  outer loop
  vertex -0.00274958857 0.00733244326 0.0481563285
  vertex 0.0027508093 0.00881263427 0.047642298
  vertex 0.000481972354 0.011255797 0.0464725457
  endloop
 endfacet

 facet normal 0 0 0
  outer loop
  vertex -0.00548119936 0.00644999975 -0.00405328535
  vertex -1.45250739e-12 0.00644999975 -0.00530796312
  vertex 8.22991848e-13 0.000800000154 -0.00175000145
  endloop
 endfacet

 facet normal 0 0 0
  outer loop
  vertex -0.00548119936 0.00644999975 -0.00405328535
  vertex 8.22991848e-13 0.000800000154 -0.00175000145
  vertex -0.00530330092 0.000496698776 0.00394999795
  endloop
 endfacet

 facet normal 0 0 0
  outer loop
  vertex -0.00548119936 0.00644999975 -0.00405328535
  vertex -0.00194212107 0.0130441803 -0.00518170558
  vertex -1.45250739e-12 0.00644999975 -0.00530796312
  endloop
 endfacet

 facet normal 0 0 0
  outer loop
  vertex -0.00740352133 0.00699911499 0.04030855
  vertex -0.00610532658 0.0014439713 0.0394612141
  vertex -0.00275133247 0.000840275141 0.0462561473
  endloop
 endfacet

 facet normal 0 0 0
  outer loop
  vertex -0.00740352133 0.00699911499 0.04030855
  vertex -0.00275133247 0.000840275141 0.0462561473
  vertex -0.00197188649 0.00344360131 0.0481905937
  endloop
 endfacet

 facet normal 0 0 0
  outer loop
  vertex -0.00740352133 0.00699911499 0.04030855
  vertex -0.00197188649 0.00344360131 0.0481905937
  vertex -0.00274958857 0.00733244326 0.0481563285
  endloop
 endfacet

 facet normal 0 0 0
  outer loop
  vertex 0.00724444352 0.00385885662 0.00368421013
  vertex 0.00649519032 0.00954999961 -0.00252482505
  vertex 0.00740250153 0.00459460868 0.0396206304
  endloop
 endfacet

 facet normal 0 0 0
  outer loop
  vertex 0.0054811989 0.00644999975 -0.00405328535
  vertex 0.00649519032 0.00954999961 -0.00252482505
  vertex 0.00724444352 0.00385885662 0.00368421013
  endloop
 endfacet

 facet normal 0 0 0
  outer loop
  vertex 0.0054811989 0.00644999975 -0.00405328535
  vertex 0.00724444352 0.00385885662 0.00368421013
  vertex 0.00374999992 -0.000695191091 0.00394999795
  endloop
 endfacet

 facet normal 0 0 0
  outer loop
  vertex 0.0054811989 0.00644999975 -0.00405328535
  vertex 0.00374999992 -0.000695191091 0.00394999795
  vertex 8.22991848e-13 0.000800000154 -0.00175000145
  endloop
 endfacet

 facet normal 0 0 0
  outer loop
  vertex 0.0054811989 0.00644999975 -0.00405328535
  vertex 8.22991848e-13 0.000800000154 -0.00175000145
  vertex -1.45250739e-12 0.00644999975 -0.00530796312
  endloop
 endfacet

 facet normal 0 0 0
  outer loop
  vertex 0.000351509196 0.0132915238 0.0414082147
  vertex 0.000481972354 0.011255797 0.0464725457
  vertex 0.0050707031 0.0113261165 0.0423811562
  endloop
 endfacet

 facet normal 0 0 0
  outer loop
  vertex 0.00374999992 0.0122951902 -0.00483165169
  vertex 0.00649519032 0.00954999961 -0.00252482505
  vertex 0.0054811989 0.00644999975 -0.00405328535
  endloop
 endfacet

 facet normal 0 0 0
  outer loop
  vertex 0.00374999992 0.0122951902 -0.00483165169
  vertex 0.0054811989 0.00644999975 -0.00405328535
  vertex -1.45250739e-12 0.00644999975 -0.00530796312
  endloop
 endfacet

 facet normal 0 0 0
  outer loop
  vertex 0.00374999992 0.0122951902 -0.00483165169
  vertex -1.45250739e-12 0.00644999975 -0.00530796312
  vertex -0.00194212107 0.0130441803 -0.00518170558
  endloop
 endfacet

 facet normal 0 0 0
  outer loop
  vertex 0.00374999992 0.0122951902 -0.00483165169
  vertex -0.00194212107 0.0130441803 -0.00518170558
  vertex 0.000351509196 0.0132915238 0.0414082147
  endloop
 endfacet

 facet normal 0 0 0
  outer loop
  vertex 0.00374999992 0.0122951902 -0.00483165169
  vertex 0.000351509196 0.0132915238 0.0414082147
  vertex 0.0050707031 0.0113261165 0.0423811562
  endloop
 endfacet

 facet normal 0 0 0
  outer loop
  vertex 0.00374999992 0.0122951902 -0.00483165169
  vertex 0.0050707031 0.0113261165 0.0423811562
  vertex 0.00649519032 0.00954999961 -0.00252482505
  endloop
 endfacet

 facet normal 0 0 0
  outer loop
  vertex -0.00194114295 -0.00144444371 0.0369680151
  vertex -0.00610532658 0.0014439713 0.0394612141
  vertex -0.00530330092 0.000496698776 0.00394999795
  endloop
 endfacet

 facet normal 0 0 0
  outer loop
  vertex -0.00194114295 -0.00144444371 0.0369680151
  vertex -0.00194114295 -0.00144444429 0.00394999795
  vertex 0.00374999992 -0.000695191091 0.00394999795
  endloop
 endfacet

 facet normal 0 0 0
  outer loop
  vertex -0.00194114295 -0.00144444371 0.0369680151
  vertex 0.00374999992 -0.000695191091 0.00394999795
  vertex 0.00274822698 -0.000800738111 0.0436132774
  endloop
 endfacet

 facet normal 0 0 0
  outer loop
  vertex -0.00548119936 0.0109192235 -0.00405328535
  vertex -0.00194212107 0.0130441803 -0.00518170558
  vertex -0.00548119936 0.00644999975 -0.00405328535
  endloop
 endfacet

 facet normal 0 0 0
  outer loop
  vertex -0.00548119936 0.0109192235 -0.00405328535
  vertex -0.00548119936 0.00644999975 -0.00405328535
  vertex -0.00724444399 0.00774114253 -0.000369114772
  endloop
 endfacet

 facet normal 0 0 0
  outer loop
  vertex -0.00548119936 0.0109192235 -0.00405328535
  vertex -0.0045906133 0.0117309587 0.0422170684
  vertex -0.00194212107 0.0130441803 -0.00518170558
  endloop
 endfacet

 facet normal 0 0 0
  outer loop
  vertex -0.00194114295 -0.00144444429 0.00394999795
  vertex -0.00194114295 -0.00144444371 0.0369680151
  vertex -0.00530330092 0.000496698776 0.00394999795
  endloop
 endfacet

 facet normal 0 0 0
  outer loop
  vertex -0.00194114295 -0.00144444429 0.00394999795
  vertex -0.00530330092 0.000496698776 0.00394999795
  vertex 8.22991848e-13 0.000800000154 -0.00175000145
  endloop
 endfacet

 facet normal 0 0 0
  outer loop
  vertex -0.00194114295 -0.00144444429 0.00394999795
  vertex 8.22991848e-13 0.000800000154 -0.00175000145
  vertex 0.00374999992 -0.000695191091 0.00394999795
  endloop
 endfacet

 facet normal 0 0 0
  outer loop
  vertex 0.0027508093 0.00881263427 0.047642298
  vertex 0.0050707031 0.0113261165 0.0423811562
  vertex 0.000481972354 0.011255797 0.0464725457
  endloop
 endfacet

 facet normal 0 0 0
  outer loop
  vertex 0.0027508093 0.00881263427 0.047642298
  vertex 0.00069921359 0.00623771362 0.0488033742
  vertex 0.00274936645 0.00344165391 0.047916159
  endloop
 endfacet

 facet normal 0 0 0
  outer loop
  vertex 0.0061029857 0.00144069211 0.0394612141
  vertex 0.00374999992 -0.000695191091 0.00394999795
  vertex 0.00724444352 0.00385885662 0.00368421013
  endloop
 endfacet

 facet normal 0 0 0
  outer loop
  vertex 0.0061029857 0.00144069211 0.0394612141
  vertex 0.00724444352 0.00385885662 0.00368421013
  vertex 0.00740250153 0.00459460868 0.0396206304
  endloop
 endfacet

 facet normal 0 0 0
  outer loop
  vertex 0.0061029857 0.00144069211 0.0394612141
  vertex 0.00740250153 0.00459460868 0.0396206304
  vertex 0.00274936645 0.00344165391 0.047916159
  endloop
 endfacet

 facet normal 0 0 0
  outer loop
  vertex 0.0061029857 0.00144069211 0.0394612141
  vertex 0.00274936645 0.00344165391 0.047916159
  vertex 0.00274822698 -0.000800738111 0.0436132774
  endloop
 endfacet

 facet normal 0 0 0
  outer loop
  vertex 0.0061029857 0.00144069211 0.0394612141
  vertex 0.00274822698 -0.000800738111 0.0436132774
  vertex 0.00374999992 -0.000695191091 0.00394999795
  endloop
 endfacet

 facet normal 0 0 0
  outer loop
  vertex -0.00274869776 0.0106491009 0.0463669337
  vertex -0.00274958857 0.00733244326 0.0481563285
  vertex 0.000481972354 0.011255797 0.0464725457
  endloop
 endfacet

 facet normal 0 0 0
  outer loop
  vertex -0.00217053387 -0.00079941703 0.0441749133
  vertex -0.00275133247 0.000840275141 0.0462561473
  vertex -0.00610532658 0.0014439713 0.0394612141
  endloop
 endfacet

 facet normal 0 0 0
  outer loop
  vertex -0.00217053387 -0.00079941703 0.0441749133
  vertex -0.00610532658 0.0014439713 0.0394612141
  vertex -0.00194114295 -0.00144444371 0.0369680151
  endloop
 endfacet

 facet normal 0 0 0
  outer loop
  vertex -0.00217053387 -0.00079941703 0.0441749133
  vertex -0.00194114295 -0.00144444371 0.0369680151
  vertex 0.00274822698 -0.000800738111 0.0436132774
  endloop
 endfacet

 facet normal 0 0 0
  outer loop
  vertex -0.00724444399 0.00385885662 0.00368421013
  vertex -0.00610532658 0.0014439713 0.0394612141
  vertex -0.00740352133 0.00699911499 0.04030855
  endloop
 endfacet

 facet normal 0 0 0
  outer loop
  vertex -0.00724444399 0.00385885662 0.00368421013
  vertex -0.00740352133 0.00699911499 0.04030855
  vertex -0.00724444399 0.00774114253 -0.000369114772
  endloop
 endfacet

 facet normal 0 0 0
  outer loop
  vertex -0.00724444399 0.00385885662 0.00368421013
  vertex -0.00724444399 0.00774114253 -0.000369114772
  vertex -0.00548119936 0.00644999975 -0.00405328535
  endloop
 endfacet

 facet normal 0 0 0
  outer loop
  vertex -0.00724444399 0.00385885662 0.00368421013
  vertex -0.00548119936 0.00644999975 -0.00405328535
  vertex -0.00530330092 0.000496698776 0.00394999795
  endloop
 endfacet

 facet normal 0 0 0
  outer loop
  vertex -0.00724444399 0.00385885662 0.00368421013
  vertex -0.00530330092 0.000496698776 0.00394999795
  vertex -0.00610532658 0.0014439713 0.0394612141
  endloop
 endfacet

 facet normal 0 0 0
  outer loop
  vertex 0.00649519032 0.00954999961 0.0420432985
  vertex 0.0050707031 0.0113261165 0.0423811562
  vertex 0.0027508093 0.00881263427 0.047642298
  endloop
 endfacet

 facet normal 0 0 0
  outer loop
  vertex 0.00649519032 0.00954999961 0.0420432985
  vertex 0.0027508093 0.00881263427 0.047642298
  vertex 0.00274936645 0.00344165391 0.047916159
  endloop
 endfacet

 facet normal 0 0 0
  outer loop
  vertex 0.00649519032 0.00954999961 0.0420432985
  vertex 0.00274936645 0.00344165391 0.047916159
  vertex 0.00740250153 0.00459460868 0.0396206304
  endloop
 endfacet

 facet normal 0 0 0
  outer loop
  vertex 0.00649519032 0.00954999961 0.0420432985
  vertex 0.00740250153 0.00459460868 0.0396206304
  vertex 0.00649519032 0.00954999961 -0.00252482505
  endloop
 endfacet

 facet normal 0 0 0
  outer loop
  vertex 0.00649519032 0.00954999961 0.0420432985
  vertex 0.00649519032 0.00954999961 -0.00252482505
  vertex 0.0050707031 0.0113261165 0.0423811562
  endloop
 endfacet

 facet normal 0 0 0
  outer loop
  vertex -0.00197188649 0.00344360131 0.0481905937
  vertex 0.00069921359 0.00623771362 0.0488033742
  vertex -0.00274958857 0.00733244326 0.0481563285
  endloop
 endfacet

 facet normal 0 0 0
  outer loop
  vertex -0.00197188649 0.00344360131 0.0481905937
  vertex 0.00274936645 0.00344165391 0.047916159
  vertex 0.00069921359 0.00623771362 0.0488033742
  endloop
 endfacet

 facet normal 0 0 0
  outer loop
  vertex 0.000535322935 0.000981038203 0.0470708571
  vertex 0.00274822698 -0.000800738111 0.0436132774
  vertex 0.00274936645 0.00344165391 0.047916159
  endloop
 endfacet

 facet normal 0 0 0
  outer loop
  vertex 0.000535322935 0.000981038203 0.0470708571
  vertex 0.00274936645 0.00344165391 0.047916159
  vertex -0.00197188649 0.00344360131 0.0481905937
  endloop
 endfacet

 facet normal 0 0 0
  outer loop
  vertex 0.000535322935 0.000981038203 0.0470708571
  vertex -0.00197188649 0.00344360131 0.0481905937
  vertex -0.00275133247 0.000840275141 0.0462561473
  endloop
 endfacet

 facet normal 0 0 0
  outer loop
  vertex 0.000535322935 0.000981038203 0.0470708571
  vertex -0.00275133247 0.000840275141 0.0462561473
  vertex -0.00217053387 -0.00079941703 0.0441749133
  endloop
 endfacet

 facet normal 0 0 0
  outer loop
  vertex 0.000535322935 0.000981038203 0.0470708571
  vertex -0.00217053387 -0.00079941703 0.0441749133
  vertex 0.00274822698 -0.000800738111 0.0436132774
  endloop
 endfacet

 facet normal 0 0 0
  outer loop
  vertex -0.00617764983 0.0100528393 0.0423216186
  vertex -0.00740352133 0.00699911499 0.04030855
  vertex -0.00274958857 0.00733244326 0.0481563285
  endloop
 endfacet

 facet normal 0 0 0
  outer loop
  vertex -0.00617764983 0.0100528393 0.0423216186
  vertex -0.00274958857 0.00733244326 0.0481563285
  vertex -0.00274869776 0.0106491009 0.0463669337
  endloop
 endfacet

 facet normal 0 0 0
  outer loop
  vertex -0.00617764983 0.0100528393 0.0423216186
  vertex -0.00274869776 0.0106491009 0.0463669337
  vertex -0.0045906133 0.0117309587 0.0422170684
  endloop
 endfacet

 facet normal 0 0 0
  outer loop
  vertex -0.00617764983 0.0100528393 0.0423216186
  vertex -0.0045906133 0.0117309587 0.0422170684
  vertex -0.00548119936 0.0109192235 -0.00405328535
  endloop
 endfacet

 facet normal 0 0 0
  outer loop
  vertex -0.00617764983 0.0100528393 0.0423216186
  vertex -0.00548119936 0.0109192235 -0.00405328535
  vertex -0.00724444399 0.00774114253 -0.000369114772
  endloop
 endfacet

 facet normal 0 0 0
  outer loop
  vertex -0.00617764983 0.0100528393 0.0423216186
  vertex -0.00724444399 0.00774114253 -0.000369114772
  vertex -0.00740352133 0.00699911499 0.04030855
  endloop
 endfacet

 facet normal 0 0 0
  outer loop
  vertex -0.00168369 0.0127707273 0.0435452722
  vertex -0.0045906133 0.0117309587 0.0422170684
  vertex -0.00274869776 0.0106491009 0.0463669337
  endloop
 endfacet

 facet normal 0 0 0
  outer loop
  vertex -0.00168369 0.0127707273 0.0435452722
  vertex -0.00274869776 0.0106491009 0.0463669337
  vertex 0.000481972354 0.011255797 0.0464725457
  endloop
 endfacet

 facet normal 0 0 0
  outer loop
  vertex -0.00168369 0.0127707273 0.0435452722
  vertex 0.000481972354 0.011255797 0.0464725457
  vertex 0.000351509196 0.0132915238 0.0414082147
  endloop
 endfacet

 facet normal 0 0 0
  outer loop
  vertex -0.00168369 0.0127707273 0.0435452722
  vertex 0.000351509196 0.0132915238 0.0414082147
  vertex -0.00194212107 0.0130441803 -0.00518170558
  endloop
 endfacet

 facet normal 0 0 0
  outer loop
  vertex -0.00168369 0.0127707273 0.0435452722
  vertex -0.00194212107 0.0130441803 -0.00518170558
  vertex -0.0045906133 0.0117309587 0.0422170684
  endloop
 endfacet

endsolid AssimpScene
