solid AssimpScene
 facet normal 0 0 0
  outer loop
  vertex 0.00970000029 -0.010436493 -0.00900000893
  vertex 0.0130000003 -0.010436493 -0.00880000833
  vertex 0.0114138853 -0.0186592899 -0.00511277327
  endloop
 endfacet

 facet normal 0 0 0
  outer loop
  vertex 0.00970000029 -0.010436493 -0.00900000893
  vertex 0.0114138853 -0.0186592899 -0.00511277327
  vertex -0.011154796 -0.0190017745 -0.0049489052
  endloop
 endfacet

 facet normal 0 0 0
  outer loop
  vertex 0.00970000029 -0.010436493 -0.00900000893
  vertex -0.011154796 -0.0190017745 -0.0049489052
  vertex -0.0130000003 -0.0114200059 -0.00867052656
  endloop
 endfacet

 facet normal 0 0 0
  outer loop
  vertex -0.011154796 -0.0190017745 -0.0049489052
  vertex 0.0114138853 -0.0186592899 -0.00511277327
  vertex 0.00192466285 -0.025293231 -4.93422991e-09
  endloop
 endfacet

 facet normal 0 0 0
  outer loop
  vertex -0.0132384971 0.0155581702 0.090685226
  vertex -0.0137184849 0.0297529008 0.0654349178
  vertex -0.0177302547 0.00626503956 0.0617465563
  endloop
 endfacet

 facet normal 0 0 0
  outer loop
  vertex -0.0132384971 0.0155581702 0.090685226
  vertex -0.0177302547 0.00626503956 0.0617465563
  vertex -0.0132291112 -0.000638347701 0.090686053
  endloop
 endfacet

 facet normal 0 0 0
  outer loop
  vertex 0.00282603432 0.0301405862 0.0786294043
  vertex 0.00821665023 -0.032382898 0.0537753627
  vertex 0.013766963 0.0211846028 0.028084822
  endloop
 endfacet

 facet normal 0 0 0
  outer loop
  vertex 0.0130000003 -0.010436493 -0.00880000833
  vertex 0.00821665023 -0.032382898 0.0537753627
  vertex 0.0114138853 -0.0186592899 -0.00511277327
  endloop
 endfacet

 facet normal 0 0 0
  outer loop
  vertex -0.0124793677 0.0172056705 -0.00610496523
  vertex 0.0127805611 0.0159420092 -0.0068420372
  vertex 0.0127999997 0.0115635078 -0.00900000893
  endloop
 endfacet

 facet normal 0 0 0
  outer loop
  vertex -0.0124793677 0.0172056705 -0.00610496523
  vertex 0.0127999997 0.0115635078 -0.00900000893
  vertex -0.0127999997 0.0115635078 -0.00900000893
  endloop
 endfacet

 facet normal 0 0 0
  outer loop
  vertex 0.00821665023 -0.032382898 0.0537753627
  vertex 0.00282603432 0.0301405862 0.0786294043
  vertex -0.00151365693 0.0367946997 0.092526786
  endloop
 endfacet

 facet normal 0 0 0
  outer loop
  vertex 0.00821665023 -0.032382898 0.0537753627
  vertex -0.00151365693 0.0367946997 0.092526786
  vertex 0.00190923107 -0.0413904563 0.0737646222
  endloop
 endfacet

 facet normal 0 0 0
  outer loop
  vertex 0.00190923107 -0.0413904563 0.0737646222
  vertex -0.00630237209 -0.0222872887 0.0865247026
  vertex -0.00120362616 -0.0428580903 0.0755664632
  endloop
 endfacet

 facet normal 0 0 0
  outer loop
  vertex -0.00151365693 0.0367946997 0.092526786
  vertex 0.00282603432 0.0301405862 0.0786294043
  vertex 0.013766963 0.0211846028 0.028084822
  endloop
 endfacet

 facet normal 0 0 0
  outer loop
  vertex -0.00385031314 -0.0422544926 0.0727938041
  vertex -0.0102137551 -0.0218518917 0.083955355
  vertex -0.0147654666 -0.0140748844 0.057562612
  endloop
 endfacet

 facet normal 0 0 0
  outer loop
  vertex -0.00385031314 -0.0422544926 0.0727938041
  vertex -0.0147654666 -0.0140748844 0.057562612
  vertex -0.0101606464 -0.0295119099 0.0479856692
  endloop
 endfacet

 facet normal 0 0 0
  outer loop
  vertex -0.00385031314 -0.0422544926 0.0727938041
  vertex -0.006806836 -0.0317236409 0.0272910744
  vertex -0.00116342807 -0.0335750021 0.0262681935
  endloop
 endfacet

 facet normal 0 0 0
  outer loop
  vertex -0.00680271676 0.0379927792 0.0920228735
  vertex -0.0137184849 0.0297529008 0.0654349178
  vertex -0.0132384971 0.0155581702 0.090685226
  endloop
 endfacet

 facet normal 0 0 0
  outer loop
  vertex 0.0127999997 0.0115635078 -0.00900000893
  vertex 0.0130000003 -0.010436493 -0.00880000833
  vertex 0.00970000029 -0.010436493 -0.00900000893
  endloop
 endfacet

 facet normal 0 0 0
  outer loop
  vertex 0.0127999997 0.0115635078 -0.00900000893
  vertex 0.00970000029 -0.010436493 -0.00900000893
  vertex -0.0130000003 -0.0114200059 -0.00867052656
  endloop
 endfacet

 facet normal 0 0 0
  outer loop
  vertex 0.0127999997 0.0115635078 -0.00900000893
  vertex -0.0130000003 -0.0114200059 -0.00867052656
  vertex -0.0127999997 0.0115635078 -0.00900000893
  endloop
 endfacet

 facet normal 0 0 0
  outer loop
  vertex 0.0110242842 0.0253863148 0.0272112302
  vertex -0.00151365693 0.0367946997 0.092526786
  vertex 0.013766963 0.0211846028 0.028084822
  endloop
 endfacet

 facet normal 0 0 0
  outer loop
  vertex -0.010827099 -0.00103855121 0.0925207436
  vertex -0.00630237209 -0.0222872887 0.0865247026
  vertex -0.00760040712 0.0215110015 0.095832184
  endloop
 endfacet

 facet normal 0 0 0
  outer loop
  vertex -0.0147654666 -0.0140748844 0.057562612
  vertex -0.0102137551 -0.0218518917 0.083955355
  vertex -0.0132291112 -0.000638347701 0.090686053
  endloop
 endfacet

 facet normal 0 0 0
  outer loop
  vertex -0.0147654666 -0.0140748844 0.057562612
  vertex -0.0132291112 -0.000638347701 0.090686053
  vertex -0.0177302547 0.00626503956 0.0617465563
  endloop
 endfacet

 facet normal 0 0 0
  outer loop
  vertex -0.0147654666 -0.0140748844 0.057562612
  vertex -0.0177302547 0.00626503956 0.0617465563
  vertex -0.0162639562 0.00652597891 0.0270501822
  endloop
 endfacet

 facet normal 0 0 0
  outer loop
  vertex -0.0147654666 -0.0140748844 0.057562612
  vertex -0.0162639562 0.00652597891 0.0270501822
  vertex -0.0130000003 -0.0114200059 -0.00867052656
  endloop
 endfacet

 facet normal 0 0 0
  outer loop
  vertex -0.0147654666 -0.0140748844 0.057562612
  vertex -0.0130000003 -0.0114200059 -0.00867052656
  vertex -0.011154796 -0.0190017745 -0.0049489052
  endloop
 endfacet

 facet normal 0 0 0
  outer loop
  vertex -0.0147654666 -0.0140748844 0.057562612
  vertex -0.011154796 -0.0190017745 -0.0049489052
  vertex -0.0101606464 -0.0295119099 0.0479856692
  endloop
 endfacet

 facet normal 0 0 0
  outer loop
  vertex -0.00612935796 0.0250278413 -5.31569988e-09
  vertex -0.00803681277 0.0339695178 0.0551625378
  vertex -0.00202554907 0.0264047366 0.000749990693
  endloop
 endfacet

 facet normal 0 0 0
  outer loop
  vertex -0.00251677283 0.035896752 0.0672325343
  vertex 0.00612935796 0.0250278413 -4.93422991e-09
  vertex -0.00202554907 0.0264047366 0.000749990693
  endloop
 endfacet

 facet normal 0 0 0
  outer loop
  vertex -0.00251677283 0.035896752 0.0672325343
  vertex -0.00202554907 0.0264047366 0.000749990693
  vertex -0.00803681277 0.0339695178 0.0551625378
  endloop
 endfacet

 facet normal 0 0 0
  outer loop
  vertex -0.00251677283 0.035896752 0.0672325343
  vertex -0.00803681277 0.0339695178 0.0551625378
  vertex -0.00680271676 0.0379927792 0.0920228735
  endloop
 endfacet

 facet normal 0 0 0
  outer loop
  vertex -0.00251677283 0.035896752 0.0672325343
  vertex -0.00680271676 0.0379927792 0.0920228735
  vertex -0.00432200963 0.0380812436 0.0939305276
  endloop
 endfacet

 facet normal 0 0 0
  outer loop
  vertex -0.00251677283 0.035896752 0.0672325343
  vertex -0.00432200963 0.0380812436 0.0939305276
  vertex -0.00151365693 0.0367946997 0.092526786
  endloop
 endfacet

 facet normal 0 0 0
  outer loop
  vertex -0.00251677283 0.035896752 0.0672325343
  vertex -0.00151365693 0.0367946997 0.092526786
  vertex 0.0110242842 0.0253863148 0.0272112302
  endloop
 endfacet

 facet normal 0 0 0
  outer loop
  vertex -0.00251677283 0.035896752 0.0672325343
  vertex 0.0110242842 0.0253863148 0.0272112302
  vertex 0.00612935796 0.0250278413 -4.93422991e-09
  endloop
 endfacet

 facet normal 0 0 0
  outer loop
  vertex -0.00604334986 -0.0239463989 -4.93422991e-09
  vertex 0.00192466285 -0.025293231 -4.93422991e-09
  vertex -0.00116342807 -0.0335750021 0.0262681935
  endloop
 endfacet

 facet normal 0 0 0
  outer loop
  vertex -0.00604334986 -0.0239463989 -4.93422991e-09
  vertex -0.00116342807 -0.0335750021 0.0262681935
  vertex -0.006806836 -0.0317236409 0.0272910744
  endloop
 endfacet

 facet normal 0 0 0
  outer loop
  vertex -0.00604334986 -0.0239463989 -4.93422991e-09
  vertex -0.006806836 -0.0317236409 0.0272910744
  vertex -0.011154796 -0.0190017745 -0.0049489052
  endloop
 endfacet

 facet normal 0 0 0
  outer loop
  vertex -0.00604334986 -0.0239463989 -4.93422991e-09
  vertex -0.011154796 -0.0190017745 -0.0049489052
  vertex 0.00192466285 -0.025293231 -4.93422991e-09
  endloop
 endfacet

 facet normal 0 0 0
  outer loop
  vertex -0.00993242767 0.0221843142 0.0946974307
  vertex -0.00760040712 0.0215110015 0.095832184
  vertex -0.00432200963 0.0380812436 0.0939305276
  endloop
 endfacet

 facet normal 0 0 0
  outer loop
  vertex -0.00993242767 0.0221843142 0.0946974307
  vertex -0.00432200963 0.0380812436 0.0939305276
  vertex -0.00680271676 0.0379927792 0.0920228735
  endloop
 endfacet

 facet normal 0 0 0
  outer loop
  vertex -0.00993242767 0.0221843142 0.0946974307
  vertex -0.00680271676 0.0379927792 0.0920228735
  vertex -0.0132384971 0.0155581702 0.090685226
  endloop
 endfacet

 facet normal 0 0 0
  outer loop
  vertex -0.00993242767 0.0221843142 0.0946974307
  vertex -0.0132384971 0.0155581702 0.090685226
  vertex -0.0132291112 -0.000638347701 0.090686053
  endloop
 endfacet

 facet normal 0 0 0
  outer loop
  vertex -0.00993242767 0.0221843142 0.0946974307
  vertex -0.0132291112 -0.000638347701 0.090686053
  vertex -0.010827099 -0.00103855121 0.0925207436
  endloop
 endfacet

 facet normal 0 0 0
  outer loop
  vertex -0.00993242767 0.0221843142 0.0946974307
  vertex -0.010827099 -0.00103855121 0.0925207436
  vertex -0.00760040712 0.0215110015 0.095832184
  endloop
 endfacet

 facet normal 0 0 0
  outer loop
  vertex 0.00516169099 -0.0307068918 0.0212178864
  vertex 0.0114138853 -0.0186592899 -0.00511277327
  vertex 0.00489039673 -0.0374688357 0.0504500829
  endloop
 endfacet

 facet normal 0 0 0
  outer loop
  vertex 0.00516169099 -0.0307068918 0.0212178864
  vertex -0.00116342807 -0.0335750021 0.0262681935
  vertex 0.00192466285 -0.025293231 -4.93422991e-09
  endloop
 endfacet

 facet normal 0 0 0
  outer loop
  vertex 0.00516169099 -0.0307068918 0.0212178864
  vertex 0.00192466285 -0.025293231 -4.93422991e-09
  vertex 0.0114138853 -0.0186592899 -0.00511277327
  endloop
 endfacet

 facet normal 0 0 0
  outer loop
  vertex 0.0113749998 0.0198571067 -0.0045640883
  vertex 0.00612935796 0.0250278413 -4.93422991e-09
  vertex 0.0110242842 0.0253863148 0.0272112302
  endloop
 endfacet

 facet normal 0 0 0
  outer loop
  vertex 0.0113749998 0.0198571067 -0.0045640883
  vertex 0.0110242842 0.0253863148 0.0272112302
  vertex 0.013766963 0.0211846028 0.028084822
  endloop
 endfacet

 facet normal 0 0 0
  outer loop
  vertex 0.0113749998 0.0198571067 -0.0045640883
  vertex 0.013766963 0.0211846028 0.028084822
  vertex 0.0127805611 0.0159420092 -0.0068420372
  endloop
 endfacet

 facet normal 0 0 0
  outer loop
  vertex 0.0113749998 0.0198571067 -0.0045640883
  vertex -0.00202554907 0.0264047366 0.000749990693
  vertex 0.00612935796 0.0250278413 -4.93422991e-09
  endloop
 endfacet

 facet normal 0 0 0
  outer loop
  vertex -0.00887166988 -0.0223678295 0.0861504748
  vertex -0.00630237209 -0.0222872887 0.0865247026
  vertex -0.010827099 -0.00103855121 0.0925207436
  endloop
 endfacet

 facet normal 0 0 0
  outer loop
  vertex -0.00887166988 -0.0223678295 0.0861504748
  vertex -0.010827099 -0.00103855121 0.0925207436
  vertex -0.0132291112 -0.000638347701 0.090686053
  endloop
 endfacet

 facet normal 0 0 0
  outer loop
  vertex -0.00887166988 -0.0223678295 0.0861504748
  vertex -0.0132291112 -0.000638347701 0.090686053
  vertex -0.0102137551 -0.0218518917 0.083955355
  endloop
 endfacet

 facet normal 0 0 0
  outer loop
  vertex -0.00887166988 -0.0223678295 0.0861504748
  vertex -0.0102137551 -0.0218518917 0.083955355
  vertex -0.00385031314 -0.0422544926 0.0727938041
  endloop
 endfacet

 facet normal 0 0 0
  outer loop
  vertex -0.00887166988 -0.0223678295 0.0861504748
  vertex -0.00385031314 -0.0422544926 0.0727938041
  vertex -0.00120362616 -0.0428580903 0.0755664632
  endloop
 endfacet

 facet normal 0 0 0
  outer loop
  vertex -0.00887166988 -0.0223678295 0.0861504748
  vertex -0.00120362616 -0.0428580903 0.0755664632
  vertex -0.00630237209 -0.0222872887 0.0865247026
  endloop
 endfacet

 facet normal 0 0 0
  outer loop
  vertex -0.0109713729 0.0301430151 0.0438468829
  vertex -0.00803681277 0.0339695178 0.0551625378
  vertex -0.00612935796 0.0250278413 -5.31569988e-09
  endloop
 endfacet

 facet normal 0 0 0
  outer loop
  vertex 0.000957000884 -0.0387150347 0.0493692309
  vertex -0.00120362616 -0.0428580903 0.0755664632
  vertex -0.00385031314 -0.0422544926 0.0727938041
  endloop
 endfacet

 facet normal 0 0 0
  outer loop
  vertex 0.000957000884 -0.0387150347 0.0493692309
  vertex -0.00385031314 -0.0422544926 0.0727938041
  vertex -0.00116342807 -0.0335750021 0.0262681935
  endloop
 endfacet

 facet normal 0 0 0
  outer loop
  vertex 0.000957000884 -0.0387150347 0.0493692309
  vertex -0.00116342807 -0.0335750021 0.0262681935
  vertex 0.00516169099 -0.0307068918 0.0212178864
  endloop
 endfacet

 facet normal 0 0 0
  outer loop
  vertex 0.000957000884 -0.0387150347 0.0493692309
  vertex 0.00516169099 -0.0307068918 0.0212178864
  vertex 0.00489039673 -0.0374688357 0.0504500829
  endloop
 endfacet

 facet normal 0 0 0
  outer loop
  vertex 0.000957000884 -0.0387150347 0.0493692309
  vertex 0.00489039673 -0.0374688357 0.0504500829
  vertex 0.00190923107 -0.0413904563 0.0737646222
  endloop
 endfacet

 facet normal 0 0 0
  outer loop
  vertex 0.000957000884 -0.0387150347 0.0493692309
  vertex 0.00190923107 -0.0413904563 0.0737646222
  vertex -0.00120362616 -0.0428580903 0.0755664632
  endloop
 endfacet

 facet normal 0 0 0
  outer loop
  vertex -0.0109266285 0.0335393474 0.0656717643
  vertex -0.0137184849 0.0297529008 0.0654349178
  vertex -0.00680271676 0.0379927792 0.0920228735
  endloop
 endfacet

 facet normal 0 0 0
  outer loop
  vertex -0.0109266285 0.0335393474 0.0656717643
  vertex -0.00680271676 0.0379927792 0.0920228735
  vertex -0.00803681277 0.0339695178 0.0551625378
  endloop
 endfacet

 facet normal 0 0 0
  outer loop
  vertex -0.0109266285 0.0335393474 0.0656717643
  vertex -0.00803681277 0.0339695178 0.0551625378
  vertex -0.0109713729 0.0301430151 0.0438468829
  endloop
 endfacet

 facet normal 0 0 0
  outer loop
  vertex -0.0109266285 0.0335393474 0.0656717643
  vertex -0.0109713729 0.0301430151 0.0438468829
  vertex -0.0137184849 0.0297529008 0.0654349178
  endloop
 endfacet

 facet normal 0 0 0
  outer loop
  vertex -0.0162639562 0.00652597891 0.0270501822
  vertex -0.0127999997 0.0115635078 -0.00900000893
  vertex -0.0130000003 -0.0114200059 -0.00867052656
  endloop
 endfacet

 facet normal 0 0 0
  outer loop
  vertex -0.00886966102 -0.0328023471 0.046470955
  vertex -0.006806836 -0.0317236409 0.0272910744
  vertex -0.00385031314 -0.0422544926 0.0727938041
  endloop
 endfacet

 facet normal 0 0 0
  outer loop
  vertex -0.00886966102 -0.0328023471 0.046470955
  vertex -0.00385031314 -0.0422544926 0.0727938041
  vertex -0.0101606464 -0.0295119099 0.0479856692
  endloop
 endfacet

 facet normal 0 0 0
  outer loop
  vertex -0.00886966102 -0.0328023471 0.046470955
  vertex -0.0101606464 -0.0295119099 0.0479856692
  vertex -0.011154796 -0.0190017745 -0.0049489052
  endloop
 endfacet

 facet normal 0 0 0
  outer loop
  vertex -0.00886966102 -0.0328023471 0.046470955
  vertex -0.011154796 -0.0190017745 -0.0049489052
  vertex -0.006806836 -0.0317236409 0.0272910744
  endloop
 endfacet

 facet normal 0 0 0
  outer loop
  vertex -0.0112124328 0.0200747233 -0.00444435794
  vertex -0.0124793677 0.0172056705 -0.00610496523
  vertex -0.0137184849 0.0297529008 0.0654349178
  endloop
 endfacet

 facet normal 0 0 0
  outer loop
  vertex -0.0112124328 0.0200747233 -0.00444435794
  vertex -0.0137184849 0.0297529008 0.0654349178
  vertex -0.0109713729 0.0301430151 0.0438468829
  endloop
 endfacet

 facet normal 0 0 0
  outer loop
  vertex -0.0112124328 0.0200747233 -0.00444435794
  vertex -0.0109713729 0.0301430151 0.0438468829
  vertex -0.00612935796 0.0250278413 -5.31569988e-09
  endloop
 endfacet

 facet normal 0 0 0
  outer loop
  vertex -0.0112124328 0.0200747233 -0.00444435794
  vertex -0.00612935796 0.0250278413 -5.31569988e-09
  vertex -0.00202554907 0.0264047366 0.000749990693
  endloop
 endfacet

 facet normal 0 0 0
  outer loop
  vertex -0.0112124328 0.0200747233 -0.00444435794
  vertex -0.00202554907 0.0264047366 0.000749990693
  vertex 0.0113749998 0.0198571067 -0.0045640883
  endloop
 endfacet

 facet normal 0 0 0
  outer loop
  vertex 0.0113749998 0.0198571067 -0.0045640883
  vertex 0.0127805611 0.0159420092 -0.0068420372
  vertex -0.0124793677 0.0172056705 -0.00610496523
  endloop
 endfacet

 facet normal 0 0 0
  outer loop
  vertex 0.0113749998 0.0198571067 -0.0045640883
  vertex -0.0124793677 0.0172056705 -0.00610496523
  vertex -0.0112124328 0.0200747233 -0.00444435794
  endloop
 endfacet

 facet normal 0 0 0
  outer loop
  vertex -0.00538473763 0.0212595239 0.0947177187
  vertex -0.00630237209 -0.0222872887 0.0865247026
  vertex 0.00190923107 -0.0413904563 0.0737646222
  endloop
 endfacet

 facet normal 0 0 0
  outer loop
  vertex -0.00538473763 0.0212595239 0.0947177187
  vertex 0.00190923107 -0.0413904563 0.0737646222
  vertex -0.00151365693 0.0367946997 0.092526786
  endloop
 endfacet

 facet normal 0 0 0
  outer loop
  vertex -0.00151365693 0.0367946997 0.092526786
  vertex -0.00432200963 0.0380812436 0.0939305276
  vertex -0.00760040712 0.0215110015 0.095832184
  endloop
 endfacet

 facet normal 0 0 0
  outer loop
  vertex -0.00151365693 0.0367946997 0.092526786
  vertex -0.00760040712 0.0215110015 0.095832184
  vertex -0.00538473763 0.0212595239 0.0947177187
  endloop
 endfacet

 facet normal 0 0 0
  outer loop
  vertex -0.00538473763 0.0212595239 0.0947177187
  vertex -0.00760040712 0.0215110015 0.095832184
  vertex -0.00630237209 -0.0222872887 0.0865247026
  endloop
 endfacet

 facet normal 0 0 0
  outer loop
  vertex -0.0124793677 0.0172056705 -0.00610496523
  vertex -0.0127999997 0.0115635078 -0.00900000893
  vertex -0.0162639562 0.00652597891 0.0270501822
  endloop
 endfacet

 facet normal 0 0 0
  outer loop
  vertex -0.0124793677 0.0172056705 -0.00610496523
  vertex -0.0162639562 0.00652597891 0.0270501822
  vertex -0.0177302547 0.00626503956 0.0617465563
  endloop
 endfacet

 facet normal 0 0 0
  outer loop
  vertex -0.0124793677 0.0172056705 -0.00610496523
  vertex -0.0177302547 0.00626503956 0.0617465563
  vertex -0.0154309832 0.014885325 0.0268101282
  endloop
 endfacet

 facet normal 0 0 0
  outer loop
  vertex -0.0154309832 0.014885325 0.0268101282
  vertex -0.0177302547 0.00626503956 0.0617465563
  vertex -0.0137184849 0.0297529008 0.0654349178
  endloop
 endfacet

 facet normal 0 0 0
  outer loop
  vertex -0.0154309832 0.014885325 0.0268101282
  vertex -0.0137184849 0.0297529008 0.0654349178
  vertex -0.0124793677 0.0172056705 -0.00610496523
  endloop
 endfacet

 facet normal 0 0 0
  outer loop
  vertex 0.0137399584 0.00826341938 0.0230309553
  vertex 0.00821665023 -0.032382898 0.0537753627
  vertex 0.0130000003 -0.010436493 -0.00880000833
  endloop
 endfacet

 facet normal 0 0 0
  outer loop
  vertex 0.0130000003 -0.010436493 -0.00880000833
  vertex 0.0127999997 0.0115635078 -0.00900000893
  vertex 0.0127805611 0.0159420092 -0.0068420372
  endloop
 endfacet

 facet normal 0 0 0
  outer loop
  vertex 0.0130000003 -0.010436493 -0.00880000833
  vertex 0.0127805611 0.0159420092 -0.0068420372
  vertex 0.013766963 0.0211846028 0.028084822
  endloop
 endfacet

 facet normal 0 0 0
  outer loop
  vertex 0.0130000003 -0.010436493 -0.00880000833
  vertex 0.013766963 0.0211846028 0.028084822
  vertex 0.0137399584 0.00826341938 0.0230309553
  endloop
 endfacet

 facet normal 0 0 0
  outer loop
  vertex 0.0137399584 0.00826341938 0.0230309553
  vertex 0.013766963 0.0211846028 0.028084822
  vertex 0.00821665023 -0.032382898 0.0537753627
  endloop
 endfacet

 facet normal 0 0 0
  outer loop
  vertex 0.00697713718 -0.0355682522 0.0533297695
  vertex 0.00821665023 -0.032382898 0.0537753627
  vertex 0.00190923107 -0.0413904563 0.0737646222
  endloop
 endfacet

 facet normal 0 0 0
  outer loop
  vertex 0.00697713718 -0.0355682522 0.0533297695
  vertex 0.00190923107 -0.0413904563 0.0737646222
  vertex 0.00489039673 -0.0374688357 0.0504500829
  endloop
 endfacet

 facet normal 0 0 0
  outer loop
  vertex 0.00697713718 -0.0355682522 0.0533297695
  vertex 0.00489039673 -0.0374688357 0.0504500829
  vertex 0.0114138853 -0.0186592899 -0.00511277327
  endloop
 endfacet

 facet normal 0 0 0
  outer loop
  vertex 0.00697713718 -0.0355682522 0.0533297695
  vertex 0.0114138853 -0.0186592899 -0.00511277327
  vertex 0.00821665023 -0.032382898 0.0537753627
  endloop
 endfacet

endsolid AssimpScene
