solid AssimpScene
 facet normal 0 0 0
  outer loop
  vertex -3.33319767e-05 0.00729950611 0.00477127265
  vertex 0.00342361815 0.00730000064 -0.00111303385
  vertex 0.000482546253 0.0071499995 -0.00371882156
  endloop
 endfacet

 facet normal 0 0 0
  outer loop
  vertex -3.33319767e-05 0.00729950611 0.00477127265
  vertex 0.000482546253 0.0071499995 -0.00371882156
  vertex -0.00258471561 0.0071499995 -0.00271693338
  endloop
 endfacet

 facet normal 0 0 0
  outer loop
  vertex -3.33319767e-05 0.00729950611 0.00477127265
  vertex -0.00258471561 0.0071499995 -0.00271693338
  vertex -0.00396273471 0.00730000017 0.00140494551
  endloop
 endfacet

 facet normal 0 0 0
  outer loop
  vertex 0.000424122292 -0.0091526201 0.0170044005
  vertex -0.0108801685 -0.0100163864 0.0109620551
  vertex -2.39262245e-05 -0.00730606588 -0.00375012541
  endloop
 endfacet

 facet normal 0 0 0
  outer loop
  vertex -0.00674180361 0.00413614884 0.00703609036
  vertex -0.0126710916 -0.00445799017 0.0128163714
  vertex -0.000179356459 -0.00281715672 0.0202832464
  endloop
 endfacet

 facet normal 0 0 0
  outer loop
  vertex -0.00674180361 0.00413614884 0.00703609036
  vertex -0.000179356459 -0.00281715672 0.0202832464
  vertex 0.0022574577 0.00376601168 0.0145940082
  endloop
 endfacet

 facet normal 0 0 0
  outer loop
  vertex 0.00341571425 -0.00593672181 -0.00153735105
  vertex 0.00342361815 0.00730000064 -0.00111303385
  vertex 0.00535341259 -0.00343218795 0.0106893592
  endloop
 endfacet

 facet normal 0 0 0
  outer loop
  vertex 0.00341571425 -0.00593672181 -0.00153735105
  vertex 0.00535341259 -0.00343218795 0.0106893592
  vertex 0.000424122292 -0.0091526201 0.0170044005
  endloop
 endfacet

 facet normal 0 0 0
  outer loop
  vertex 0.00341571425 -0.00593672181 -0.00153735105
  vertex 0.000424122292 -0.0091526201 0.0170044005
  vertex -2.39262245e-05 -0.00730606588 -0.00375012541
  endloop
 endfacet

 facet normal 0 0 0
  outer loop
  vertex 0.000482546253 0.0071499995 -0.00371882156
  vertex -2.39262245e-05 -0.00730606588 -0.00375012541
  vertex -0.00258471561 0.0071499995 -0.00271693338
  endloop
 endfacet

 facet normal 0 0 0
  outer loop
  vertex 0.000482546253 0.0071499995 -0.00371882156
  vertex 0.00342361815 0.00730000064 -0.00111303385
  vertex 0.00341571425 -0.00593672181 -0.00153735105
  endloop
 endfacet

 facet normal 0 0 0
  outer loop
  vertex 0.000482546253 0.0071499995 -0.00371882156
  vertex 0.00341571425 -0.00593672181 -0.00153735105
  vertex -2.39262245e-05 -0.00730606588 -0.00375012541
  endloop
 endfacet

 facet normal 0 0 0
  outer loop
  vertex -0.012403273 -0.00821802486 0.0131663401
  vertex -0.000521374808 -0.00527138589 0.0211934187
  vertex -0.0126710916 -0.00445799017 0.0128163714
  endloop
 endfacet

 facet normal 0 0 0
  outer loop
  vertex -3.33319767e-05 0.00729950611 0.00477127265
  vertex -0.00396273471 0.00730000017 0.00140494551
  vertex -0.00674180361 0.00413614884 0.00703609036
  endloop
 endfacet

 facet normal 0 0 0
  outer loop
  vertex -3.33319767e-05 0.00729950611 0.00477127265
  vertex -0.00674180361 0.00413614884 0.00703609036
  vertex 0.0022574577 0.00376601168 0.0145940082
  endloop
 endfacet

 facet normal 0 0 0
  outer loop
  vertex -3.33319767e-05 0.00729950611 0.00477127265
  vertex 0.0022574577 0.00376601168 0.0145940082
  vertex 0.00342361815 0.00730000064 -0.00111303385
  endloop
 endfacet

 facet normal 0 0 0
  outer loop
  vertex -0.00303661963 -0.00732950261 -0.00220032432
  vertex -2.39262245e-05 -0.00730606588 -0.00375012541
  vertex -0.0108801685 -0.0100163864 0.0109620551
  endloop
 endfacet

 facet normal 0 0 0
  outer loop
  vertex -0.00303661963 -0.00732950261 -0.00220032432
  vertex -0.0108801685 -0.0100163864 0.0109620551
  vertex -0.012403273 -0.00821802486 0.0131663401
  endloop
 endfacet

 facet normal 0 0 0
  outer loop
  vertex -0.00303661963 -0.00732950261 -0.00220032432
  vertex -0.012403273 -0.00821802486 0.0131663401
  vertex -0.0126710916 -0.00445799017 0.0128163714
  endloop
 endfacet

 facet normal 0 0 0
  outer loop
  vertex -0.00303661963 -0.00732950261 -0.00220032432
  vertex -0.0126710916 -0.00445799017 0.0128163714
  vertex -0.00258471561 0.0071499995 -0.00271693338
  endloop
 endfacet

 facet normal 0 0 0
  outer loop
  vertex -0.00303661963 -0.00732950261 -0.00220032432
  vertex -0.00258471561 0.0071499995 -0.00271693338
  vertex -2.39262245e-05 -0.00730606588 -0.00375012541
  endloop
 endfacet

 facet normal 0 0 0
  outer loop
  vertex -0.000262969959 -0.00809157826 0.0199418198
  vertex -0.000521374808 -0.00527138589 0.0211934187
  vertex -0.012403273 -0.00821802486 0.0131663401
  endloop
 endfacet

 facet normal 0 0 0
  outer loop
  vertex -0.000262969959 -0.00809157826 0.0199418198
  vertex -0.012403273 -0.00821802486 0.0131663401
  vertex -0.0108801685 -0.0100163864 0.0109620551
  endloop
 endfacet

 facet normal 0 0 0
  outer loop
  vertex -0.000262969959 -0.00809157826 0.0199418198
  vertex -0.0108801685 -0.0100163864 0.0109620551
  vertex 0.000424122292 -0.0091526201 0.0170044005
  endloop
 endfacet

 facet normal 0 0 0
  outer loop
  vertex -0.000262969959 -0.00809157826 0.0199418198
  vertex 0.000424122292 -0.0091526201 0.0170044005
  vertex 0.00535341259 -0.00343218795 0.0106893592
  endloop
 endfacet

 facet normal 0 0 0
  outer loop
  vertex -0.00396273471 0.00730000017 0.00140494551
  vertex -0.00258471561 0.0071499995 -0.00271693338
  vertex -0.0126710916 -0.00445799017 0.0128163714
  endloop
 endfacet

 facet normal 0 0 0
  outer loop
  vertex -0.00396273471 0.00730000017 0.00140494551
  vertex -0.0126710916 -0.00445799017 0.0128163714
  vertex -0.00674180361 0.00413614884 0.00703609036
  endloop
 endfacet

 facet normal 0 0 0
  outer loop
  vertex 0.00498632202 -8.04336305e-05 0.0119317928
  vertex 0.00342361815 0.00730000064 -0.00111303385
  vertex 0.0022574577 0.00376601168 0.0145940082
  endloop
 endfacet

 facet normal 0 0 0
  outer loop
  vertex 0.00498632202 -8.04336305e-05 0.0119317928
  vertex -0.000521374808 -0.00527138589 0.0211934187
  vertex -0.000262969959 -0.00809157826 0.0199418198
  endloop
 endfacet

 facet normal 0 0 0
  outer loop
  vertex 0.00498632202 -8.04336305e-05 0.0119317928
  vertex -0.000262969959 -0.00809157826 0.0199418198
  vertex 0.00535341259 -0.00343218795 0.0106893592
  endloop
 endfacet

 facet normal 0 0 0
  outer loop
  vertex 0.00498632202 -8.04336305e-05 0.0119317928
  vertex 0.00535341259 -0.00343218795 0.0106893592
  vertex 0.00342361815 0.00730000064 -0.00111303385
  endloop
 endfacet

 facet normal 0 0 0
  outer loop
  vertex -0.000179356459 -0.00281715672 0.0202832464
  vertex -0.000521374808 -0.00527138589 0.0211934187
  vertex 0.00498632202 -8.04336305e-05 0.0119317928
  endloop
 endfacet

 facet normal 0 0 0
  outer loop
  vertex -0.000179356459 -0.00281715672 0.0202832464
  vertex 0.00498632202 -8.04336305e-05 0.0119317928
  vertex 0.0022574577 0.00376601168 0.0145940082
  endloop
 endfacet

 facet normal 0 0 0
  outer loop
  vertex -0.000179356459 -0.00281715672 0.0202832464
  vertex -0.0126710916 -0.00445799017 0.0128163714
  vertex -0.000521374808 -0.00527138589 0.0211934187
  endloop
 endfacet

endsolid AssimpScene
