solid AssimpScene
 facet normal 0 0 0
  outer loop
  vertex -0.00662780739 -0.00351639418 -0.0160000008
  vertex -0.0074865967 -0.000450793828 -0.0160000008
  vertex -0.00525102997 0.00535387266 -0.0160000008
  endloop
 endfacet

 facet normal 0 0 0
  outer loop
  vertex -0.00662780739 -0.00351639418 -0.0160000008
  vertex -0.00525102997 0.00535387266 -0.0160000008
  vertex -0.000284259644 0.00749433599 -0.0160000008
  endloop
 endfacet

 facet normal 0 0 0
  outer loop
  vertex -0.00662780739 -0.00351639418 -0.0160000008
  vertex -0.000284259644 0.00749433599 -0.0160000008
  vertex 0.00476352265 0.0057948404 -0.0160000008
  endloop
 endfacet

 facet normal 0 0 0
  outer loop
  vertex -0.00662780739 -0.00351639418 -0.0160000008
  vertex 0.00476352265 0.0057948404 -0.0160000008
  vertex 0.00746159209 0.000759718416 -0.0160000008
  endloop
 endfacet

 facet normal 0 0 0
  outer loop
  vertex -0.00662780739 -0.00351639418 -0.0160000008
  vertex 0.00746159209 0.000759718416 -0.0160000008
  vertex 0.00600438099 -0.00449364726 -0.0160000008
  endloop
 endfacet

 facet normal 0 0 0
  outer loop
  vertex -0.00662780739 -0.00351639418 -0.0160000008
  vertex 0.00600438099 -0.00449364726 -0.0160000008
  vertex 0.00158223789 -0.00733046932 -0.0160000008
  endloop
 endfacet

 facet normal 0 0 0
  outer loop
  vertex -0.00662780739 -0.00351639418 -0.0160000008
  vertex 0.00158223789 -0.00733046932 -0.0160000008
  vertex -0.00431254087 -0.00613655197 -0.0160000008
  endloop
 endfacet

 facet normal 0 0 0
  outer loop
  vertex 0.00611555995 -0.00433407072 -0.0112203071
  vertex 0.00746159209 0.000759718416 -0.0160000008
  vertex 0.00711758761 0.000864407048 -0.00808054861
  endloop
 endfacet

 facet normal 0 0 0
  outer loop
  vertex 0.00476352265 0.0057948404 -0.0160000008
  vertex -0.000284259644 0.00749433599 -0.0160000008
  vertex 0.00136204436 0.00619975105 -0.00333745917
  endloop
 endfacet

 facet normal 0 0 0
  outer loop
  vertex 0.00600438099 -0.00449364726 -0.0160000008
  vertex 0.00746159209 0.000759718416 -0.0160000008
  vertex 0.00611555995 -0.00433407072 -0.0112203071
  endloop
 endfacet

 facet normal 0 0 0
  outer loop
  vertex -0.00103234337 -0.00724139111 -0.00678194268
  vertex 0.00207994413 -0.00563510135 -0.00297690975
  vertex -0.00212998665 -0.00421629613 7.47193553e-05
  endloop
 endfacet

 facet normal 0 0 0
  outer loop
  vertex -0.00103234337 -0.00724139111 -0.00678194268
  vertex -0.00212998665 -0.00421629613 7.47193553e-05
  vertex -0.00486389874 -0.00490790838 -0.00491443602
  endloop
 endfacet

 facet normal 0 0 0
  outer loop
  vertex -0.00103234337 -0.00724139111 -0.00678194268
  vertex -0.00486389874 -0.00490790838 -0.00491443602
  vertex -0.00431254087 -0.00613655197 -0.0160000008
  endloop
 endfacet

 facet normal 0 0 0
  outer loop
  vertex -0.00103234337 -0.00724139111 -0.00678194268
  vertex -0.00431254087 -0.00613655197 -0.0160000008
  vertex 0.00158223789 -0.00733046932 -0.0160000008
  endloop
 endfacet

 facet normal 0 0 0
  outer loop
  vertex 0.000880004955 0.00316664367 0.000663637707
  vertex 0.00136204436 0.00619975105 -0.00333745917
  vertex -0.002942716 0.00412611663 -0.000240393245
  endloop
 endfacet

 facet normal 0 0 0
  outer loop
  vertex -0.00202803104 0.00706754485 -0.00707271695
  vertex -0.000284259644 0.00749433599 -0.0160000008
  vertex -0.00525102997 0.00535387266 -0.0160000008
  endloop
 endfacet

 facet normal 0 0 0
  outer loop
  vertex -0.00202803104 0.00706754485 -0.00707271695
  vertex -0.00525102997 0.00535387266 -0.0160000008
  vertex -0.00547396205 0.00427003112 -0.00495013967
  endloop
 endfacet

 facet normal 0 0 0
  outer loop
  vertex -0.00202803104 0.00706754485 -0.00707271695
  vertex -0.00547396205 0.00427003112 -0.00495013967
  vertex -0.002942716 0.00412611663 -0.000240393245
  endloop
 endfacet

 facet normal 0 0 0
  outer loop
  vertex -0.00202803104 0.00706754485 -0.00707271695
  vertex -0.002942716 0.00412611663 -0.000240393245
  vertex 0.00136204436 0.00619975105 -0.00333745917
  endloop
 endfacet

 facet normal 0 0 0
  outer loop
  vertex -0.00202803104 0.00706754485 -0.00707271695
  vertex 0.00136204436 0.00619975105 -0.00333745917
  vertex -0.000284259644 0.00749433599 -0.0160000008
  endloop
 endfacet

 facet normal 0 0 0
  outer loop
  vertex 0.000892796437 -0.00272846827 0.000917675148
  vertex -0.00248560798 2.08704769e-05 0.00229907036
  vertex -0.00212998665 -0.00421629613 7.47193553e-05
  endloop
 endfacet

 facet normal 0 0 0
  outer loop
  vertex 0.000892796437 -0.00272846827 0.000917675148
  vertex -0.00212998665 -0.00421629613 7.47193553e-05
  vertex 0.00207994413 -0.00563510135 -0.00297690975
  endloop
 endfacet

 facet normal 0 0 0
  outer loop
  vertex 0.000892796437 -0.00272846827 0.000917675148
  vertex 0.00408203527 5.04721083e-06 -0.000674935523
  vertex 0.000880004955 0.00316664367 0.000663637707
  endloop
 endfacet

 facet normal 0 0 0
  outer loop
  vertex 0.000892796437 -0.00272846827 0.000917675148
  vertex 0.000880004955 0.00316664367 0.000663637707
  vertex -0.00248560798 2.08704769e-05 0.00229907036
  endloop
 endfacet

 facet normal 0 0 0
  outer loop
  vertex 0.00556603866 0.0047377455 -0.00915619172
  vertex 0.00711758761 0.000864407048 -0.00808054861
  vertex 0.00746159209 0.000759718416 -0.0160000008
  endloop
 endfacet

 facet normal 0 0 0
  outer loop
  vertex 0.00556603866 0.0047377455 -0.00915619172
  vertex 0.00746159209 0.000759718416 -0.0160000008
  vertex 0.00476352265 0.0057948404 -0.0160000008
  endloop
 endfacet

 facet normal 0 0 0
  outer loop
  vertex 0.00556603866 0.0047377455 -0.00915619172
  vertex 0.00476352265 0.0057948404 -0.0160000008
  vertex 0.00136204436 0.00619975105 -0.00333745917
  endloop
 endfacet

 facet normal 0 0 0
  outer loop
  vertex 0.00604220154 -0.00183123618 -0.00475893682
  vertex 0.00408203527 5.04721083e-06 -0.000674935523
  vertex 0.000892796437 -0.00272846827 0.000917675148
  endloop
 endfacet

 facet normal 0 0 0
  outer loop
  vertex 0.00604220154 -0.00183123618 -0.00475893682
  vertex 0.000892796437 -0.00272846827 0.000917675148
  vertex 0.00207994413 -0.00563510135 -0.00297690975
  endloop
 endfacet

 facet normal 0 0 0
  outer loop
  vertex 0.00604220154 -0.00183123618 -0.00475893682
  vertex 0.00207994413 -0.00563510135 -0.00297690975
  vertex 0.00323761068 -0.00651143026 -0.00891892519
  endloop
 endfacet

 facet normal 0 0 0
  outer loop
  vertex 0.00604220154 -0.00183123618 -0.00475893682
  vertex 0.00323761068 -0.00651143026 -0.00891892519
  vertex 0.00611555995 -0.00433407072 -0.0112203071
  endloop
 endfacet

 facet normal 0 0 0
  outer loop
  vertex 0.00604220154 -0.00183123618 -0.00475893682
  vertex 0.00611555995 -0.00433407072 -0.0112203071
  vertex 0.00711758761 0.000864407048 -0.00808054861
  endloop
 endfacet

 facet normal 0 0 0
  outer loop
  vertex 0.00604220154 -0.00183123618 -0.00475893682
  vertex 0.00711758761 0.000864407048 -0.00808054861
  vertex 0.00408203527 5.04721083e-06 -0.000674935523
  endloop
 endfacet

 facet normal 0 0 0
  outer loop
  vertex 0.00418470846 0.00350005482 -0.00283015636
  vertex 0.00408203527 5.04721083e-06 -0.000674935523
  vertex 0.00711758761 0.000864407048 -0.00808054861
  endloop
 endfacet

 facet normal 0 0 0
  outer loop
  vertex 0.00418470846 0.00350005482 -0.00283015636
  vertex 0.00711758761 0.000864407048 -0.00808054861
  vertex 0.00556603866 0.0047377455 -0.00915619172
  endloop
 endfacet

 facet normal 0 0 0
  outer loop
  vertex 0.00418470846 0.00350005482 -0.00283015636
  vertex 0.00556603866 0.0047377455 -0.00915619172
  vertex 0.00136204436 0.00619975105 -0.00333745917
  endloop
 endfacet

 facet normal 0 0 0
  outer loop
  vertex 0.00418470846 0.00350005482 -0.00283015636
  vertex 0.00136204436 0.00619975105 -0.00333745917
  vertex 0.000880004955 0.00316664367 0.000663637707
  endloop
 endfacet

 facet normal 0 0 0
  outer loop
  vertex 0.00418470846 0.00350005482 -0.00283015636
  vertex 0.000880004955 0.00316664367 0.000663637707
  vertex 0.00408203527 5.04721083e-06 -0.000674935523
  endloop
 endfacet

 facet normal 0 0 0
  outer loop
  vertex -0.00424489332 0.00132333825 0.00137810095
  vertex -0.00248560798 2.08704769e-05 0.00229907036
  vertex 0.000880004955 0.00316664367 0.000663637707
  endloop
 endfacet

 facet normal 0 0 0
  outer loop
  vertex -0.00424489332 0.00132333825 0.00137810095
  vertex 0.000880004955 0.00316664367 0.000663637707
  vertex -0.002942716 0.00412611663 -0.000240393245
  endloop
 endfacet

 facet normal 0 0 0
  outer loop
  vertex -0.00424489332 0.00132333825 0.00137810095
  vertex -0.002942716 0.00412611663 -0.000240393245
  vertex -0.00547396205 0.00427003112 -0.00495013967
  endloop
 endfacet

 facet normal 0 0 0
  outer loop
  vertex -0.00424489332 0.00132333825 0.00137810095
  vertex -0.00547396205 0.00427003112 -0.00495013967
  vertex -0.00585250091 -0.000386025727 -0.000664249121
  endloop
 endfacet

 facet normal 0 0 0
  outer loop
  vertex -0.00418874994 -0.00171384728 0.00120647985
  vertex -0.00585250091 -0.000386025727 -0.000664249121
  vertex -0.00486389874 -0.00490790838 -0.00491443602
  endloop
 endfacet

 facet normal 0 0 0
  outer loop
  vertex -0.00418874994 -0.00171384728 0.00120647985
  vertex -0.00486389874 -0.00490790838 -0.00491443602
  vertex -0.00212998665 -0.00421629613 7.47193553e-05
  endloop
 endfacet

 facet normal 0 0 0
  outer loop
  vertex -0.00418874994 -0.00171384728 0.00120647985
  vertex -0.00212998665 -0.00421629613 7.47193553e-05
  vertex -0.00248560798 2.08704769e-05 0.00229907036
  endloop
 endfacet

 facet normal 0 0 0
  outer loop
  vertex -0.00418874994 -0.00171384728 0.00120647985
  vertex -0.00248560798 2.08704769e-05 0.00229907036
  vertex -0.00424489332 0.00132333825 0.00137810095
  endloop
 endfacet

 facet normal 0 0 0
  outer loop
  vertex -0.00418874994 -0.00171384728 0.00120647985
  vertex -0.00424489332 0.00132333825 0.00137810095
  vertex -0.00585250091 -0.000386025727 -0.000664249121
  endloop
 endfacet

 facet normal 0 0 0
  outer loop
  vertex -0.00669269869 -0.00228726189 -0.00588481314
  vertex -0.00486389874 -0.00490790838 -0.00491443602
  vertex -0.00585250091 -0.000386025727 -0.000664249121
  endloop
 endfacet

 facet normal 0 0 0
  outer loop
  vertex -0.00700094271 0.00150260411 -0.00700797746
  vertex -0.0074865967 -0.000450793828 -0.0160000008
  vertex -0.00669269869 -0.00228726189 -0.00588481314
  endloop
 endfacet

 facet normal 0 0 0
  outer loop
  vertex -0.00700094271 0.00150260411 -0.00700797746
  vertex -0.00669269869 -0.00228726189 -0.00588481314
  vertex -0.00585250091 -0.000386025727 -0.000664249121
  endloop
 endfacet

 facet normal 0 0 0
  outer loop
  vertex -0.00700094271 0.00150260411 -0.00700797746
  vertex -0.00585250091 -0.000386025727 -0.000664249121
  vertex -0.00547396205 0.00427003112 -0.00495013967
  endloop
 endfacet

 facet normal 0 0 0
  outer loop
  vertex -0.00700094271 0.00150260411 -0.00700797746
  vertex -0.00547396205 0.00427003112 -0.00495013967
  vertex -0.00525102997 0.00535387266 -0.0160000008
  endloop
 endfacet

 facet normal 0 0 0
  outer loop
  vertex -0.00700094271 0.00150260411 -0.00700797746
  vertex -0.00525102997 0.00535387266 -0.0160000008
  vertex -0.0074865967 -0.000450793828 -0.0160000008
  endloop
 endfacet

 facet normal 0 0 0
  outer loop
  vertex 0.00323761068 -0.00651143026 -0.00891892519
  vertex 0.00158223789 -0.00733046932 -0.0160000008
  vertex 0.00600438099 -0.00449364726 -0.0160000008
  endloop
 endfacet

 facet normal 0 0 0
  outer loop
  vertex 0.00323761068 -0.00651143026 -0.00891892519
  vertex 0.00600438099 -0.00449364726 -0.0160000008
  vertex 0.00611555995 -0.00433407072 -0.0112203071
  endloop
 endfacet

 facet normal 0 0 0
  outer loop
  vertex 0.00323761068 -0.00651143026 -0.00891892519
  vertex 0.00207994413 -0.00563510135 -0.00297690975
  vertex -0.00103234337 -0.00724139111 -0.00678194268
  endloop
 endfacet

 facet normal 0 0 0
  outer loop
  vertex 0.00323761068 -0.00651143026 -0.00891892519
  vertex -0.00103234337 -0.00724139111 -0.00678194268
  vertex 0.00158223789 -0.00733046932 -0.0160000008
  endloop
 endfacet

 facet normal 0 0 0
  outer loop
  vertex -0.00662780739 -0.00351639418 -0.0160000008
  vertex -0.00431254087 -0.00613655197 -0.0160000008
  vertex -0.00486389874 -0.00490790838 -0.00491443602
  endloop
 endfacet

 facet normal 0 0 0
  outer loop
  vertex -0.00662780739 -0.00351639418 -0.0160000008
  vertex -0.00486389874 -0.00490790838 -0.00491443602
  vertex -0.00669269869 -0.00228726189 -0.00588481314
  endloop
 endfacet

 facet normal 0 0 0
  outer loop
  vertex -0.00662780739 -0.00351639418 -0.0160000008
  vertex -0.00669269869 -0.00228726189 -0.00588481314
  vertex -0.0074865967 -0.000450793828 -0.0160000008
  endloop
 endfacet

endsolid AssimpScene
