solid AssimpScene
 facet normal 0 0 0
  outer loop
  vertex -0.00679533323 -0.00482090702 0.00569938403
  vertex -0.00849933084 0.00087032828 0.00971440319
  vertex -0.00731615862 0.00412131799 0.00681629637
  endloop
 endfacet

 facet normal 0 0 0
  outer loop
  vertex -0.00679533323 -0.00482090702 0.00569938403
  vertex -0.00731615862 0.00412131799 0.00681629637
  vertex -0.00494926469 0.00640669512 0.00174047693
  endloop
 endfacet

 facet normal 0 0 0
  outer loop
  vertex -0.00679533323 -0.00482090702 0.00569938403
  vertex -0.00494926469 0.00640669512 0.00174047693
  vertex -0.00269323192 0.00731777214 -0.00260940683
  endloop
 endfacet

 facet normal 0 0 0
  outer loop
  vertex -0.00679533323 -0.00482090702 0.00569938403
  vertex -0.00269323192 0.00731777214 -0.00260940683
  vertex -0.00320102414 -0.0071849213 -0.00195344258
  endloop
 endfacet

 facet normal 0 0 0
  outer loop
  vertex -0.000425419916 -0.00275000022 0.0341808237
  vertex 0.00192059833 -0.00688662054 0.0256169513
  vertex 0.0048733307 -0.00186885044 0.0314349458
  endloop
 endfacet

 facet normal 0 0 0
  outer loop
  vertex 0.00342868944 0.00601592427 -0.00151874614
  vertex 0.000252361206 0.00738605857 -0.00374149997
  vertex 0.00267779059 0.00650796341 0.025513893
  endloop
 endfacet

 facet normal 0 0 0
  outer loop
  vertex -0.00539822131 -0.00275000045 0.0326883383
  vertex -0.000425419916 -0.00275000022 0.0341808237
  vertex -0.00166469149 0.000624649576 0.0346798114
  endloop
 endfacet

 facet normal 0 0 0
  outer loop
  vertex -0.00474835467 0.00275000022 0.0331480876
  vertex -0.0076453127 0.000886918744 0.0306902695
  vertex -0.00539822131 -0.00275000045 0.0326883383
  endloop
 endfacet

 facet normal 0 0 0
  outer loop
  vertex -0.00474835467 0.00275000022 0.0331480876
  vertex -0.00539822131 -0.00275000045 0.0326883383
  vertex -0.00166469149 0.000624649576 0.0346798114
  endloop
 endfacet

 facet normal 0 0 0
  outer loop
  vertex 0.00554999989 0.00275000022 0.0294955876
  vertex 0.00267779059 0.00650796341 0.025513893
  vertex 0.00333557953 0.00275000022 0.0326583609
  endloop
 endfacet

 facet normal 0 0 0
  outer loop
  vertex 0.00554999989 0.00275000022 0.0294955876
  vertex 0.00333557953 0.00275000022 0.0326583609
  vertex 0.0048733307 -0.00186885044 0.0314349458
  endloop
 endfacet

 facet normal 0 0 0
  outer loop
  vertex 0.00554999989 0.00275000022 0.0294955876
  vertex 0.0048733307 -0.00186885044 0.0314349458
  vertex 0.00645000022 1.29700001e-10 0.0228503253
  endloop
 endfacet

 facet normal 0 0 0
  outer loop
  vertex 0.00554999989 0.00275000022 0.0294955876
  vertex 0.00645000022 1.29700001e-10 0.0228503253
  vertex 0.00602999236 0.00247461372 0.00830162037
  endloop
 endfacet

 facet normal 0 0 0
  outer loop
  vertex 0.00554999989 0.00275000022 0.0294955876
  vertex 0.00602999236 0.00247461372 0.00830162037
  vertex 0.00342868944 0.00601592427 -0.00151874614
  endloop
 endfacet

 facet normal 0 0 0
  outer loop
  vertex 0.00554999989 0.00275000022 0.0294955876
  vertex 0.00342868944 0.00601592427 -0.00151874614
  vertex 0.00267779059 0.00650796341 0.025513893
  endloop
 endfacet

 facet normal 0 0 0
  outer loop
  vertex 0.00190242974 -0.00689442968 -0.00323160458
  vertex 0.000252361206 0.00738605857 -0.00374149997
  vertex 0.00342868944 0.00601592427 -0.00151874614
  endloop
 endfacet

 facet normal 0 0 0
  outer loop
  vertex 0.00190242974 -0.00689442968 -0.00323160458
  vertex 0.00342868944 0.00601592427 -0.00151874614
  vertex 0.00367009849 -0.00582843646 -0.000769985141
  endloop
 endfacet

 facet normal 0 0 0
  outer loop
  vertex 0.00190242974 -0.00689442968 -0.00323160458
  vertex 0.00367009849 -0.00582843646 -0.000769985141
  vertex 0.00192059833 -0.00688662054 0.0256169513
  endloop
 endfacet

 facet normal 0 0 0
  outer loop
  vertex 0.00190242974 -0.00689442968 -0.00323160458
  vertex -0.00148608605 -0.00748731149 -0.0034429701
  vertex 0.000252361206 0.00738605857 -0.00374149997
  endloop
 endfacet

 facet normal 0 0 0
  outer loop
  vertex -0.00269323192 0.00731777214 -0.00260940683
  vertex -0.00494926469 0.00640669512 0.00174047693
  vertex -0.00490407972 0.00643397775 0.0279951021
  endloop
 endfacet

 facet normal 0 0 0
  outer loop
  vertex -0.00269323192 0.00731777214 -0.00260940683
  vertex 0.000252361206 0.00738605857 -0.00374149997
  vertex -0.00148608605 -0.00748731149 -0.0034429701
  endloop
 endfacet

 facet normal 0 0 0
  outer loop
  vertex 0.0051556644 -0.00421185605 0.0242900588
  vertex 0.00192059833 -0.00688662054 0.0256169513
  vertex 0.00367009849 -0.00582843646 -0.000769985141
  endloop
 endfacet

 facet normal 0 0 0
  outer loop
  vertex 0.0051556644 -0.00421185605 0.0242900588
  vertex 0.00645000022 1.29700001e-10 0.0228503253
  vertex 0.0048733307 -0.00186885044 0.0314349458
  endloop
 endfacet

 facet normal 0 0 0
  outer loop
  vertex 0.0051556644 -0.00421185605 0.0242900588
  vertex 0.0048733307 -0.00186885044 0.0314349458
  vertex 0.00192059833 -0.00688662054 0.0256169513
  endloop
 endfacet

 facet normal 0 0 0
  outer loop
  vertex -0.00224712607 -0.00740384357 0.0261908565
  vertex -0.00148608605 -0.00748731149 -0.0034429701
  vertex 0.00190242974 -0.00689442968 -0.00323160458
  endloop
 endfacet

 facet normal 0 0 0
  outer loop
  vertex -0.00224712607 -0.00740384357 0.0261908565
  vertex 0.00190242974 -0.00689442968 -0.00323160458
  vertex 0.00192059833 -0.00688662054 0.0256169513
  endloop
 endfacet

 facet normal 0 0 0
  outer loop
  vertex -0.00224712607 -0.00740384357 0.0261908565
  vertex 0.00192059833 -0.00688662054 0.0256169513
  vertex -0.000425419916 -0.00275000022 0.0341808237
  endloop
 endfacet

 facet normal 0 0 0
  outer loop
  vertex -0.00224712607 -0.00740384357 0.0261908565
  vertex -0.000425419916 -0.00275000022 0.0341808237
  vertex -0.00539822131 -0.00275000045 0.0326883383
  endloop
 endfacet

 facet normal 0 0 0
  outer loop
  vertex -0.00224712607 -0.00740384357 0.0261908565
  vertex -0.00539822131 -0.00275000045 0.0326883383
  vertex -0.00619681226 -0.00545530254 0.0283333659
  endloop
 endfacet

 facet normal 0 0 0
  outer loop
  vertex -0.00844762474 -0.00122138183 0.0274138898
  vertex -0.00849933084 0.00087032828 0.00971440319
  vertex -0.00679533323 -0.00482090702 0.00569938403
  endloop
 endfacet

 facet normal 0 0 0
  outer loop
  vertex -0.00844762474 -0.00122138183 0.0274138898
  vertex -0.00679533323 -0.00482090702 0.00569938403
  vertex -0.00619681226 -0.00545530254 0.0283333659
  endloop
 endfacet

 facet normal 0 0 0
  outer loop
  vertex -0.00761618279 0.00362425786 0.0275556631
  vertex -0.00849933084 0.00087032828 0.00971440319
  vertex -0.00844762474 -0.00122138183 0.0274138898
  endloop
 endfacet

 facet normal 0 0 0
  outer loop
  vertex -0.00761618279 0.00362425786 0.0275556631
  vertex -0.00844762474 -0.00122138183 0.0274138898
  vertex -0.0076453127 0.000886918744 0.0306902695
  endloop
 endfacet

 facet normal 0 0 0
  outer loop
  vertex -0.00761618279 0.00362425786 0.0275556631
  vertex -0.0076453127 0.000886918744 0.0306902695
  vertex -0.00474835467 0.00275000022 0.0331480876
  endloop
 endfacet

 facet normal 0 0 0
  outer loop
  vertex -0.00761618279 0.00362425786 0.0275556631
  vertex -0.00474835467 0.00275000022 0.0331480876
  vertex -0.00490407972 0.00643397775 0.0279951021
  endloop
 endfacet

 facet normal 0 0 0
  outer loop
  vertex 0.00367009849 -0.00582843646 -0.000769985141
  vertex 0.00342868944 0.00601592427 -0.00151874614
  vertex 0.00602999236 0.00247461372 0.00830162037
  endloop
 endfacet

 facet normal 0 0 0
  outer loop
  vertex 0.00367009849 -0.00582843646 -0.000769985141
  vertex 0.00602999236 0.00247461372 0.00830162037
  vertex 0.00623889454 -0.001766923 0.00880360696
  endloop
 endfacet

 facet normal 0 0 0
  outer loop
  vertex 0.00623889454 -0.001766923 0.00880360696
  vertex 0.00602999236 0.00247461372 0.00830162037
  vertex 0.00645000022 1.29700001e-10 0.0228503253
  endloop
 endfacet

 facet normal 0 0 0
  outer loop
  vertex 0.00623889454 -0.001766923 0.00880360696
  vertex 0.00645000022 1.29700001e-10 0.0228503253
  vertex 0.0051556644 -0.00421185605 0.0242900588
  endloop
 endfacet

 facet normal 0 0 0
  outer loop
  vertex 0.00623889454 -0.001766923 0.00880360696
  vertex 0.0051556644 -0.00421185605 0.0242900588
  vertex 0.00367009849 -0.00582843646 -0.000769985141
  endloop
 endfacet

 facet normal 0 0 0
  outer loop
  vertex -0.000241693022 0.00275000022 0.0341618545
  vertex -0.00490407972 0.00643397775 0.0279951021
  vertex -0.00474835467 0.00275000022 0.0331480876
  endloop
 endfacet

 facet normal 0 0 0
  outer loop
  vertex -0.000241693022 0.00275000022 0.0341618545
  vertex -0.00474835467 0.00275000022 0.0331480876
  vertex -0.00166469149 0.000624649576 0.0346798114
  endloop
 endfacet

 facet normal 0 0 0
  outer loop
  vertex -0.00134424807 0.0074942261 0.0257326402
  vertex -0.00490407972 0.00643397775 0.0279951021
  vertex -0.000241693022 0.00275000022 0.0341618545
  endloop
 endfacet

 facet normal 0 0 0
  outer loop
  vertex -0.000241693022 0.00275000022 0.0341618545
  vertex 0.00333557953 0.00275000022 0.0326583609
  vertex 0.00267779059 0.00650796341 0.025513893
  endloop
 endfacet

 facet normal 0 0 0
  outer loop
  vertex -0.000241693022 0.00275000022 0.0341618545
  vertex 0.00267779059 0.00650796341 0.025513893
  vertex -0.00134424807 0.0074942261 0.0257326402
  endloop
 endfacet

 facet normal 0 0 0
  outer loop
  vertex -0.00134424807 0.0074942261 0.0257326402
  vertex 0.00267779059 0.00650796341 0.025513893
  vertex 0.000252361206 0.00738605857 -0.00374149997
  endloop
 endfacet

 facet normal 0 0 0
  outer loop
  vertex -0.00134424807 0.0074942261 0.0257326402
  vertex 0.000252361206 0.00738605857 -0.00374149997
  vertex -0.00269323192 0.00731777214 -0.00260940683
  endloop
 endfacet

 facet normal 0 0 0
  outer loop
  vertex -0.00134424807 0.0074942261 0.0257326402
  vertex -0.00269323192 0.00731777214 -0.00260940683
  vertex -0.00490407972 0.00643397775 0.0279951021
  endloop
 endfacet

 facet normal 0 0 0
  outer loop
  vertex 0.00196841592 -0.0005737592 0.0340729691
  vertex 0.00333557953 0.00275000022 0.0326583609
  vertex -0.000241693022 0.00275000022 0.0341618545
  endloop
 endfacet

 facet normal 0 0 0
  outer loop
  vertex 0.00196841592 -0.0005737592 0.0340729691
  vertex -0.000241693022 0.00275000022 0.0341618545
  vertex -0.00166469149 0.000624649576 0.0346798114
  endloop
 endfacet

 facet normal 0 0 0
  outer loop
  vertex 0.00196841592 -0.0005737592 0.0340729691
  vertex -0.00166469149 0.000624649576 0.0346798114
  vertex -0.000425419916 -0.00275000022 0.0341808237
  endloop
 endfacet

 facet normal 0 0 0
  outer loop
  vertex 0.00196841592 -0.0005737592 0.0340729691
  vertex -0.000425419916 -0.00275000022 0.0341808237
  vertex 0.0048733307 -0.00186885044 0.0314349458
  endloop
 endfacet

 facet normal 0 0 0
  outer loop
  vertex 0.00196841592 -0.0005737592 0.0340729691
  vertex 0.0048733307 -0.00186885044 0.0314349458
  vertex 0.00333557953 0.00275000022 0.0326583609
  endloop
 endfacet

 facet normal 0 0 0
  outer loop
  vertex -0.00320102414 -0.0071849213 -0.00195344258
  vertex -0.00269323192 0.00731777214 -0.00260940683
  vertex -0.00148608605 -0.00748731149 -0.0034429701
  endloop
 endfacet

 facet normal 0 0 0
  outer loop
  vertex -0.00320102414 -0.0071849213 -0.00195344258
  vertex -0.00148608605 -0.00748731149 -0.0034429701
  vertex -0.00224712607 -0.00740384357 0.0261908565
  endloop
 endfacet

 facet normal 0 0 0
  outer loop
  vertex -0.00320102414 -0.0071849213 -0.00195344258
  vertex -0.00224712607 -0.00740384357 0.0261908565
  vertex -0.00619681226 -0.00545530254 0.0283333659
  endloop
 endfacet

 facet normal 0 0 0
  outer loop
  vertex -0.00320102414 -0.0071849213 -0.00195344258
  vertex -0.00619681226 -0.00545530254 0.0283333659
  vertex -0.00679533323 -0.00482090702 0.00569938403
  endloop
 endfacet

 facet normal 0 0 0
  outer loop
  vertex -0.00731615862 0.00412131799 0.00681629637
  vertex -0.00849933084 0.00087032828 0.00971440319
  vertex -0.00761618279 0.00362425786 0.0275556631
  endloop
 endfacet

 facet normal 0 0 0
  outer loop
  vertex -0.00731615862 0.00412131799 0.00681629637
  vertex -0.00761618279 0.00362425786 0.0275556631
  vertex -0.00490407972 0.00643397775 0.0279951021
  endloop
 endfacet

 facet normal 0 0 0
  outer loop
  vertex -0.00731615862 0.00412131799 0.00681629637
  vertex -0.00490407972 0.00643397775 0.0279951021
  vertex -0.00494926469 0.00640669512 0.00174047693
  endloop
 endfacet

 facet normal 0 0 0
  outer loop
  vertex -0.00733466446 -0.00275000022 0.030262772
  vertex -0.00539822131 -0.00275000045 0.0326883383
  vertex -0.0076453127 0.000886918744 0.0306902695
  endloop
 endfacet

 facet normal 0 0 0
  outer loop
  vertex -0.00733466446 -0.00275000022 0.030262772
  vertex -0.0076453127 0.000886918744 0.0306902695
  vertex -0.00844762474 -0.00122138183 0.0274138898
  endloop
 endfacet

 facet normal 0 0 0
  outer loop
  vertex -0.00733466446 -0.00275000022 0.030262772
  vertex -0.00844762474 -0.00122138183 0.0274138898
  vertex -0.00619681226 -0.00545530254 0.0283333659
  endloop
 endfacet

 facet normal 0 0 0
  outer loop
  vertex -0.00733466446 -0.00275000022 0.030262772
  vertex -0.00619681226 -0.00545530254 0.0283333659
  vertex -0.00539822131 -0.00275000045 0.0326883383
  endloop
 endfacet

endsolid AssimpScene
