solid AssimpScene
 facet normal 0 0 0
  outer loop
  vertex -0.00274958904 0.00733244279 0.0481563285
  vertex 0.000699213066 0.00623771315 0.0488033742
  vertex 0.00275080884 0.00881263334 0.047642298
  endloop
 endfacet

 facet normal 0 0 0
  outer loop
  vertex -0.00274958904 0.00733244279 0.0481563285
  vertex 0.00275080884 0.00881263334 0.047642298
  vertex 0.000481971918 0.011255797 0.0464725457
  endloop
 endfacet

 facet normal 0 0 0
  outer loop
  vertex -0.00548119936 0.00644999975 -0.00405328535
  vertex 9.42764478e-11 0.00644999975 -0.00530796312
  vertex -5.72643408e-12 0.000800000329 -0.00175000145
  endloop
 endfacet

 facet normal 0 0 0
  outer loop
  vertex -0.00548119936 0.00644999975 -0.00405328535
  vertex -5.72643408e-12 0.000800000329 -0.00175000145
  vertex -0.00530330092 0.000496698893 0.00394999795
  endloop
 endfacet

 facet normal 0 0 0
  outer loop
  vertex -0.00548119936 0.00644999975 -0.00405328535
  vertex -0.00194212084 0.0130441813 -0.00518170558
  vertex 9.42764478e-11 0.00644999975 -0.00530796312
  endloop
 endfacet

 facet normal 0 0 0
  outer loop
  vertex -0.0074035218 0.00699911453 0.04030855
  vertex -0.00610532705 0.00144397083 0.0394612141
  vertex -0.00275133294 0.000840274501 0.0462561473
  endloop
 endfacet

 facet normal 0 0 0
  outer loop
  vertex -0.0074035218 0.00699911453 0.04030855
  vertex -0.00275133294 0.000840274501 0.0462561473
  vertex -0.00197188696 0.00344360084 0.0481905937
  endloop
 endfacet

 facet normal 0 0 0
  outer loop
  vertex -0.0074035218 0.00699911453 0.04030855
  vertex -0.00197188696 0.00344360084 0.0481905937
  vertex -0.00274958904 0.00733244279 0.0481563285
  endloop
 endfacet

 facet normal 0 0 0
  outer loop
  vertex 0.00724444352 0.00385885686 0.00368421013
  vertex 0.00649519032 0.00955000054 -0.00252482481
  vertex 0.00740250107 0.00459460821 0.0396206304
  endloop
 endfacet

 facet normal 0 0 0
  outer loop
  vertex 0.0054811989 0.00644999975 -0.00405328488
  vertex 0.00649519032 0.00955000054 -0.00252482481
  vertex 0.00724444352 0.00385885686 0.00368421013
  endloop
 endfacet

 facet normal 0 0 0
  outer loop
  vertex 0.0054811989 0.00644999975 -0.00405328488
  vertex 0.00724444352 0.00385885686 0.00368421013
  vertex 0.00374999992 -0.000695191149 0.00394999888
  endloop
 endfacet

 facet normal 0 0 0
  outer loop
  vertex 0.0054811989 0.00644999975 -0.00405328488
  vertex 0.00374999992 -0.000695191149 0.00394999888
  vertex -5.72643408e-12 0.000800000329 -0.00175000145
  endloop
 endfacet

 facet normal 0 0 0
  outer loop
  vertex 0.0054811989 0.00644999975 -0.00405328488
  vertex -5.72643408e-12 0.000800000329 -0.00175000145
  vertex 9.42764478e-11 0.00644999975 -0.00530796312
  endloop
 endfacet

 facet normal 0 0 0
  outer loop
  vertex 0.000351508817 0.0132915238 0.0414082184
  vertex 0.000481971918 0.011255797 0.0464725457
  vertex 0.00507070264 0.0113261174 0.0423811562
  endloop
 endfacet

 facet normal 0 0 0
  outer loop
  vertex 0.00375000015 0.0122951912 -0.00483165076
  vertex 0.00649519032 0.00955000054 -0.00252482481
  vertex 0.0054811989 0.00644999975 -0.00405328488
  endloop
 endfacet

 facet normal 0 0 0
  outer loop
  vertex 0.00375000015 0.0122951912 -0.00483165076
  vertex 0.0054811989 0.00644999975 -0.00405328488
  vertex 9.42764478e-11 0.00644999975 -0.00530796312
  endloop
 endfacet

 facet normal 0 0 0
  outer loop
  vertex 0.00375000015 0.0122951912 -0.00483165076
  vertex 9.42764478e-11 0.00644999975 -0.00530796312
  vertex -0.00194212084 0.0130441813 -0.00518170558
  endloop
 endfacet

 facet normal 0 0 0
  outer loop
  vertex 0.00375000015 0.0122951912 -0.00483165076
  vertex -0.00194212084 0.0130441813 -0.00518170558
  vertex 0.000351508817 0.0132915238 0.0414082184
  endloop
 endfacet

 facet normal 0 0 0
  outer loop
  vertex 0.00375000015 0.0122951912 -0.00483165076
  vertex 0.000351508817 0.0132915238 0.0414082184
  vertex 0.00507070264 0.0113261174 0.0423811562
  endloop
 endfacet

 facet normal 0 0 0
  outer loop
  vertex 0.00375000015 0.0122951912 -0.00483165076
  vertex 0.00507070264 0.0113261174 0.0423811562
  vertex 0.00649519032 0.00955000054 -0.00252482481
  endloop
 endfacet

 facet normal 0 0 0
  outer loop
  vertex -0.0019411433 -0.00144444441 0.0369680151
  vertex -0.00610532705 0.00144397083 0.0394612141
  vertex -0.00530330092 0.000496698893 0.00394999795
  endloop
 endfacet

 facet normal 0 0 0
  outer loop
  vertex -0.0019411433 -0.00144444441 0.0369680151
  vertex -0.00194114295 -0.00144444441 0.00394999795
  vertex 0.00374999992 -0.000695191149 0.00394999888
  endloop
 endfacet

 facet normal 0 0 0
  outer loop
  vertex -0.0019411433 -0.00144444441 0.0369680151
  vertex 0.00374999992 -0.000695191149 0.00394999888
  vertex 0.00274822651 -0.00080073881 0.0436132774
  endloop
 endfacet

 facet normal 0 0 0
  outer loop
  vertex -0.00548119936 0.0109192245 -0.00405328535
  vertex -0.00194212084 0.0130441813 -0.00518170558
  vertex -0.00548119936 0.00644999975 -0.00405328535
  endloop
 endfacet

 facet normal 0 0 0
  outer loop
  vertex -0.00548119936 0.0109192245 -0.00405328535
  vertex -0.00548119936 0.00644999975 -0.00405328535
  vertex -0.00724444399 0.007741143 -0.000369114685
  endloop
 endfacet

 facet normal 0 0 0
  outer loop
  vertex -0.00548119936 0.0109192245 -0.00405328535
  vertex -0.00459061377 0.0117309587 0.0422170684
  vertex -0.00194212084 0.0130441813 -0.00518170558
  endloop
 endfacet

 facet normal 0 0 0
  outer loop
  vertex -0.00194114295 -0.00144444441 0.00394999795
  vertex -0.0019411433 -0.00144444441 0.0369680151
  vertex -0.00530330092 0.000496698893 0.00394999795
  endloop
 endfacet

 facet normal 0 0 0
  outer loop
  vertex -0.00194114295 -0.00144444441 0.00394999795
  vertex -0.00530330092 0.000496698893 0.00394999795
  vertex -5.72643408e-12 0.000800000329 -0.00175000145
  endloop
 endfacet

 facet normal 0 0 0
  outer loop
  vertex -0.00194114295 -0.00144444441 0.00394999795
  vertex -5.72643408e-12 0.000800000329 -0.00175000145
  vertex 0.00374999992 -0.000695191149 0.00394999888
  endloop
 endfacet

 facet normal 0 0 0
  outer loop
  vertex 0.00275080884 0.00881263334 0.047642298
  vertex 0.00507070264 0.0113261174 0.0423811562
  vertex 0.000481971918 0.011255797 0.0464725457
  endloop
 endfacet

 facet normal 0 0 0
  outer loop
  vertex 0.00275080884 0.00881263334 0.047642298
  vertex 0.000699213066 0.00623771315 0.0488033742
  vertex 0.00274936599 0.00344165321 0.047916159
  endloop
 endfacet

 facet normal 0 0 0
  outer loop
  vertex 0.00610298524 0.00144069153 0.0394612141
  vertex 0.00374999992 -0.000695191149 0.00394999888
  vertex 0.00724444352 0.00385885686 0.00368421013
  endloop
 endfacet

 facet normal 0 0 0
  outer loop
  vertex 0.00610298524 0.00144069153 0.0394612141
  vertex 0.00724444352 0.00385885686 0.00368421013
  vertex 0.00740250107 0.00459460821 0.0396206304
  endloop
 endfacet

 facet normal 0 0 0
  outer loop
  vertex 0.00610298524 0.00144069153 0.0394612141
  vertex 0.00740250107 0.00459460821 0.0396206304
  vertex 0.00274936599 0.00344165321 0.047916159
  endloop
 endfacet

 facet normal 0 0 0
  outer loop
  vertex 0.00610298524 0.00144069153 0.0394612141
  vertex 0.00274936599 0.00344165321 0.047916159
  vertex 0.00274822651 -0.00080073881 0.0436132774
  endloop
 endfacet

 facet normal 0 0 0
  outer loop
  vertex 0.00610298524 0.00144069153 0.0394612141
  vertex 0.00274822651 -0.00080073881 0.0436132774
  vertex 0.00374999992 -0.000695191149 0.00394999888
  endloop
 endfacet

 facet normal 0 0 0
  outer loop
  vertex -0.00274869823 0.0106491009 0.0463669337
  vertex -0.00274958904 0.00733244279 0.0481563285
  vertex 0.000481971918 0.011255797 0.0464725457
  endloop
 endfacet

 facet normal 0 0 0
  outer loop
  vertex -0.00217053434 -0.000799417787 0.0441749133
  vertex -0.00275133294 0.000840274501 0.0462561473
  vertex -0.00610532705 0.00144397083 0.0394612141
  endloop
 endfacet

 facet normal 0 0 0
  outer loop
  vertex -0.00217053434 -0.000799417787 0.0441749133
  vertex -0.00610532705 0.00144397083 0.0394612141
  vertex -0.0019411433 -0.00144444441 0.0369680151
  endloop
 endfacet

 facet normal 0 0 0
  outer loop
  vertex -0.00217053434 -0.000799417787 0.0441749133
  vertex -0.0019411433 -0.00144444441 0.0369680151
  vertex 0.00274822651 -0.00080073881 0.0436132774
  endloop
 endfacet

 facet normal 0 0 0
  outer loop
  vertex -0.00724444399 0.00385885686 0.00368420966
  vertex -0.00610532705 0.00144397083 0.0394612141
  vertex -0.0074035218 0.00699911453 0.04030855
  endloop
 endfacet

 facet normal 0 0 0
  outer loop
  vertex -0.00724444399 0.00385885686 0.00368420966
  vertex -0.0074035218 0.00699911453 0.04030855
  vertex -0.00724444399 0.007741143 -0.000369114685
  endloop
 endfacet

 facet normal 0 0 0
  outer loop
  vertex -0.00724444399 0.00385885686 0.00368420966
  vertex -0.00724444399 0.007741143 -0.000369114685
  vertex -0.00548119936 0.00644999975 -0.00405328535
  endloop
 endfacet

 facet normal 0 0 0
  outer loop
  vertex -0.00724444399 0.00385885686 0.00368420966
  vertex -0.00548119936 0.00644999975 -0.00405328535
  vertex -0.00530330092 0.000496698893 0.00394999795
  endloop
 endfacet

 facet normal 0 0 0
  outer loop
  vertex -0.00724444399 0.00385885686 0.00368420966
  vertex -0.00530330092 0.000496698893 0.00394999795
  vertex -0.00610532705 0.00144397083 0.0394612141
  endloop
 endfacet

 facet normal 0 0 0
  outer loop
  vertex 0.00649518985 0.00955000054 0.0420432985
  vertex 0.00507070264 0.0113261174 0.0423811562
  vertex 0.00275080884 0.00881263334 0.047642298
  endloop
 endfacet

 facet normal 0 0 0
  outer loop
  vertex 0.00649518985 0.00955000054 0.0420432985
  vertex 0.00275080884 0.00881263334 0.047642298
  vertex 0.00274936599 0.00344165321 0.047916159
  endloop
 endfacet

 facet normal 0 0 0
  outer loop
  vertex 0.00649518985 0.00955000054 0.0420432985
  vertex 0.00274936599 0.00344165321 0.047916159
  vertex 0.00740250107 0.00459460821 0.0396206304
  endloop
 endfacet

 facet normal 0 0 0
  outer loop
  vertex 0.00649518985 0.00955000054 0.0420432985
  vertex 0.00740250107 0.00459460821 0.0396206304
  vertex 0.00649519032 0.00955000054 -0.00252482481
  endloop
 endfacet

 facet normal 0 0 0
  outer loop
  vertex 0.00649518985 0.00955000054 0.0420432985
  vertex 0.00649519032 0.00955000054 -0.00252482481
  vertex 0.00507070264 0.0113261174 0.0423811562
  endloop
 endfacet

 facet normal 0 0 0
  outer loop
  vertex -0.00197188696 0.00344360084 0.0481905937
  vertex 0.000699213066 0.00623771315 0.0488033742
  vertex -0.00274958904 0.00733244279 0.0481563285
  endloop
 endfacet

 facet normal 0 0 0
  outer loop
  vertex -0.00197188696 0.00344360084 0.0481905937
  vertex 0.00274936599 0.00344165321 0.047916159
  vertex 0.000699213066 0.00623771315 0.0488033742
  endloop
 endfacet

 facet normal 0 0 0
  outer loop
  vertex 0.000535322353 0.000981037621 0.0470708571
  vertex 0.00274822651 -0.00080073881 0.0436132774
  vertex 0.00274936599 0.00344165321 0.047916159
  endloop
 endfacet

 facet normal 0 0 0
  outer loop
  vertex 0.000535322353 0.000981037621 0.0470708571
  vertex 0.00274936599 0.00344165321 0.047916159
  vertex -0.00197188696 0.00344360084 0.0481905937
  endloop
 endfacet

 facet normal 0 0 0
  outer loop
  vertex 0.000535322353 0.000981037621 0.0470708571
  vertex -0.00197188696 0.00344360084 0.0481905937
  vertex -0.00275133294 0.000840274501 0.0462561473
  endloop
 endfacet

 facet normal 0 0 0
  outer loop
  vertex 0.000535322353 0.000981037621 0.0470708571
  vertex -0.00275133294 0.000840274501 0.0462561473
  vertex -0.00217053434 -0.000799417787 0.0441749133
  endloop
 endfacet

 facet normal 0 0 0
  outer loop
  vertex 0.000535322353 0.000981037621 0.0470708571
  vertex -0.00217053434 -0.000799417787 0.0441749133
  vertex 0.00274822651 -0.00080073881 0.0436132774
  endloop
 endfacet

 facet normal 0 0 0
  outer loop
  vertex -0.0061776503 0.0100528384 0.0423216186
  vertex -0.0074035218 0.00699911453 0.04030855
  vertex -0.00274958904 0.00733244279 0.0481563285
  endloop
 endfacet

 facet normal 0 0 0
  outer loop
  vertex -0.0061776503 0.0100528384 0.0423216186
  vertex -0.00274958904 0.00733244279 0.0481563285
  vertex -0.00274869823 0.0106491009 0.0463669337
  endloop
 endfacet

 facet normal 0 0 0
  outer loop
  vertex -0.0061776503 0.0100528384 0.0423216186
  vertex -0.00274869823 0.0106491009 0.0463669337
  vertex -0.00459061377 0.0117309587 0.0422170684
  endloop
 endfacet

 facet normal 0 0 0
  outer loop
  vertex -0.0061776503 0.0100528384 0.0423216186
  vertex -0.00459061377 0.0117309587 0.0422170684
  vertex -0.00548119936 0.0109192245 -0.00405328535
  endloop
 endfacet

 facet normal 0 0 0
  outer loop
  vertex -0.0061776503 0.0100528384 0.0423216186
  vertex -0.00548119936 0.0109192245 -0.00405328535
  vertex -0.00724444399 0.007741143 -0.000369114685
  endloop
 endfacet

 facet normal 0 0 0
  outer loop
  vertex -0.0061776503 0.0100528384 0.0423216186
  vertex -0.00724444399 0.007741143 -0.000369114685
  vertex -0.0074035218 0.00699911453 0.04030855
  endloop
 endfacet

 facet normal 0 0 0
  outer loop
  vertex -0.00168369047 0.0127707273 0.0435452722
  vertex -0.00459061377 0.0117309587 0.0422170684
  vertex -0.00274869823 0.0106491009 0.0463669337
  endloop
 endfacet

 facet normal 0 0 0
  outer loop
  vertex -0.00168369047 0.0127707273 0.0435452722
  vertex -0.00274869823 0.0106491009 0.0463669337
  vertex 0.000481971918 0.011255797 0.0464725457
  endloop
 endfacet

 facet normal 0 0 0
  outer loop
  vertex -0.00168369047 0.0127707273 0.0435452722
  vertex 0.000481971918 0.011255797 0.0464725457
  vertex 0.000351508817 0.0132915238 0.0414082184
  endloop
 endfacet

 facet normal 0 0 0
  outer loop
  vertex -0.00168369047 0.0127707273 0.0435452722
  vertex 0.000351508817 0.0132915238 0.0414082184
  vertex -0.00194212084 0.0130441813 -0.00518170558
  endloop
 endfacet

 facet normal 0 0 0
  outer loop
  vertex -0.00168369047 0.0127707273 0.0435452722
  vertex -0.00194212084 0.0130441813 -0.00518170558
  vertex -0.00459061377 0.0117309587 0.0422170684
  endloop
 endfacet

endsolid AssimpScene
