solid AssimpScene
 facet normal 0 0 0
  outer loop
  vertex -0.00104999985 -0.00769999996 0.0173000004
  vertex 0.0042533013 -0.00550330104 0.0173000004
  vertex 0.00644999975 -0.000199999806 0.0173000004
  endloop
 endfacet

 facet normal 0 0 0
  outer loop
  vertex -0.00104999985 -0.00769999996 0.0173000004
  vertex 0.00644999975 -0.000199999806 0.0173000004
  vertex 0.00425330084 0.00510330079 0.0173000004
  endloop
 endfacet

 facet normal 0 0 0
  outer loop
  vertex -0.00104999985 -0.00769999996 0.0173000004
  vertex 0.00425330084 0.00510330079 0.0173000004
  vertex -0.0010500002 0.00730000017 0.0173000004
  endloop
 endfacet

 facet normal 0 0 0
  outer loop
  vertex -0.00104999985 -0.00769999996 0.0173000004
  vertex -0.0010500002 0.00730000017 0.0173000004
  vertex -0.006353301 0.00510330079 0.0173000004
  endloop
 endfacet

 facet normal 0 0 0
  outer loop
  vertex -0.00104999985 -0.00769999996 0.0173000004
  vertex -0.006353301 0.00510330079 0.0173000004
  vertex -0.00855000038 -0.000200000199 0.0173000004
  endloop
 endfacet

 facet normal 0 0 0
  outer loop
  vertex -0.00104999985 -0.00769999996 0.0173000004
  vertex -0.00855000038 -0.000200000199 0.0173000004
  vertex -0.00635330053 -0.00550330104 0.0173000004
  endloop
 endfacet

 facet normal 0 0 0
  outer loop
  vertex -0.00855000038 -0.000200000199 0.0173000004
  vertex -0.00778759411 -0.00294999988 0.000454330235
  vertex -0.00635330053 -0.00550330104 0.0173000004
  endloop
 endfacet

 facet normal 0 0 0
  outer loop
  vertex -0.0010500002 0.00730000017 0.0173000004
  vertex 0.00425330084 0.00510330079 0.0173000004
  vertex 0.00121352542 0.00689999992 -0.000881677784
  endloop
 endfacet

 facet normal 0 0 0
  outer loop
  vertex 0.00554999989 0.00254999986 4.41241946e-06
  vertex 0.00425330084 0.00510330079 0.0173000004
  vertex 0.00644999975 -0.000199999806 0.0173000004
  endloop
 endfacet

 facet normal 0 0 0
  outer loop
  vertex 0.00554999989 0.00254999986 4.41241946e-06
  vertex 0.00644999975 -0.000199999806 0.0173000004
  vertex 0.00554999989 -0.00140668359 -0.00108289369
  endloop
 endfacet

 facet normal 0 0 0
  outer loop
  vertex 0.00554999989 0.00254999986 4.41241946e-06
  vertex 0.00554999989 -0.00140668359 -0.00108289369
  vertex 0.00266794744 0.00200639386 -0.00385970483
  endloop
 endfacet

 facet normal 0 0 0
  outer loop
  vertex 0.00554999989 0.00254999986 4.41241946e-06
  vertex 0.00266794744 0.00200639386 -0.00385970483
  vertex 0.00121352542 0.00689999992 -0.000881677784
  endloop
 endfacet

 facet normal 0 0 0
  outer loop
  vertex 0.00554999989 0.00254999986 4.41241946e-06
  vertex 0.00121352542 0.00689999992 -0.000881677784
  vertex 0.00425330084 0.00510330079 0.0173000004
  endloop
 endfacet

 facet normal 0 0 0
  outer loop
  vertex -0.00463837385 -0.00294999988 -0.00371542457
  vertex -0.00778759411 -0.00294999988 0.000454330235
  vertex -0.0060794563 0.00094535097 -0.00317570427
  endloop
 endfacet

 facet normal 0 0 0
  outer loop
  vertex -0.00463837385 -0.00294999988 -0.00371542457
  vertex -0.0060794563 0.00094535097 -0.00317570427
  vertex -0.00133883115 -0.000717564428 -0.00520773465
  endloop
 endfacet

 facet normal 0 0 0
  outer loop
  vertex -0.00463837385 -0.00294999988 -0.00371542457
  vertex -0.00133883115 -0.000717564428 -0.00520773465
  vertex 3.59535041e-11 -0.00749999983 -0.00169999944
  endloop
 endfacet

 facet normal 0 0 0
  outer loop
  vertex -0.00521677639 -0.006436022 0.001331217
  vertex -0.00635330053 -0.00550330104 0.0173000004
  vertex -0.00778759411 -0.00294999988 0.000454330235
  endloop
 endfacet

 facet normal 0 0 0
  outer loop
  vertex -0.00521677639 -0.006436022 0.001331217
  vertex -0.00778759411 -0.00294999988 0.000454330235
  vertex -0.00463837385 -0.00294999988 -0.00371542457
  endloop
 endfacet

 facet normal 0 0 0
  outer loop
  vertex -0.00521677639 -0.006436022 0.001331217
  vertex -0.00463837385 -0.00294999988 -0.00371542457
  vertex 3.59535041e-11 -0.00749999983 -0.00169999944
  endloop
 endfacet

 facet normal 0 0 0
  outer loop
  vertex -0.00521677639 -0.006436022 0.001331217
  vertex 3.59535041e-11 -0.00749999983 -0.00169999944
  vertex -0.00104999985 -0.00769999996 0.0173000004
  endloop
 endfacet

 facet normal 0 0 0
  outer loop
  vertex -0.00521677639 -0.006436022 0.001331217
  vertex -0.00104999985 -0.00769999996 0.0173000004
  vertex -0.00635330053 -0.00550330104 0.0173000004
  endloop
 endfacet

 facet normal 0 0 0
  outer loop
  vertex -0.00258170418 0.00255000009 -0.00453863898
  vertex -0.00133883115 -0.000717564428 -0.00520773465
  vertex -0.0060794563 0.00094535097 -0.00317570427
  endloop
 endfacet

 facet normal 0 0 0
  outer loop
  vertex -0.00258170418 0.00255000009 -0.00453863898
  vertex -0.0060794563 0.00094535097 -0.00317570427
  vertex -0.006353301 0.00510330033 0.00118615804
  endloop
 endfacet

 facet normal 0 0 0
  outer loop
  vertex -0.00258170418 0.00255000009 -0.00453863898
  vertex 0.00121352542 0.00689999992 -0.000881677784
  vertex 0.00266794744 0.00200639386 -0.00385970483
  endloop
 endfacet

 facet normal 0 0 0
  outer loop
  vertex -0.00258170418 0.00255000009 -0.00453863898
  vertex 0.00266794744 0.00200639386 -0.00385970483
  vertex -0.00133883115 -0.000717564428 -0.00520773465
  endloop
 endfacet

 facet normal 0 0 0
  outer loop
  vertex 0.00212222827 -0.00295000011 -0.0039460496
  vertex -0.00133883115 -0.000717564428 -0.00520773465
  vertex 0.00266794744 0.00200639386 -0.00385970483
  endloop
 endfacet

 facet normal 0 0 0
  outer loop
  vertex 0.00212222827 -0.00295000011 -0.0039460496
  vertex 0.00266794744 0.00200639386 -0.00385970483
  vertex 0.00554999989 -0.00140668359 -0.00108289369
  endloop
 endfacet

 facet normal 0 0 0
  outer loop
  vertex 0.00212222827 -0.00295000011 -0.0039460496
  vertex 3.59535041e-11 -0.00749999983 -0.00169999944
  vertex -0.00133883115 -0.000717564428 -0.00520773465
  endloop
 endfacet

 facet normal 0 0 0
  outer loop
  vertex -0.00847735256 0.000696339179 0.00173871347
  vertex -0.00778759411 -0.00294999988 0.000454330235
  vertex -0.00855000038 -0.000200000199 0.0173000004
  endloop
 endfacet

 facet normal 0 0 0
  outer loop
  vertex -0.00847735256 0.000696339179 0.00173871347
  vertex -0.00855000038 -0.000200000199 0.0173000004
  vertex -0.006353301 0.00510330079 0.0173000004
  endloop
 endfacet

 facet normal 0 0 0
  outer loop
  vertex -0.00847735256 0.000696339179 0.00173871347
  vertex -0.006353301 0.00510330079 0.0173000004
  vertex -0.006353301 0.00510330033 0.00118615804
  endloop
 endfacet

 facet normal 0 0 0
  outer loop
  vertex -0.00847735256 0.000696339179 0.00173871347
  vertex -0.006353301 0.00510330033 0.00118615804
  vertex -0.0060794563 0.00094535097 -0.00317570427
  endloop
 endfacet

 facet normal 0 0 0
  outer loop
  vertex -0.00847735256 0.000696339179 0.00173871347
  vertex -0.0060794563 0.00094535097 -0.00317570427
  vertex -0.00778759411 -0.00294999988 0.000454330235
  endloop
 endfacet

 facet normal 0 0 0
  outer loop
  vertex 0.00425330084 -0.00550330058 0.00457615918
  vertex 0.00554999989 -0.00140668359 -0.00108289369
  vertex 0.00644999975 -0.000199999806 0.0173000004
  endloop
 endfacet

 facet normal 0 0 0
  outer loop
  vertex 0.00425330084 -0.00550330058 0.00457615918
  vertex 0.00644999975 -0.000199999806 0.0173000004
  vertex 0.0042533013 -0.00550330104 0.0173000004
  endloop
 endfacet

 facet normal 0 0 0
  outer loop
  vertex -0.00322713517 0.00697705243 0.00264365203
  vertex -0.006353301 0.00510330033 0.00118615804
  vertex -0.006353301 0.00510330079 0.0173000004
  endloop
 endfacet

 facet normal 0 0 0
  outer loop
  vertex -0.00322713517 0.00697705243 0.00264365203
  vertex -0.006353301 0.00510330079 0.0173000004
  vertex -0.0010500002 0.00730000017 0.0173000004
  endloop
 endfacet

 facet normal 0 0 0
  outer loop
  vertex 0.00173509947 -0.00744142151 -0.000616655219
  vertex 0.00554999989 -0.00140668359 -0.00108289369
  vertex 0.00425330084 -0.00550330058 0.00457615918
  endloop
 endfacet

 facet normal 0 0 0
  outer loop
  vertex 0.00173509947 -0.00744142151 -0.000616655219
  vertex 0.00425330084 -0.00550330058 0.00457615918
  vertex 0.0042533013 -0.00550330104 0.0173000004
  endloop
 endfacet

 facet normal 0 0 0
  outer loop
  vertex 0.00173509947 -0.00744142151 -0.000616655219
  vertex 0.0042533013 -0.00550330104 0.0173000004
  vertex -0.00104999985 -0.00769999996 0.0173000004
  endloop
 endfacet

 facet normal 0 0 0
  outer loop
  vertex 0.00173509947 -0.00744142151 -0.000616655219
  vertex -0.00104999985 -0.00769999996 0.0173000004
  vertex 3.59535041e-11 -0.00749999983 -0.00169999944
  endloop
 endfacet

 facet normal 0 0 0
  outer loop
  vertex 0.00173509947 -0.00744142151 -0.000616655219
  vertex 3.59535041e-11 -0.00749999983 -0.00169999944
  vertex 0.00212222827 -0.00295000011 -0.0039460496
  endloop
 endfacet

 facet normal 0 0 0
  outer loop
  vertex 0.00173509947 -0.00744142151 -0.000616655219
  vertex 0.00212222827 -0.00295000011 -0.0039460496
  vertex 0.00554999989 -0.00140668359 -0.00108289369
  endloop
 endfacet

 facet normal 0 0 0
  outer loop
  vertex -0.00100369588 0.00689999992 -0.00111471699
  vertex 0.00121352542 0.00689999992 -0.000881677784
  vertex -0.00258170418 0.00255000009 -0.00453863898
  endloop
 endfacet

 facet normal 0 0 0
  outer loop
  vertex -0.00100369588 0.00689999992 -0.00111471699
  vertex -0.00258170418 0.00255000009 -0.00453863898
  vertex -0.006353301 0.00510330033 0.00118615804
  endloop
 endfacet

 facet normal 0 0 0
  outer loop
  vertex -0.00100369588 0.00689999992 -0.00111471699
  vertex -0.006353301 0.00510330033 0.00118615804
  vertex -0.00322713517 0.00697705243 0.00264365203
  endloop
 endfacet

 facet normal 0 0 0
  outer loop
  vertex -0.00100369588 0.00689999992 -0.00111471699
  vertex -0.00322713517 0.00697705243 0.00264365203
  vertex -0.0010500002 0.00730000017 0.0173000004
  endloop
 endfacet

 facet normal 0 0 0
  outer loop
  vertex -0.00100369588 0.00689999992 -0.00111471699
  vertex -0.0010500002 0.00730000017 0.0173000004
  vertex 0.00121352542 0.00689999992 -0.000881677784
  endloop
 endfacet

endsolid AssimpScene
